<svg id="图层_1" data-name="图层 1" xmlns="http://www.w3.org/2000/svg" viewBox="0 0 80.9 95.71"><defs><style>.cls-1{isolation:isolate;}.cls-2{fill:#717171;}.cls-3{fill:#b7b7b7;}.cls-4{fill:#9a9a9a;}.cls-5{fill:#9a2831;}.cls-6{fill:#a82c35;}.cls-7{fill:#f03f4c;}.cls-8{fill:#a8a8a8;}.cls-9{fill:#f0f0f0;}</style></defs><title>VFW</title><g class="cls-1"><polygon class="cls-2" points="80.9 76.18 80.88 84.33 61.29 95.71 61.32 87.56 80.9 76.18"/><polygon class="cls-2" points="61.32 87.56 61.29 95.71 0 60.33 0.02 52.17 61.32 87.56"/><polygon class="cls-3" points="80.9 76.18 61.32 87.56 0.02 52.17 19.61 40.79 80.9 76.18"/></g><g class="cls-1"><polygon class="cls-4" points="17.81 55.73 24.86 51.64 24.86 51.71 17.81 55.8 17.81 55.73"/><polygon class="cls-5" points="17.13 46.35 24.17 42.25 24.15 51.23 17.1 55.32 17.13 46.35"/><polygon class="cls-6" points="10.55 42.55 17.6 38.46 24.17 42.25 17.13 46.35 10.55 42.55"/><polygon class="cls-7" points="10.52 51.53 10.55 42.55 17.13 46.35 17.1 55.32 10.52 51.53"/><polygon class="cls-4" points="17.13 45.9 24.18 41.81 24.17 42.25 17.13 46.35 17.13 45.9"/><polygon class="cls-4" points="17.83 46.76 24.88 42.66 24.86 51.64 17.81 55.73 17.83 46.76"/><polygon class="cls-8" points="17.13 45.9 24.18 41.81 24.88 42.22 17.84 46.31 17.13 45.9"/><polygon class="cls-9" points="17.84 46.31 17.83 46.76 17.81 55.73 17.81 55.8 17.1 55.4 17.1 55.32 17.13 46.35 17.13 45.9 17.84 46.31"/><polygon class="cls-6" points="17.83 46.76 24.88 42.66 42.66 52.93 35.61 57.02 17.83 46.76"/><polygon class="cls-4" points="17.84 46.31 24.88 42.22 24.88 42.66 17.83 46.76 17.84 46.31"/><polygon class="cls-4" points="24.98 50.07 32.03 45.97 32.03 46.43 24.98 50.52 24.98 50.07"/><polygon class="cls-8" points="10.55 41.74 17.6 37.64 32.03 45.97 24.98 50.07 10.55 41.74"/><polygon class="cls-8" points="24.98 50.52 32.03 46.43 32.74 46.84 25.69 50.93 24.98 50.52"/><polygon class="cls-6" points="10.58 33.06 17.62 28.96 32.05 37.3 25.01 41.39 10.58 33.06"/><polygon class="cls-8" points="10.58 32.25 17.63 28.15 24.2 31.95 17.16 36.04 10.58 32.25"/><polygon class="cls-4" points="17.16 36.04 24.2 31.95 24.2 32.26 17.15 36.36 17.16 36.04"/><polygon class="cls-4" points="25.69 50.48 32.74 46.38 32.74 46.84 25.69 50.93 25.69 50.48"/><polygon class="cls-8" points="17.15 36.36 24.2 32.26 24.91 32.67 17.86 36.77 17.15 36.36"/><polygon class="cls-4" points="17.86 36.45 24.91 32.36 24.91 32.67 17.86 36.77 17.86 36.45"/><polygon class="cls-4" points="36.29 66.4 43.34 62.31 43.34 62.38 36.29 66.48 36.29 66.4"/><polygon class="cls-7" points="25.01 41.39 24.98 50.07 10.55 41.74 10.58 33.06 25.01 41.39"/><polygon class="cls-5" points="25.01 41.39 32.05 37.3 32.03 45.97 24.98 50.07 25.01 41.39"/><polygon class="cls-4" points="25.01 41.02 32.05 36.93 32.05 37.3 25.01 41.39 25.01 41.02"/><polygon class="cls-5" points="17.18 27.36 24.23 23.26 24.2 31.95 17.16 36.04 17.18 27.36"/><polygon class="cls-6" points="10.6 23.56 17.65 19.46 24.23 23.26 17.18 27.36 10.6 23.56"/><polygon class="cls-7" points="17.18 27.36 17.16 36.04 10.58 32.25 10.6 23.56 17.18 27.36"/><polygon class="cls-4" points="25.71 41.8 32.76 37.7 32.74 46.38 25.69 50.48 25.71 41.8"/><polygon class="cls-4" points="17.18 26.86 24.23 22.77 24.23 23.26 17.18 27.36 17.18 26.86"/><polygon class="cls-9" points="25.71 41.43 25.71 41.8 25.69 50.48 25.69 50.93 24.98 50.52 24.98 50.07 25.01 41.39 25.01 41.02 25.71 41.43"/><polygon class="cls-8" points="25.01 41.02 32.05 36.93 32.76 37.34 25.71 41.43 25.01 41.02"/><polygon class="cls-4" points="25.71 41.43 32.76 37.34 32.76 37.7 25.71 41.8 25.71 41.43"/><polygon class="cls-4" points="17.89 27.77 24.94 23.67 24.91 32.36 17.86 36.45 17.89 27.77"/><polygon class="cls-8" points="17.18 26.86 24.23 22.77 24.94 23.18 17.89 27.27 17.18 26.86"/><polygon class="cls-9" points="17.89 27.27 17.89 27.77 17.86 36.45 17.86 36.77 17.15 36.36 17.16 36.04 17.18 27.36 17.18 26.86 17.89 27.27"/><polygon class="cls-6" points="17.89 27.77 24.94 23.67 42.71 33.93 35.66 38.03 17.89 27.77"/><polygon class="cls-4" points="17.89 27.27 24.94 23.18 24.94 23.67 17.89 27.77 17.89 27.27"/><polygon class="cls-7" points="17.81 55.73 17.83 46.76 35.61 57.02 35.58 65.99 17.81 55.73"/><polygon class="cls-5" points="35.61 57.02 42.66 52.93 42.63 61.9 35.58 65.99 35.61 57.02"/><polygon class="cls-4" points="35.61 56.57 42.66 52.48 42.66 52.93 35.61 57.02 35.61 56.57"/><polygon class="cls-4" points="36.32 57.43 43.37 53.34 43.34 62.31 36.29 66.4 36.32 57.43"/><polygon class="cls-9" points="36.32 56.98 36.32 57.43 36.29 66.4 36.29 66.48 35.58 66.07 35.58 65.99 35.61 57.02 35.61 56.57 36.32 56.98"/><polygon class="cls-4" points="36.32 56.98 43.37 52.89 43.37 53.34 36.32 57.43 36.32 56.98"/><polygon class="cls-8" points="35.61 56.57 42.66 52.48 43.37 52.89 36.32 56.98 35.61 56.57"/><polygon class="cls-4" points="25.04 31.08 32.08 26.98 32.08 27.39 25.03 31.49 25.04 31.08"/><polygon class="cls-8" points="10.61 22.75 17.65 18.65 32.08 26.98 25.04 31.08 10.61 22.75"/><polygon class="cls-8" points="25.03 31.49 32.08 27.39 32.79 27.8 25.74 31.9 25.03 31.49"/><polygon class="cls-6" points="10.63 14.07 17.68 9.97 32.11 18.3 25.06 22.4 10.63 14.07"/><polygon class="cls-8" points="10.63 13.24 17.68 9.15 24.26 12.95 17.21 17.04 10.63 13.24"/><polygon class="cls-4" points="17.21 17.04 24.26 12.95 24.25 13.36 17.21 17.45 17.21 17.04"/><polygon class="cls-4" points="25.74 31.48 32.79 27.39 32.79 27.8 25.74 31.9 25.74 31.48"/><polygon class="cls-8" points="17.21 17.45 24.25 13.36 24.96 13.77 17.92 17.86 17.21 17.45"/><polygon class="cls-4" points="17.92 17.45 24.96 13.35 24.96 13.77 17.92 17.86 17.92 17.45"/><polygon class="cls-6" points="25.71 41.8 32.76 37.7 53.93 49.92 46.88 54.02 25.71 41.8"/><polygon class="cls-8" points="17.86 36.45 24.91 32.36 42.69 42.62 35.64 46.71 17.86 36.45"/><polygon class="cls-4" points="35.64 46.71 42.69 42.62 42.69 42.93 35.64 47.03 35.64 46.71"/><polygon class="cls-8" points="35.64 47.03 42.69 42.93 43.39 43.34 36.35 47.44 35.64 47.03"/><polygon class="cls-4" points="36.35 47.12 43.4 43.03 43.39 43.34 36.35 47.44 36.35 47.12"/><polygon class="cls-6" points="36.32 57.43 43.37 53.34 64.37 65.46 57.32 69.56 36.32 57.43"/><polygon class="cls-8" points="25.69 50.48 32.74 46.38 53.9 58.6 46.85 62.7 25.69 50.48"/><polygon class="cls-4" points="46.85 62.7 53.9 58.6 53.9 59.06 46.85 63.15 46.85 62.7"/><polygon class="cls-8" points="46.85 63.15 53.9 59.06 54.61 59.47 47.56 63.56 46.85 63.15"/><polygon class="cls-4" points="47.56 63.11 54.61 59.01 54.61 59.47 47.56 63.56 47.56 63.11"/><polygon class="cls-7" points="25.06 22.4 25.04 31.08 10.61 22.75 10.63 14.07 25.06 22.4"/><polygon class="cls-5" points="25.06 22.4 32.11 18.3 32.08 26.98 25.04 31.08 25.06 22.4"/><polygon class="cls-4" points="58.01 78.94 65.06 74.84 65.05 74.92 58.01 79.01 58.01 78.94"/><polygon class="cls-4" points="25.06 21.99 32.11 17.89 32.11 18.3 25.06 22.4 25.06 21.99"/><polygon class="cls-4" points="25.77 22.81 32.82 18.71 32.79 27.39 25.74 31.48 25.77 22.81"/><polygon class="cls-5" points="17.23 7.95 24.28 3.85 24.26 12.95 17.21 17.04 17.23 7.95"/><polygon class="cls-9" points="25.77 22.39 25.77 22.81 25.74 31.48 25.74 31.9 25.03 31.49 25.04 31.08 25.06 22.4 25.06 21.99 25.77 22.39"/><polygon class="cls-8" points="25.06 21.99 32.11 17.89 32.82 18.3 25.77 22.39 25.06 21.99"/><polygon class="cls-4" points="25.77 22.39 32.82 18.3 32.82 18.71 25.77 22.81 25.77 22.39"/><polygon class="cls-9" points="17.94 8.36 17.92 17.45 17.92 17.86 17.21 17.45 17.21 17.04 17.23 7.95 17.94 8.36"/><polygon class="cls-4" points="17.94 8.36 24.99 4.26 24.96 13.35 17.92 17.45 17.94 8.36"/><polygon class="cls-8" points="17.23 7.95 24.28 3.85 24.99 4.26 17.94 8.36 17.23 7.95"/><polygon class="cls-7" points="17.86 36.45 17.89 27.77 35.66 38.03 35.64 46.71 17.86 36.45"/><polygon class="cls-5" points="35.66 38.03 42.71 33.93 42.69 42.62 35.64 46.71 35.66 38.03"/><polygon class="cls-4" points="35.66 37.54 42.71 33.44 42.71 33.93 35.66 38.03 35.66 37.54"/><polygon class="cls-4" points="36.37 38.44 43.42 34.34 43.4 43.03 36.35 47.12 36.37 38.44"/><polygon class="cls-8" points="35.66 37.54 42.71 33.44 43.42 33.85 36.37 37.95 35.66 37.54"/><polygon class="cls-9" points="36.37 37.95 36.37 38.44 36.35 47.12 36.35 47.44 35.64 47.03 35.64 46.71 35.66 38.03 35.66 37.54 36.37 37.95"/><polygon class="cls-6" points="36.37 38.44 43.42 34.34 64.42 46.47 57.38 50.56 36.37 38.44"/><polygon class="cls-4" points="36.37 37.95 43.42 33.85 43.42 34.34 36.37 38.44 36.37 37.95"/><polygon class="cls-7" points="25.69 50.48 25.71 41.8 46.88 54.02 46.85 62.7 25.69 50.48"/><polygon class="cls-5" points="46.88 54.02 53.93 49.92 53.9 58.6 46.85 62.7 46.88 54.02"/><polygon class="cls-4" points="46.88 53.65 53.93 49.56 53.93 49.92 46.88 54.02 46.88 53.65"/><polygon class="cls-4" points="47.59 54.43 54.64 50.33 54.61 59.01 47.56 63.11 47.59 54.43"/><polygon class="cls-8" points="46.88 53.65 53.93 49.56 54.64 49.97 47.59 54.06 46.88 53.65"/><polygon class="cls-6" points="47.59 54.43 54.64 50.33 70.3 59.38 63.25 63.47 47.59 54.43"/><polygon class="cls-4" points="47.59 54.06 54.64 49.97 54.64 50.33 47.59 54.43 47.59 54.06"/><polygon class="cls-9" points="47.59 54.06 47.59 54.43 47.56 63.11 47.56 63.56 46.85 63.15 46.85 62.7 46.88 54.02 46.88 53.65 47.59 54.06"/><polygon class="cls-5" points="57.32 69.56 64.37 65.46 64.35 74.44 57.3 78.53 57.32 69.56"/><polygon class="cls-7" points="36.29 66.4 36.32 57.43 57.32 69.56 57.3 78.53 36.29 66.4"/><polygon class="cls-4" points="57.33 69.11 64.37 65.02 64.37 65.46 57.32 69.56 57.33 69.11"/><polygon class="cls-4" points="58.03 69.97 65.08 65.87 65.06 74.84 58.01 78.94 58.03 69.97"/><polygon class="cls-6" points="58.03 69.97 65.08 65.87 70.27 68.87 63.22 72.97 58.03 69.97"/><polygon class="cls-4" points="58.03 69.52 65.08 65.42 65.08 65.87 58.03 69.97 58.03 69.52"/><polygon class="cls-8" points="57.33 69.11 64.37 65.02 65.08 65.42 58.03 69.52 57.33 69.11"/><polygon class="cls-9" points="58.03 69.52 58.03 69.97 58.01 78.94 58.01 79.01 57.3 78.6 57.3 78.53 57.32 69.56 57.33 69.11 58.03 69.52"/><polygon class="cls-6" points="25.77 22.81 32.82 18.71 53.98 30.93 46.93 35.03 25.77 22.81"/><polygon class="cls-8" points="17.92 17.45 24.96 13.35 42.74 23.62 35.69 27.71 17.92 17.45"/><polygon class="cls-4" points="35.69 27.71 42.74 23.62 42.74 24.03 35.69 28.12 35.69 27.71"/><polygon class="cls-8" points="35.69 28.12 42.74 24.03 43.45 24.44 36.4 28.53 35.69 28.12"/><polygon class="cls-4" points="36.4 28.12 43.45 24.03 43.45 24.44 36.4 28.53 36.4 28.12"/><polygon class="cls-7" points="58.01 78.94 58.03 69.97 63.22 72.97 63.2 81.94 58.01 78.94"/><polygon class="cls-5" points="63.22 72.97 70.27 68.87 70.25 77.84 63.2 81.94 63.22 72.97"/><polygon class="cls-4" points="63.23 72.15 70.27 68.05 70.27 68.87 63.22 72.97 63.23 72.15"/><polygon class="cls-8" points="47.56 63.11 54.61 59.01 70.27 68.05 63.23 72.15 47.56 63.11"/><polygon class="cls-9" points="63.23 72.15 63.22 72.97 58.03 69.97 58.03 69.52 57.33 69.11 57.32 69.56 36.32 57.43 36.32 56.98 35.61 56.57 35.61 57.02 17.83 46.76 17.84 46.31 17.13 45.9 17.13 46.35 10.55 42.55 10.55 41.74 24.98 50.07 24.98 50.52 25.69 50.93 25.69 50.48 46.85 62.7 46.85 63.15 47.56 63.56 47.56 63.11 63.23 72.15"/><polygon class="cls-8" points="25.74 31.48 32.79 27.39 53.96 39.61 46.91 43.7 25.74 31.48"/><polygon class="cls-4" points="46.91 43.7 53.96 39.61 53.96 40.02 46.91 44.12 46.91 43.7"/><polygon class="cls-8" points="46.91 44.12 53.96 40.02 54.66 40.43 47.62 44.52 46.91 44.12"/><polygon class="cls-4" points="47.62 44.11 54.66 40.02 54.66 40.43 47.62 44.52 47.62 44.11"/><polygon class="cls-4" points="57.35 59.25 64.4 55.16 64.4 55.47 57.35 59.57 57.35 59.25"/><polygon class="cls-8" points="36.35 47.12 43.4 43.03 64.4 55.16 57.35 59.25 36.35 47.12"/><polygon class="cls-8" points="57.35 59.57 64.4 55.47 65.11 55.88 58.06 59.98 57.35 59.57"/><polygon class="cls-4" points="58.06 59.66 65.11 55.56 65.11 55.88 58.06 59.98 58.06 59.66"/><polygon class="cls-5" points="35.72 18.62 42.77 14.53 42.74 23.62 35.69 27.71 35.72 18.62"/><polygon class="cls-4" points="36.43 19.03 43.48 14.94 43.45 24.03 36.4 28.12 36.43 19.03"/><polygon class="cls-8" points="35.72 18.62 42.77 14.53 43.48 14.94 36.43 19.03 35.72 18.62"/><polygon class="cls-9" points="36.43 19.03 36.4 28.12 36.4 28.53 35.69 28.12 35.69 27.71 35.72 18.62 36.43 19.03"/><polygon class="cls-5" points="63.25 63.47 70.3 59.38 70.27 68.05 63.23 72.15 63.25 63.47"/><polygon class="cls-7" points="47.56 63.11 47.59 54.43 63.25 63.47 63.23 72.15 47.56 63.11"/><polygon class="cls-5" points="46.93 35.03 53.98 30.93 53.96 39.61 46.91 43.7 46.93 35.03"/><polygon class="cls-7" points="25.74 31.48 25.77 22.81 46.93 35.03 46.91 43.7 25.74 31.48"/><polygon class="cls-4" points="46.93 34.62 53.98 30.52 53.98 30.93 46.93 35.03 46.93 34.62"/><polygon class="cls-4" points="63.25 62.66 70.3 58.56 70.3 59.38 63.25 63.47 63.25 62.66"/><polygon class="cls-9" points="63.25 62.66 63.25 63.47 47.59 54.43 47.59 54.06 46.88 53.65 46.88 54.02 25.71 41.8 25.71 41.43 25.01 41.02 25.01 41.39 10.58 33.06 10.58 32.25 17.16 36.04 17.15 36.36 17.86 36.77 17.86 36.45 35.64 46.71 35.64 47.03 36.35 47.44 36.35 47.12 57.35 59.25 57.35 59.57 58.06 59.98 58.06 59.66 63.25 62.66"/><polygon class="cls-8" points="58.06 59.66 65.11 55.56 70.3 58.56 63.25 62.66 58.06 59.66"/><polygon class="cls-4" points="47.64 35.44 54.69 31.34 54.66 40.02 47.62 44.11 47.64 35.44"/><polygon class="cls-9" points="47.64 35.02 47.64 35.44 47.62 44.11 47.62 44.52 46.91 44.12 46.91 43.7 46.93 35.03 46.93 34.62 47.64 35.02"/><polygon class="cls-8" points="46.93 34.62 53.98 30.52 54.69 30.93 47.64 35.02 46.93 34.62"/><polygon class="cls-6" points="47.64 35.44 54.69 31.34 70.35 40.38 63.3 44.48 47.64 35.44"/><polygon class="cls-4" points="47.64 35.02 54.69 30.93 54.69 31.34 47.64 35.44 47.64 35.02"/><polygon class="cls-5" points="57.38 50.56 64.42 46.47 64.4 55.16 57.35 59.25 57.38 50.56"/><polygon class="cls-7" points="57.38 50.56 57.35 59.25 36.35 47.12 36.37 38.44 57.38 50.56"/><polygon class="cls-4" points="57.38 50.07 64.43 45.98 64.42 46.47 57.38 50.56 57.38 50.07"/><polygon class="cls-4" points="58.09 50.97 65.13 46.88 65.11 55.56 58.06 59.66 58.09 50.97"/><polygon class="cls-9" points="58.09 50.48 58.09 50.97 58.06 59.66 58.06 59.98 57.35 59.57 57.35 59.25 57.38 50.56 57.38 50.07 58.09 50.48"/><polygon class="cls-6" points="58.09 50.97 65.13 46.88 70.33 49.88 63.28 53.97 58.09 50.97"/><polygon class="cls-4" points="58.09 50.48 65.14 46.39 65.13 46.88 58.09 50.97 58.09 50.48"/><polygon class="cls-8" points="57.38 50.07 64.43 45.98 65.14 46.39 58.09 50.48 57.38 50.07"/><polygon class="cls-7" points="58.06 59.66 58.09 50.97 63.28 53.97 63.25 62.66 58.06 59.66"/><polygon class="cls-9" points="63.28 53.16 63.28 53.97 58.09 50.97 58.09 50.48 57.38 50.07 57.38 50.56 36.37 38.44 36.37 37.95 35.66 37.54 35.66 38.03 17.89 27.77 17.89 27.27 17.18 26.86 17.18 27.36 10.6 23.56 10.61 22.75 25.04 31.08 25.03 31.49 25.74 31.9 25.74 31.48 46.91 43.7 46.91 44.12 47.62 44.52 47.62 44.11 63.28 53.16"/><polygon class="cls-5" points="63.28 53.97 70.33 49.88 70.3 58.56 63.25 62.66 63.28 53.97"/><polygon class="cls-8" points="47.62 44.11 54.66 40.02 70.33 49.06 63.28 53.16 47.62 44.11"/><polygon class="cls-4" points="63.28 53.16 70.33 49.06 70.33 49.88 63.28 53.97 63.28 53.16"/><polygon class="cls-8" points="36.4 28.12 43.45 24.03 64.45 36.15 57.41 40.25 36.4 28.12"/><polygon class="cls-4" points="57.41 40.25 64.45 36.15 64.45 36.56 57.41 40.66 57.41 40.25"/><polygon class="cls-8" points="57.41 40.66 64.45 36.56 65.16 36.97 58.11 41.07 57.41 40.66"/><polygon class="cls-4" points="58.12 40.66 65.16 36.56 65.16 36.97 58.11 41.07 58.12 40.66"/><polygon class="cls-7" points="47.62 44.11 47.64 35.44 63.3 44.48 63.28 53.16 47.62 44.11"/><polygon class="cls-5" points="63.3 44.48 70.35 40.38 70.33 49.06 63.28 53.16 63.3 44.48"/><polygon class="cls-8" points="58.12 40.66 65.16 36.56 70.35 39.56 63.31 43.66 58.12 40.66"/><polygon class="cls-9" points="63.31 43.66 63.3 44.48 47.64 35.44 47.64 35.02 46.93 34.62 46.93 35.03 25.77 22.81 25.77 22.39 25.06 21.99 25.06 22.4 10.63 14.07 10.63 13.24 17.21 17.04 17.21 17.45 17.92 17.86 17.92 17.45 35.69 27.71 35.69 28.12 36.4 28.53 36.4 28.12 57.41 40.25 57.41 40.66 58.11 41.07 58.12 40.66 63.31 43.66"/><polygon class="cls-4" points="63.31 43.66 70.35 39.56 70.35 40.38 63.3 44.48 63.31 43.66"/><polygon class="cls-5" points="57.43 31.16 64.48 27.06 64.45 36.15 57.41 40.25 57.43 31.16"/><polygon class="cls-9" points="58.14 31.57 58.12 40.66 58.11 41.07 57.41 40.66 57.41 40.25 57.43 31.16 58.14 31.57"/><polygon class="cls-4" points="58.14 31.57 65.19 27.47 65.16 36.56 58.12 40.66 58.14 31.57"/><polygon class="cls-8" points="57.43 31.16 64.48 27.06 65.19 27.47 58.14 31.57 57.43 31.16"/><polygon class="cls-6" points="10.66 4.1 17.71 0 70.38 30.41 63.33 34.51 10.66 4.1"/><polygon class="cls-7" points="10.66 4.1 63.33 34.51 63.31 43.66 58.12 40.66 58.14 31.57 57.43 31.16 57.41 40.25 36.4 28.12 36.43 19.03 35.72 18.62 35.69 27.71 17.92 17.45 17.94 8.36 17.23 7.95 17.21 17.04 10.63 13.24 10.66 4.1"/><polygon class="cls-5" points="63.33 34.51 70.38 30.41 70.35 39.56 63.31 43.66 63.33 34.51"/></g></svg>