<svg id="图层_1" data-name="图层 1" xmlns="http://www.w3.org/2000/svg" xmlns:xlink="http://www.w3.org/1999/xlink" viewBox="0 0 68.39 95.71"><defs><style>.cls-1{fill:none;}.cls-2{isolation:isolate;}.cls-3{clip-path:url(#clip-path);}.cls-4{fill:#ca9a00;}.cls-5{fill:#c59600;}.cls-6{fill:#c09200;}.cls-7{fill:#bb8f00;}.cls-8{fill:#b68b00;}.cls-9{fill:#b28700;}.cls-10{fill:#ad8400;}.cls-11{fill:#a88000;}.cls-12{fill:#a37c00;}.cls-13{fill:#9e7900;}.cls-14{fill:#9a7500;}.cls-15{fill:#957100;}.cls-16{fill:#906e00;}.cls-17{fill:#8b6a00;}.cls-18{fill:#866600;}.cls-19{fill:#826300;}.cls-20{clip-path:url(#clip-path-2);}.cls-21{fill:#7d5f00;}.cls-22{fill:#daa600;}.cls-23{clip-path:url(#clip-path-3);}.cls-24{fill:#ce9d00;}.cls-25{fill:#d3a100;}.cls-26{fill:#d8a500;}.cls-27{fill:#dda800;}.cls-28{fill:#e2ac00;}.cls-29{fill:#e6b000;}.cls-30{fill:#ebb300;}.cls-31{fill:#f0b700;}.cls-32{fill:#f2c01f;}.cls-33{fill:#f3c32b;}.cls-34{fill:#876700;}.cls-35{clip-path:url(#clip-path-4);}.cls-36{clip-path:url(#clip-path-5);}.cls-37{fill:#785c00;}.cls-38{clip-path:url(#clip-path-6);}.cls-39{clip-path:url(#clip-path-7);}.cls-40{fill:#cf9e00;}.cls-41{fill:#ab8300;}.cls-42{fill:#b98d00;}.cls-43{fill:#a27c00;}.cls-44{clip-path:url(#clip-path-8);}.cls-45{clip-path:url(#clip-path-9);}.cls-46{clip-path:url(#clip-path-10);}.cls-47{fill:#816200;}.cls-48{clip-path:url(#clip-path-11);}.cls-49{clip-path:url(#clip-path-12);}.cls-50{fill:#f3c635;}.cls-51{fill:#f4c83d;}.cls-52{fill:#f4ca44;}</style><clipPath id="clip-path" transform="translate(-1091.15 -367.67)"><path class="cls-1" d="M1159.17,438.7l-42,24.41a0.5,0.5,0,0,0,.21-0.46l42-24.41A0.5,0.5,0,0,1,1159.17,438.7Z"/></clipPath><clipPath id="clip-path-2" transform="translate(-1091.15 -367.67)"><path class="cls-1" d="M1094.29,392.13l42-24.41a0.51,0.51,0,0,1,.51,0l-42,24.41A0.51,0.51,0,0,0,1094.29,392.13Z"/></clipPath><clipPath id="clip-path-3" transform="translate(-1091.15 -367.67)"><path class="cls-1" d="M1116.81,404.89l42-24.41a1.6,1.6,0,0,1,.72,1.25l-42,24.41A1.6,1.6,0,0,0,1116.81,404.89Z"/></clipPath><clipPath id="clip-path-4" transform="translate(-1091.15 -367.67)"><path class="cls-1" d="M1092,450.65l-0.18-.17,0,0,0,0,0,0,0,0,0,0,0,0a0.91,0.91,0,0,0,.18.14l0.56,0.5A2.13,2.13,0,0,1,1092,450.65Z"/></clipPath><clipPath id="clip-path-5" transform="translate(-1091.15 -367.67)"><path class="cls-1" d="M1091.34,449.76l-0.11-.43a2.12,2.12,0,0,1-.07-0.54l0.16,0.74A0.91,0.91,0,0,0,1091.34,449.76Z"/></clipPath><clipPath id="clip-path-6" transform="translate(-1091.15 -367.67)"><path class="cls-1" d="M1113.6,462.4l1.28,0.09a0.77,0.77,0,0,1-1.27.73l-0.56-.5A0.34,0.34,0,0,0,1113.6,462.4Z"/></clipPath><clipPath id="clip-path-7" transform="translate(-1091.15 -367.67)"><path class="cls-1" d="M1116.94,461.88l-2.44,1.42a0.89,0.89,0,0,0,.37-0.81l2.44-1.42A0.89,0.89,0,0,1,1116.94,461.88Z"/></clipPath><clipPath id="clip-path-8" transform="translate(-1091.15 -367.67)"><path class="cls-1" d="M1091.46,395.5l-0.16-.74a0.77,0.77,0,0,1,1.27-.73l-0.56,1.15A0.34,0.34,0,0,0,1091.46,395.5Z"/></clipPath><clipPath id="clip-path-9" transform="translate(-1091.15 -367.67)"><path class="cls-1" d="M1091.67,394l2.44-1.42a0.9,0.9,0,0,1,.9.09l-2.44,1.42A0.9,0.9,0,0,0,1091.67,394Z"/></clipPath><clipPath id="clip-path-10" transform="translate(-1091.15 -367.67)"><path class="cls-1" d="M1116.62,405.18l0.32,0.31a1.31,1.31,0,0,1,.34.58h0v0.43A3,3,0,0,0,1116.62,405.18Z"/></clipPath><clipPath id="clip-path-11" transform="translate(-1091.15 -367.67)"><path class="cls-1" d="M1113.2,407.42l0.56-1.15a2.79,2.79,0,0,1,1.26,2.19l-1.28-.09A1.22,1.22,0,0,0,1113.2,407.42Z"/></clipPath><clipPath id="clip-path-12" transform="translate(-1091.15 -367.67)"><path class="cls-1" d="M1113.76,406.27l2.44-1.42a2.79,2.79,0,0,1,1.26,2.19l-2.44,1.42A2.79,2.79,0,0,0,1113.76,406.27Z"/></clipPath></defs><title>VM</title><g class="cls-2"><g class="cls-2"><g class="cls-3"><g class="cls-2"><path class="cls-4" d="M1117.37,462.65l42-24.41v0l-42,24.41v0" transform="translate(-1091.15 -367.67)"/><path class="cls-5" d="M1117.37,462.68l42-24.41v0l-42,24.41v0" transform="translate(-1091.15 -367.67)"/><path class="cls-6" d="M1117.37,462.72l42-24.41v0l-42,24.41v0" transform="translate(-1091.15 -367.67)"/><path class="cls-7" d="M1117.36,462.75l42-24.41v0l-42,24.41v0" transform="translate(-1091.15 -367.67)"/><path class="cls-8" d="M1117.36,462.78l42-24.41v0l-42,24.41v0" transform="translate(-1091.15 -367.67)"/><path class="cls-9" d="M1117.35,462.81l42-24.41v0l-42,24.41v0" transform="translate(-1091.15 -367.67)"/><path class="cls-10" d="M1117.35,462.84l42-24.41v0l-42,24.41v0" transform="translate(-1091.15 -367.67)"/><path class="cls-11" d="M1117.34,462.87l42-24.41v0l-42,24.41v0" transform="translate(-1091.15 -367.67)"/><path class="cls-12" d="M1117.33,462.9l42-24.41v0l-42,24.41v0" transform="translate(-1091.15 -367.67)"/><path class="cls-13" d="M1117.32,462.92l42-24.41v0l-42,24.41v0" transform="translate(-1091.15 -367.67)"/><path class="cls-14" d="M1117.3,463l42-24.41v0l-42,24.41v0" transform="translate(-1091.15 -367.67)"/><path class="cls-15" d="M1117.29,463l42-24.41,0,0-42,24.41,0,0" transform="translate(-1091.15 -367.67)"/><path class="cls-16" d="M1117.27,463l42-24.41,0,0-42,24.41,0,0" transform="translate(-1091.15 -367.67)"/><path class="cls-17" d="M1117.25,463l42-24.41,0,0-42,24.41,0,0" transform="translate(-1091.15 -367.67)"/><path class="cls-18" d="M1117.23,463.06l42-24.41,0,0-42,24.41,0,0" transform="translate(-1091.15 -367.67)"/><path class="cls-19" d="M1117.2,463.08l42-24.41,0,0-42,24.41,0,0" transform="translate(-1091.15 -367.67)"/></g></g></g><g class="cls-2"><g class="cls-20"><g class="cls-2"><path class="cls-21" d="M1094.29,392.13l42-24.41a0.39,0.39,0,0,1,.25,0l-42,24.41a0.39,0.39,0,0,0-.25,0" transform="translate(-1091.15 -367.67)"/><path class="cls-19" d="M1094.54,392.09l42-24.41h0.06l-42,24.41h-0.06" transform="translate(-1091.15 -367.67)"/><path class="cls-18" d="M1094.59,392.1l42-24.41h0l-42,24.41h0" transform="translate(-1091.15 -367.67)"/><path class="cls-17" d="M1094.64,392.11l42-24.41h0l-42,24.41h0" transform="translate(-1091.15 -367.67)"/><path class="cls-16" d="M1094.68,392.13l42-24.41,0,0-42,24.41,0,0" transform="translate(-1091.15 -367.67)"/><path class="cls-15" d="M1094.72,392.14l42-24.41,0,0-42,24.41,0,0" transform="translate(-1091.15 -367.67)"/><path class="cls-14" d="M1094.76,392.16l42-24.41,0,0-42,24.41,0,0" transform="translate(-1091.15 -367.67)"/><polyline class="cls-13" points="3.64 24.51 45.65 0.09 45.66 0.1 3.65 24.51 3.64 24.51"/></g></g></g><polygon class="cls-22" points="26.38 38.47 68.39 14.05 68.23 70.56 26.22 94.98 26.38 38.47"/><polygon class="cls-10" points="3.65 24.51 45.66 0.1 67.67 12.8 25.66 37.22 3.65 24.51"/><g class="cls-2"><g class="cls-23"><g class="cls-2"><path class="cls-13" d="M1116.81,404.89l42-24.41h0l-42,24.41h0" transform="translate(-1091.15 -367.67)"/><path class="cls-12" d="M1116.83,404.9l42-24.41,0,0-42,24.41,0,0" transform="translate(-1091.15 -367.67)"/><path class="cls-11" d="M1116.86,404.92l42-24.41,0,0-42,24.41,0,0" transform="translate(-1091.15 -367.67)"/><path class="cls-10" d="M1116.89,404.94l42-24.41,0,0-42,24.41,0,0" transform="translate(-1091.15 -367.67)"/><path class="cls-9" d="M1116.92,405l42-24.41,0,0L1117,405l0,0" transform="translate(-1091.15 -367.67)"/><path class="cls-8" d="M1117,405l42-24.41,0,0L1117,405l0,0" transform="translate(-1091.15 -367.67)"/><path class="cls-7" d="M1117,405l42-24.41,0,0L1117,405l0,0" transform="translate(-1091.15 -367.67)"/><path class="cls-6" d="M1117,405l42-24.41,0,0-42,24.41,0,0" transform="translate(-1091.15 -367.67)"/><path class="cls-5" d="M1117,405.06l42-24.41,0,0-42,24.41,0,0" transform="translate(-1091.15 -367.67)"/><path class="cls-4" d="M1117.06,405.09l42-24.41,0,0-42,24.41,0,0" transform="translate(-1091.15 -367.67)"/><path class="cls-24" d="M1117.09,405.12l42-24.41,0,0-42,24.41,0,0" transform="translate(-1091.15 -367.67)"/><path class="cls-25" d="M1117.12,405.15l42-24.41,0,0-42,24.41,0,0" transform="translate(-1091.15 -367.67)"/><path class="cls-26" d="M1117.15,405.18l42-24.41,0,0-42,24.41,0,0" transform="translate(-1091.15 -367.67)"/><path class="cls-27" d="M1117.17,405.22l42-24.41,0,0-42,24.41,0,0" transform="translate(-1091.15 -367.67)"/><path class="cls-28" d="M1117.2,405.25l42-24.41,0,0-42,24.41,0,0" transform="translate(-1091.15 -367.67)"/><path class="cls-29" d="M1117.23,405.28l42-24.41,0,0-42,24.41,0,0" transform="translate(-1091.15 -367.67)"/><path class="cls-30" d="M1117.25,405.32l42-24.41,0,0-42,24.41,0,0" transform="translate(-1091.15 -367.67)"/><path class="cls-31" d="M1117.28,405.36l42-24.41,0,0-42,24.41,0,0" transform="translate(-1091.15 -367.67)"/><path class="cls-32" d="M1117.3,405.4l42-24.41,0,0.06-42,24.41,0-.06" transform="translate(-1091.15 -367.67)"/><path class="cls-33" d="M1117.33,405.46l42-24.41a1.73,1.73,0,0,1,.1.22l-42,24.41a1.73,1.73,0,0,0-.1-0.22" transform="translate(-1091.15 -367.67)"/><path class="cls-32" d="M1117.44,405.68l42-24.41,0,0.07-42,24.41,0-.07" transform="translate(-1091.15 -367.67)"/><path class="cls-31" d="M1117.46,405.75l42-24.41,0,0.06-42,24.41,0-.06" transform="translate(-1091.15 -367.67)"/><path class="cls-30" d="M1117.48,405.81l42-24.41v0.06l-42,24.41v-0.06" transform="translate(-1091.15 -367.67)"/><path class="cls-29" d="M1117.5,405.86l42-24.41v0.05l-42,24.41v-0.05" transform="translate(-1091.15 -367.67)"/><path class="cls-28" d="M1117.51,405.92l42-24.41v0l-42,24.41v0" transform="translate(-1091.15 -367.67)"/><path class="cls-27" d="M1117.52,406l42-24.41v0l-42,24.41v0" transform="translate(-1091.15 -367.67)"/><path class="cls-26" d="M1117.52,406l42-24.41v0l-42,24.41v0" transform="translate(-1091.15 -367.67)"/><path class="cls-25" d="M1117.53,406.06l42-24.41v0l-42,24.41v0" transform="translate(-1091.15 -367.67)"/><path class="cls-24" d="M1117.53,406.1l42-24.41s0,0,0,0l-42,24.41s0,0,0,0" transform="translate(-1091.15 -367.67)"/><polyline class="cls-4" points="26.38 38.47 68.39 14.05 68.39 14.05 26.38 38.47 26.38 38.47"/></g></g></g><path class="cls-34" d="M1116.81,404.89a1.6,1.6,0,0,1,.72,1.25l-0.16,56.51a0.44,0.44,0,0,1-.72.41l-22-12.71a1.6,1.6,0,0,1-.72-1.25l0.16-56.51a0.44,0.44,0,0,1,.72-0.41Z" transform="translate(-1091.15 -367.67)"/></g><g class="cls-2"><g class="cls-2"><g class="cls-35"><g class="cls-2"><path class="cls-21" d="M1091.86,450.48l0.56,0.5a2.13,2.13,0,0,1-.42-0.33l-0.32-.31a0.91,0.91,0,0,0,.18.14" transform="translate(-1091.15 -367.67)"/></g></g></g><g class="cls-2"><g class="cls-36"><g class="cls-2"><path class="cls-21" d="M1091.34,449.76l-0.11-.43a2.12,2.12,0,0,1-.07-0.54l0.16,0.74a0.91,0.91,0,0,0,0,.23" transform="translate(-1091.15 -367.67)"/></g></g></g><polygon class="cls-37" points="21.89 95.04 22.45 95.54 1.26 83.31 0.71 82.81 21.89 95.04"/><g class="cls-2"><g class="cls-38"><g class="cls-2"><path class="cls-15" d="M1113.6,462.4l1.28,0.09v0l-1.28-.11h0" transform="translate(-1091.15 -367.67)"/><path class="cls-16" d="M1113.6,462.41l1.28,0.11s0,0.09,0,.13l-1.27-.18s0,0,0-.06" transform="translate(-1091.15 -367.67)"/><path class="cls-17" d="M1113.59,462.47l1.27,0.18a1.28,1.28,0,0,1,0,.13l-1.26-.26v-0.06" transform="translate(-1091.15 -367.67)"/><path class="cls-18" d="M1113.58,462.52l1.26,0.26a1.06,1.06,0,0,1,0,.13l-1.24-.33,0-.06" transform="translate(-1091.15 -367.67)"/><path class="cls-19" d="M1113.57,462.58l1.24,0.33a0.86,0.86,0,0,1-.07.15l-1.2-.42,0-.06" transform="translate(-1091.15 -367.67)"/><path class="cls-21" d="M1113.54,462.65l1.2,0.42a0.77,0.77,0,0,1-1.13.15l-0.56-.5a0.33,0.33,0,0,0,.49-0.06" transform="translate(-1091.15 -367.67)"/></g></g></g><g class="cls-2"><g class="cls-39"><g class="cls-2"><polyline class="cls-10" points="23.72 94.81 26.16 93.4 26.16 93.4 23.72 94.81 23.72 94.81"/><path class="cls-11" d="M1114.87,462.49l2.44-1.42s0,0,0,.06l-2.44,1.42s0,0,0-.06" transform="translate(-1091.15 -367.67)"/><path class="cls-12" d="M1114.87,462.55l2.44-1.42v0.06l-2.44,1.42v-0.06" transform="translate(-1091.15 -367.67)"/><path class="cls-13" d="M1114.87,462.61l2.44-1.42v0.06l-2.44,1.42v-0.06" transform="translate(-1091.15 -367.67)"/><path class="cls-14" d="M1114.86,462.67l2.44-1.42v0.06l-2.44,1.42v-0.06" transform="translate(-1091.15 -367.67)"/><path class="cls-15" d="M1114.85,462.73l2.44-1.42v0.06l-2.44,1.42v-0.06" transform="translate(-1091.15 -367.67)"/><path class="cls-16" d="M1114.84,462.79l2.44-1.42,0,0.06-2.44,1.42,0-.06" transform="translate(-1091.15 -367.67)"/><path class="cls-17" d="M1114.82,462.86l2.44-1.42,0,0.07-2.44,1.42,0-.07" transform="translate(-1091.15 -367.67)"/><path class="cls-18" d="M1114.8,462.92l2.44-1.42,0,0.07-2.44,1.42,0-.07" transform="translate(-1091.15 -367.67)"/><path class="cls-19" d="M1114.77,463l2.44-1.42,0,0.09-2.44,1.42,0-.09" transform="translate(-1091.15 -367.67)"/><path class="cls-21" d="M1114.72,463.08l2.44-1.42a0.65,0.65,0,0,1-.22.21l-2.44,1.42a0.65,0.65,0,0,0,.22-0.21" transform="translate(-1091.15 -367.67)"/></g></g></g><polygon class="cls-40" points="3.65 78.06 6.09 76.64 22.54 86.13 20.1 87.55 3.65 78.06"/><polygon class="cls-41" points="2.38 78.79 3.65 78.06 20.1 87.55 20.25 89.11 2.38 78.79"/><polygon class="cls-42" points="3.73 51.56 6.17 50.14 6.09 76.64 3.65 78.06 3.73 51.56"/><polygon class="cls-43" points="2.46 50.65 3.73 51.56 3.65 78.06 2.38 78.79 2.46 50.65"/><polygon class="cls-42" points="3.76 41.46 6.2 40.05 6.2 40.17 3.76 41.59 3.76 41.46"/><polygon class="cls-43" points="2.48 40.55 3.76 41.46 3.76 41.59 2.48 42.33 2.48 40.55"/><polygon class="cls-42" points="3.77 36.73 6.21 35.31 6.21 35.44 3.77 36.86 3.77 36.73"/><polygon class="cls-43" points="2.5 35.82 3.77 36.73 3.77 36.86 2.49 37.59 2.5 35.82"/><polygon class="cls-37" points="0.16 81.86 0 81.12 0.15 27.09 0.31 27.83 0.16 81.86"/><polygon class="cls-37" points="20.25 89.11 20.1 87.55 20.17 61.05 20.33 60.97 20.25 89.11"/><polygon class="cls-37" points="20.33 60.97 20.17 61.05 3.73 51.56 2.46 50.65 20.33 60.97"/><g class="cls-2"><g class="cls-44"><g class="cls-2"><path class="cls-21" d="M1091.46,395.5l-0.16-.74a0.82,0.82,0,0,1,.49-0.87l-0.12,1.23a0.36,0.36,0,0,0-.21.38" transform="translate(-1091.15 -367.67)"/><path class="cls-19" d="M1091.67,395.13l0.12-1.23,0.15,0-0.21,1.25h-0.07" transform="translate(-1091.15 -367.67)"/><path class="cls-18" d="M1091.74,395.11l0.21-1.25h0.13l-0.28,1.25h-0.06" transform="translate(-1091.15 -367.67)"/><path class="cls-17" d="M1091.8,395.11l0.28-1.25,0.12,0-0.35,1.24h-0.05" transform="translate(-1091.15 -367.67)"/><path class="cls-16" d="M1091.85,395.12l0.35-1.24,0.12,0-0.41,1.22h0" transform="translate(-1091.15 -367.67)"/><path class="cls-15" d="M1091.9,395.14l0.41-1.22,0.11,0-0.48,1.19,0,0" transform="translate(-1091.15 -367.67)"/><path class="cls-14" d="M1091.95,395.15l0.48-1.19,0.12,0.06-0.54,1.16-0.05,0" transform="translate(-1091.15 -367.67)"/><path class="cls-13" d="M1092,395.18l0.54-1.16,0,0-0.56,1.15h0" transform="translate(-1091.15 -367.67)"/></g></g></g><g class="cls-2"><g class="cls-45"><g class="cls-2"><path class="cls-21" d="M1091.67,394l2.44-1.42,0.1,0-2.44,1.42-0.1,0" transform="translate(-1091.15 -367.67)"/><path class="cls-19" d="M1091.78,393.9l2.44-1.42,0.09,0-2.44,1.42-0.09,0" transform="translate(-1091.15 -367.67)"/><path class="cls-18" d="M1091.86,393.88l2.44-1.42h0.07l-2.44,1.42h-0.07" transform="translate(-1091.15 -367.67)"/><path class="cls-17" d="M1091.94,393.87l2.44-1.42h0.07l-2.44,1.42h-0.07" transform="translate(-1091.15 -367.67)"/><path class="cls-16" d="M1092,393.87l2.44-1.42h0.06l-2.44,1.42H1092" transform="translate(-1091.15 -367.67)"/><path class="cls-15" d="M1092.06,393.87l2.44-1.42h0.06l-2.44,1.42h-0.06" transform="translate(-1091.15 -367.67)"/><path class="cls-14" d="M1092.12,393.87l2.44-1.42h0.06l-2.44,1.42h-0.06" transform="translate(-1091.15 -367.67)"/><path class="cls-13" d="M1092.18,393.88l2.44-1.42h0.05l-2.44,1.42h-0.05" transform="translate(-1091.15 -367.67)"/><path class="cls-12" d="M1092.23,393.89l2.44-1.42h0.05l-2.44,1.42h-0.05" transform="translate(-1091.15 -367.67)"/><path class="cls-11" d="M1092.28,393.91l2.44-1.42,0.05,0-2.44,1.42-0.05,0" transform="translate(-1091.15 -367.67)"/><path class="cls-10" d="M1092.33,393.93l2.44-1.42,0.05,0-2.44,1.42-0.05,0" transform="translate(-1091.15 -367.67)"/><path class="cls-9" d="M1092.38,393.94l2.44-1.42,0.05,0-2.44,1.42-0.05,0" transform="translate(-1091.15 -367.67)"/><path class="cls-8" d="M1092.43,394l2.44-1.42,0.05,0-2.44,1.42-0.05,0" transform="translate(-1091.15 -367.67)"/><path class="cls-7" d="M1092.49,394l2.44-1.42,0.05,0-2.44,1.42-0.05,0" transform="translate(-1091.15 -367.67)"/><path class="cls-6" d="M1092.54,394l2.44-1.42,0,0-2.44,1.42,0,0" transform="translate(-1091.15 -367.67)"/></g></g></g><polygon class="cls-40" points="3.76 41.59 6.2 40.17 22.64 49.67 20.2 51.09 3.76 41.59"/><polygon class="cls-41" points="2.48 42.33 3.76 41.59 20.2 51.09 20.36 52.65 2.48 42.33"/><polygon class="cls-37" points="20.36 50.87 20.2 50.96 3.76 41.46 2.48 40.55 20.36 50.87"/><polygon class="cls-37" points="20.36 52.65 20.2 51.09 20.2 50.96 20.36 50.87 20.36 52.65"/><polygon class="cls-40" points="3.77 36.86 6.21 35.44 22.66 44.93 20.21 46.35 3.77 36.86"/><polygon class="cls-41" points="2.49 37.59 3.77 36.86 20.21 46.35 20.37 47.91 2.49 37.59"/><polygon class="cls-37" points="20.38 46.14 20.22 46.22 3.77 36.73 2.5 35.82 20.38 46.14"/><polygon class="cls-37" points="20.37 47.91 20.21 46.35 20.22 46.22 20.38 46.14 20.37 47.91"/><g class="cls-2"><g class="cls-46"><g class="cls-2"><path class="cls-14" d="M1116.62,405.18l0.32,0.31,0,0-0.26-.25-0.11-.11" transform="translate(-1091.15 -367.67)"/><path class="cls-13" d="M1116.73,405.29l0.26,0.25a1.33,1.33,0,0,1,.22.34l0,0.19a3,3,0,0,0-.51-0.78" transform="translate(-1091.15 -367.67)"/><path class="cls-14" d="M1117.24,406.06l0-.19,0.05,0.13,0.09,0.35a2.87,2.87,0,0,0-.12-0.3" transform="translate(-1091.15 -367.67)"/><path class="cls-15" d="M1117.35,406.36l-0.09-.35,0,0.06,0.11,0.43,0-.14" transform="translate(-1091.15 -367.67)"/></g></g></g><polygon class="cls-42" points="23.88 40.79 26.32 39.37 26.16 93.4 23.72 94.81 23.88 40.79"/><polygon class="cls-43" points="22.6 40.7 23.88 40.79 23.72 94.81 22.45 94.73 22.6 40.7"/><polygon class="cls-40" points="1.43 26.37 3.87 24.95 25.05 37.18 22.61 38.6 1.43 26.37"/><polygon class="cls-41" points="0.86 27.52 1.43 26.37 22.61 38.6 22.05 39.75 0.86 27.52"/><path class="cls-47" d="M1113.2,407.42a1.22,1.22,0,0,1,.55,1l-0.15,54a0.34,0.34,0,0,1-.55.32l-21.19-12.23a1.22,1.22,0,0,1-.55-1l0.15-54a0.34,0.34,0,0,1,.55-0.32Zm-1.8,49.36,0.08-28.14-17.88-10.32-0.08,28.14,17.88,10.32m0.1-36.46v-1.78l-17.88-10.32V410l17.88,10.32m0-4.73v-1.78l-17.88-10.32v1.78l17.88,10.32" transform="translate(-1091.15 -367.67)"/><g class="cls-2"><g class="cls-48"><g class="cls-2"><path class="cls-13" d="M1113.2,407.42l0.56-1.15,0.09,0.05-0.61,1.12,0,0" transform="translate(-1091.15 -367.67)"/><path class="cls-12" d="M1113.24,407.44l0.61-1.12,0.13,0.09-0.68,1.07-0.06,0" transform="translate(-1091.15 -367.67)"/><path class="cls-11" d="M1113.29,407.48l0.68-1.07,0.14,0.12-0.77,1-0.06-.05" transform="translate(-1091.15 -367.67)"/><path class="cls-10" d="M1113.36,407.54l0.77-1,0.18,0.18-0.87.9-0.08-.08" transform="translate(-1091.15 -367.67)"/><path class="cls-9" d="M1113.43,407.61l0.87-.9a3,3,0,0,1,.49.75l-1.14.47a1.33,1.33,0,0,0-.21-0.33" transform="translate(-1091.15 -367.67)"/><path class="cls-10" d="M1113.65,407.94l1.14-.47c0,0.08.07,0.16,0.1,0.24l-1.2.33,0-.11" transform="translate(-1091.15 -367.67)"/><path class="cls-11" d="M1113.69,408l1.2-.33,0.06,0.19-1.23.23,0-.08" transform="translate(-1091.15 -367.67)"/><path class="cls-12" d="M1113.71,408.13l1.23-.23,0,0.16-1.25.14,0-.07" transform="translate(-1091.15 -367.67)"/><path class="cls-13" d="M1113.73,408.2l1.25-.14q0,0.08,0,.15l-1.27.05V408.2" transform="translate(-1091.15 -367.67)"/><path class="cls-14" d="M1113.74,408.27l1.27-.05s0,0.09,0,.14l-1.27,0v-0.06" transform="translate(-1091.15 -367.67)"/><path class="cls-15" d="M1113.75,408.33l1.27,0s0,0.07,0,.1l-1.28-.09s0,0,0,0" transform="translate(-1091.15 -367.67)"/></g></g></g><g class="cls-2"><g class="cls-49"><g class="cls-2"><polyline class="cls-6" points="22.61 38.6 25.05 37.18 25.06 37.19 22.62 38.61 22.61 38.6"/><path class="cls-5" d="M1113.77,406.28l2.44-1.42,0.05,0-2.44,1.42-0.05,0" transform="translate(-1091.15 -367.67)"/><path class="cls-4" d="M1113.83,406.31l2.44-1.42,0.05,0-2.44,1.42-0.05,0" transform="translate(-1091.15 -367.67)"/><path class="cls-24" d="M1113.88,406.35l2.44-1.42,0.06,0-2.44,1.42-0.06,0" transform="translate(-1091.15 -367.67)"/><path class="cls-25" d="M1113.94,406.39l2.44-1.42,0.06,0-2.44,1.42-0.06,0" transform="translate(-1091.15 -367.67)"/><path class="cls-26" d="M1114,406.43l2.44-1.42,0.06,0-2.44,1.42-0.06,0" transform="translate(-1091.15 -367.67)"/><path class="cls-27" d="M1114,406.47l2.44-1.42,0.06,0-2.44,1.42-0.06,0" transform="translate(-1091.15 -367.67)"/><path class="cls-28" d="M1114.1,406.52l2.44-1.42,0.06,0.05-2.44,1.42-0.06-.05" transform="translate(-1091.15 -367.67)"/><path class="cls-29" d="M1114.16,406.58l2.44-1.42,0.05,0.05-2.44,1.42-0.05-.05" transform="translate(-1091.15 -367.67)"/><path class="cls-30" d="M1114.21,406.63l2.44-1.42,0.05,0.05-2.44,1.42-0.05-.05" transform="translate(-1091.15 -367.67)"/><path class="cls-31" d="M1114.27,406.68l2.44-1.42,0,0.05-2.44,1.42,0-.05" transform="translate(-1091.15 -367.67)"/><path class="cls-32" d="M1114.32,406.74l2.44-1.42,0,0.06-2.44,1.42,0-.06" transform="translate(-1091.15 -367.67)"/><path class="cls-33" d="M1114.36,406.8l2.44-1.42,0,0.06-2.44,1.42,0-.06" transform="translate(-1091.15 -367.67)"/><path class="cls-50" d="M1114.41,406.86l2.44-1.42,0.06,0.07-2.44,1.42-0.06-.07" transform="translate(-1091.15 -367.67)"/><path class="cls-51" d="M1114.47,406.93l2.44-1.42,0.08,0.11-2.44,1.42-0.08-.11" transform="translate(-1091.15 -367.67)"/><path class="cls-52" d="M1114.55,407l2.44-1.42,0.09,0.15-2.44,1.42-0.09-.15" transform="translate(-1091.15 -367.67)"/><path class="cls-51" d="M1114.64,407.19l2.44-1.42,0.06,0.11-2.44,1.42-0.06-.11" transform="translate(-1091.15 -367.67)"/><path class="cls-50" d="M1114.71,407.31l2.44-1.42,0,0.08-2.44,1.42,0-.08" transform="translate(-1091.15 -367.67)"/><path class="cls-33" d="M1114.75,407.38l2.44-1.42,0,0.07-2.44,1.42,0-.07" transform="translate(-1091.15 -367.67)"/><path class="cls-32" d="M1114.78,407.45l2.44-1.42,0,0.06-2.44,1.42,0-.06" transform="translate(-1091.15 -367.67)"/><path class="cls-31" d="M1114.81,407.51l2.44-1.42,0,0.06-2.44,1.42,0-.06" transform="translate(-1091.15 -367.67)"/><path class="cls-30" d="M1114.83,407.57l2.44-1.42,0,0.06-2.44,1.42,0-.06" transform="translate(-1091.15 -367.67)"/><path class="cls-29" d="M1114.86,407.63l2.44-1.42,0,0.06-2.44,1.42,0-.06" transform="translate(-1091.15 -367.67)"/><path class="cls-28" d="M1114.88,407.69l2.44-1.42,0,0.06-2.44,1.42,0-.06" transform="translate(-1091.15 -367.67)"/><path class="cls-27" d="M1114.9,407.76l2.44-1.42,0,0.07-2.44,1.42,0-.07" transform="translate(-1091.15 -367.67)"/><path class="cls-26" d="M1114.92,407.82l2.44-1.42,0,0.07-2.44,1.42,0-.07" transform="translate(-1091.15 -367.67)"/><path class="cls-25" d="M1114.94,407.89l2.44-1.42,0,0.07L1115,408l0-.07" transform="translate(-1091.15 -367.67)"/><path class="cls-24" d="M1115,408l2.44-1.42,0,0.07L1115,408l0-.07" transform="translate(-1091.15 -367.67)"/><path class="cls-4" d="M1115,408l2.44-1.42v0.07l-2.44,1.42V408" transform="translate(-1091.15 -367.67)"/><path class="cls-5" d="M1115,408.09l2.44-1.42v0.06l-2.44,1.42v-0.06" transform="translate(-1091.15 -367.67)"/><path class="cls-6" d="M1115,408.16l2.44-1.42v0.06l-2.44,1.42v-0.06" transform="translate(-1091.15 -367.67)"/><path class="cls-7" d="M1115,408.22l2.44-1.42v0.06l-2.44,1.42v-0.06" transform="translate(-1091.15 -367.67)"/><path class="cls-8" d="M1115,408.28l2.44-1.42v0.06l-2.44,1.42v-0.06" transform="translate(-1091.15 -367.67)"/><path class="cls-9" d="M1115,408.34l2.44-1.42V407l-2.44,1.42v-0.06" transform="translate(-1091.15 -367.67)"/><path class="cls-10" d="M1115,408.41l2.44-1.42s0,0,0,.05l-2.44,1.42s0,0,0-.05" transform="translate(-1091.15 -367.67)"/></g></g></g></g></svg>