<svg id="图层_1" data-name="图层 1" xmlns="http://www.w3.org/2000/svg" xmlns:xlink="http://www.w3.org/1999/xlink" viewBox="0 0 75.17 65.69"><defs><style>.cls-1{fill:none;}.cls-2{isolation:isolate;}.cls-3{clip-path:url(#clip-path);}.cls-4{fill:#4c7f85;}.cls-5{fill:#4f848a;}.cls-6{fill:#52898f;}.cls-7{clip-path:url(#clip-path-2);}.cls-8{clip-path:url(#clip-path-3);}.cls-9{clip-path:url(#clip-path-4);}.cls-10{fill:#558e94;}.cls-11{clip-path:url(#clip-path-5);}.cls-12{fill:#8ff0f9;}</style><clipPath id="clip-path" transform="translate(-1067.03 -167.53)"><path class="cls-1" d="M1070.51,178.43l5.86-3.41c2.17-1.26,5.18-1.08,8.5.83l0.29,0.19-5.86,3.41-0.29-.19C1075.69,177.35,1072.69,177.17,1070.51,178.43Z"/></clipPath><clipPath id="clip-path-2" transform="translate(-1067.03 -167.53)"><path class="cls-1" d="M1116,225.26l-5.86,3.41a9,9,0,0,0,3.66-4.22l5.86-3.41A9,9,0,0,1,1116,225.26Z"/></clipPath><clipPath id="clip-path-3" transform="translate(-1067.03 -167.53)"><path class="cls-1" d="M1083.92,172.07l5.86-3.41c3.06-1.78,7.3-1.53,12,1.17l-5.86,3.41C1091.22,170.54,1087,170.29,1083.92,172.07Z"/></clipPath><clipPath id="clip-path-4" transform="translate(-1067.03 -167.53)"><path class="cls-1" d="M1095.9,173.25l5.86-3.41c7.31,4.22,13.51,13.14,15.82,22l-5.86,3.41C1109.41,186.39,1103.21,177.46,1095.9,173.25Z"/></clipPath><clipPath id="clip-path-5" transform="translate(-1067.03 -167.53)"><path class="cls-1" d="M1137.83,228.8L1132,232.2c2.69-1.56,4.36-4.89,4.37-9.61,0-9.51-6.66-21.09-14.94-25.87-3.68-2.13-7.06-2.54-9.68-1.52l5.86-3.41c2.62-1,6-.61,9.68,1.52,8.28,4.78,15,16.36,14.94,25.87C1142.19,223.91,1140.52,227.24,1137.83,228.8Z"/></clipPath></defs><title>VN</title><g class="cls-2"><g class="cls-2"><g class="cls-3"><g class="cls-2"><path class="cls-4" d="M1070.51,178.43l5.86-3.41a6.21,6.21,0,0,1,3.29-.8l-5.86,3.41a6.21,6.21,0,0,0-3.29.8" transform="translate(-1067.03 -167.53)"/><path class="cls-5" d="M1073.81,177.63l5.86-3.41a9.49,9.49,0,0,1,3.13.65l-5.86,3.41a9.49,9.49,0,0,0-3.13-.65" transform="translate(-1067.03 -167.53)"/><path class="cls-6" d="M1076.94,178.27l5.86-3.41a14.06,14.06,0,0,1,2.07,1l0.29,0.19-5.86,3.41-0.29-.19a14.06,14.06,0,0,0-2.07-1" transform="translate(-1067.03 -167.53)"/></g></g></g><g class="cls-2"><g class="cls-7"><g class="cls-2"><path class="cls-4" d="M1113.76,224.44l5.86-3.41a9,9,0,0,1-3.66,4.22l-5.86,3.41a9,9,0,0,0,3.66-4.22" transform="translate(-1067.03 -167.53)"/></g></g></g><g class="cls-2"><g class="cls-8"><g class="cls-2"><path class="cls-4" d="M1083.92,172.07l5.86-3.41a8.77,8.77,0,0,1,4.65-1.13l-5.86,3.41a8.77,8.77,0,0,0-4.65,1.13" transform="translate(-1067.03 -167.53)"/><path class="cls-5" d="M1088.57,170.94l5.86-3.41a13.37,13.37,0,0,1,4.42.91l-5.86,3.41a13.37,13.37,0,0,0-4.42-.91" transform="translate(-1067.03 -167.53)"/><path class="cls-6" d="M1093,171.85l5.86-3.41a19.82,19.82,0,0,1,2.92,1.39l-5.86,3.41a19.82,19.82,0,0,0-2.92-1.39" transform="translate(-1067.03 -167.53)"/></g></g></g><g class="cls-2"><g class="cls-9"><g class="cls-2"><path class="cls-6" d="M1095.9,173.25l5.86-3.41q1,0.59,2,1.3l-5.86,3.41q-1-.71-2-1.3" transform="translate(-1067.03 -167.53)"/><path class="cls-10" d="M1097.91,174.54l5.86-3.41a38,38,0,0,1,12.45,16.54l-5.86,3.41a38,38,0,0,0-12.45-16.54" transform="translate(-1067.03 -167.53)"/><path class="cls-6" d="M1110.37,191.09l5.86-3.41a36.07,36.07,0,0,1,1.36,4.12l-5.86,3.41a36.07,36.07,0,0,0-1.36-4.12" transform="translate(-1067.03 -167.53)"/></g></g></g><g class="cls-2"><g class="cls-11"><g class="cls-2"><path class="cls-4" d="M1111.72,195.21l5.86-3.41a8.15,8.15,0,0,1,3.16-.53l-5.86,3.41a8.15,8.15,0,0,0-3.16.53" transform="translate(-1067.03 -167.53)"/><path class="cls-5" d="M1114.89,194.67l5.86-3.41a11.91,11.91,0,0,1,3.93.81l-5.86,3.41a11.91,11.91,0,0,0-3.93-.81" transform="translate(-1067.03 -167.53)"/><path class="cls-6" d="M1118.81,195.49l5.86-3.41a17.61,17.61,0,0,1,2.59,1.24q0.92,0.53,1.8,1.16l-5.86,3.41q-0.89-.63-1.8-1.16a17.61,17.61,0,0,0-2.59-1.24" transform="translate(-1067.03 -167.53)"/><path class="cls-10" d="M1123.21,197.89l5.86-3.41a33.84,33.84,0,0,1,11.06,14.7l-5.86,3.41a33.84,33.84,0,0,0-11.06-14.7" transform="translate(-1067.03 -167.53)"/><path class="cls-6" d="M1134.27,212.59l5.86-3.41a30.82,30.82,0,0,1,1.64,5.55l-5.86,3.41a30.82,30.82,0,0,0-1.64-5.55" transform="translate(-1067.03 -167.53)"/><path class="cls-5" d="M1135.91,218.14l5.86-3.41a23.45,23.45,0,0,1,.44,4.45q0,0.29,0,.57l-5.86,3.41q0-.28,0-0.57a23.45,23.45,0,0,0-.44-4.45" transform="translate(-1067.03 -167.53)"/><path class="cls-4" d="M1136.33,223.17l5.86-3.41c-0.14,4.42-1.78,7.54-4.36,9L1132,232.2c2.58-1.5,4.22-4.62,4.36-9" transform="translate(-1067.03 -167.53)"/></g></g></g><path class="cls-12" d="M1095.9,173.25c7.31,4.22,13.51,13.14,15.82,22,2.62-1,6-.61,9.68,1.52,8.28,4.78,15,16.36,14.94,25.87s-6.76,13.35-15,8.57a27.55,27.55,0,0,1-7.55-6.72c-2.53,5.63-8.59,7.12-15.64,3-6.56-3.79-12.22-11.37-15-19.26a11.83,11.83,0,0,1-4.19-1.53c-6.59-3.81-11.92-13-11.9-20.61s5.38-10.63,12-6.82l0.29,0.19C1080.8,171.33,1087.67,168.49,1095.9,173.25Z" transform="translate(-1067.03 -167.53)"/></g></svg>