<?xml version="1.0" standalone="no"?>
<!DOCTYPE svg PUBLIC "-//W3C//DTD SVG 1.1//EN" "http://www.w3.org/Graphics/SVG/1.1/DTD/svg11.dtd" >
<!--
2013-9-30: Created.
-->
<svg>
<metadata>
Created by iconfont
</metadata>
<defs>

<font id="iconfont" horiz-adv-x="1024" >
  <font-face
    font-family="iconfont"
    font-weight="500"
    font-stretch="normal"
    units-per-em="1024"
    ascent="896"
    descent="-128"
  />
    <missing-glyph />
    
    <glyph glyph-name="x" unicode="x" horiz-adv-x="1001"
d="M281 543q-27 -1 -53 -1h-83q-18 0 -36.5 -6t-32.5 -18.5t-23 -32t-9 -45.5v-76h912v41q0 16 -0.5 30t-0.5 18q0 13 -5 29t-17 29.5t-31.5 22.5t-49.5 9h-133v-97h-438v97zM955 310v-52q0 -23 0.5 -52t0.5 -58t-10.5 -47.5t-26 -30t-33 -16t-31.5 -4.5q-14 -1 -29.5 -0.5
t-29.5 0.5h-32l-45 128h-439l-44 -128h-29h-34q-20 0 -45 1q-25 0 -41 9.5t-25.5 23t-13.5 29.5t-4 30v167h911zM163 247q-12 0 -21 -8.5t-9 -21.5t9 -21.5t21 -8.5q13 0 22 8.5t9 21.5t-9 21.5t-22 8.5zM316 123q-8 -26 -14 -48q-5 -19 -10.5 -37t-7.5 -25t-3 -15t1 -14.5
t9.5 -10.5t21.5 -4h37h67h81h80h64h36q23 0 34 12t2 38q-5 13 -9.5 30.5t-9.5 34.5q-5 19 -11 39h-368zM336 498v228q0 11 2.5 23t10 21.5t20.5 15.5t34 6h188q31 0 51.5 -14.5t20.5 -52.5v-227h-327z" />
    

    
    <glyph glyph-name="riqi" unicode="&#58930;" d="M771.104 750.944l0 60.096c0 17.664-14.304 32-32 32s-32-14.336-32-32l0-60.096-384 0 0 60.096c0 17.664-14.336 32-32 32s-32-14.336-32-32l0-60.096-202.208 0 0-825.952 910.208 0 0 825.952L771.104 750.944zM259.104 686.048l0-67.04c0-17.664 14.336-32 32-32s32 14.336 32 32l0 67.04 384 0 0-67.04c0-17.664 14.304-32 32-32s32 14.336 32 32l0 67.04 131.136 0 0-99.04-163.136 0-448 0-169.344 0 0 99.04L259.104 686.048zM121.76-10.176l0 533.184 780.48 0 0-533.184L121.76-10.176zM214.208 422.272l123.904 0 0-123.712-123.904 0 0 123.712ZM442.912 422.272l123.904 0 0-123.712-123.904 0 0 123.712ZM671.648 422.272l123.904 0 0-123.712-123.904 0 0 123.712ZM214.208 203.68l123.904 0 0-123.712-123.904 0 0 123.712ZM442.912 203.68l123.904 0 0-123.712-123.904 0 0 123.712ZM671.648 203.68l123.904 0 0-123.712-123.904 0 0 123.712Z"  horiz-adv-x="1024" />

    
    <glyph glyph-name="xiazai5" unicode="&#58954;" d="M993.924741-44.790519l-172.86637 172.86637C888.452741 207.435852 929.185185 310.139259 929.185185 422.418963c0 251.354074-203.757037 455.111111-455.111111 455.111111s-455.111111-203.757037-455.111111-455.111111 203.757037-455.111111 455.111111-455.111111c111.767704 0 214.072889 40.353185 293.281185 107.216593l172.942222-172.942222c14.810074-14.810074 38.817185-14.810074 53.627259 0C1008.734815-83.607704 1008.734815-59.600593 993.924741-44.790519zM474.074074 43.159704c-209.464889 0-379.259259 169.79437-379.259259 379.259259s169.79437 379.259259 379.259259 379.259259 379.259259-169.79437 379.259259-379.259259S683.538963 43.159704 474.074074 43.159704z"  horiz-adv-x="1024" />

    
    <glyph glyph-name="shangchuan" unicode="&#58993;" d="M511.741935 475.354838 511.741935 475.354838 512 475.354838 512.516129 475.354838 511.741935 475.354838ZM495.483871 468.129032 306.32258 279.483871C297.032258 270.451613 297.032258 255.483872 306.32258 245.935482 315.354838 236.903226 330.580645 236.903226 339.870968 245.935482L488.258065 394.32258 488.258065 75.133638C488.258065 62.230413 498.83871 51.133638 512 51.133638 525.16129 51.133638 535.741935 62.230413 535.741935 75.133638L535.741935 394.32258 684.387098 245.935482C693.677421 236.903226 708.645158 236.903226 718.193549 245.935482 726.967744 255.483872 726.967744 270.451613 718.193549 279.483871L528.516129 468.129032 527.483871 469.16129 526.451613 470.193548C525.16129 471.483871 524.129032 472 523.612903 472.774193L522.32258 472.774193C520.774193 474.064516 519.741935 474.32258 518.451613 474.32258L516.129032 474.83871 514.32258 475.354838 512.516129 475.354838 509.935484 475.354838 507.870968 474.83871 505.806452 474.32258C504.516129 474.32258 503.225807 474.064516 502.193548 473.290323L500.903226 472.774193C499.870968 472 498.83871 471.483871 498.32258 470.967742L496.516129 469.67742 495.483871 468.129032ZM820.387098 129.548384C854.709677 129.806451 886.451616 143.741933 908.387098 166.193549 931.096774 189.419354 945.032256 220.387098 945.032256 255.483872 945.032256 286.451613 934.451616 314.32258 916.12903 336.774193 897.548384 358.709677 871.225805 374.193548 841.032256 379.354838 821.677421 383.225807 808 399.483871 808 418.32258L808 418.580645C808 493.16129 777.806451 561.290323 728.774195 610.064516 679.741933 659.096774 611.870968 689.548387 537.548387 689.548387 482.064516 689.548387 430.709677 673.032258 388.129032 645.419355 344 615.741935 309.16129 574.709677 288 525.419355 281.806452 510.709677 267.870968 501.67742 252.645162 501.16129 204.129032 498.580645 161.032258 477.16129 129.290323 443.354838 97.806452 410.580645 78.967742 365.419355 78.967742 315.870968 78.967742 264.258065 99.612903 217.548384 133.16129 184L133.67742 184C167.225807 150.193549 213.67742 129.548384 264.774193 129.548384L281.290323 129.548384 282.32258 129.548384 382.967742 129.548384 394.83871 129.548384C416.774193 129.548384 434.580645 111.483872 434.580645 90.064518 434.580645 68.645158 416.774193 50.580646 394.83871 50.580646L382.967742 50.580646 282.32258 50.580646 281.290323 50.580646 264.774193 50.580646C191.741935 50.580646 125.419355 80 77.419355 128.774195 29.677419 176.516128 0 242.838707 0 315.870968 0 385.806452 27.354839 450.32258 72.258065 497.806452 112 539.354838 165.67742 568.258065 225.548387 577.806452 253.419355 632 294.709677 677.16129 345.032258 710.193548 400.258065 746.83871 466.32258 768 537.548387 768 633.548387 768 721.032256 729.032258 784.516128 665.806452 841.032256 609.032258 878.451616 533.16129 885.935482 449.032258 921.032256 437.419355 952.258067 414.967742 975.741933 387.096774 1005.935482 351.483871 1024 305.290323 1024 255.483872 1024 198.709677 1001.032256 147.612902 964.12903 110.451616L963.87097 110.451616C931.612902 77.935482 888.258067 56.774195 840 51.354842 837.161293 51.096774 834.064518 50.580646 830.967744 50.580646L820.645158 50.580646 819.354842 50.580646 644.12903 50.580646 642.580646 50.580646C620.903226 50.580646 603.354838 68.645158 603.354838 90.064518 603.354838 111.483872 620.903226 129.548384 642.580646 129.548384L644.12903 129.548384 820.387098 129.548384Z"  horiz-adv-x="1024" />

    
    <glyph glyph-name="quanping1" unicode="&#58976;" d="M119.579981 776.439974l185.746448 0c16.074094 0 29.283953 13.134135 29.283953 29.322839 0 16.303314-13.113669 29.321816-29.283953 29.321816l-215.107149 0c-8.037047 0-15.34857-3.282766-20.655436-8.590656-5.383614-5.307889-8.629541-12.619412-8.629541-20.694321L60.934303 590.693526c0-16.074094 13.134135-29.283953 29.321816-29.283953 16.303314 0 29.322839 13.114692 29.322839 29.283953L119.578957 776.439974zM901.51076 776.439974 715.764312 776.439974c-16.093537 0-29.283953 13.134135-29.283953 29.322839 0 16.303314 13.114692 29.321816 29.283953 29.321816l215.107149 0c8.037047 0 15.34857-3.282766 20.655436-8.590656 5.384637-5.307889 8.629541-12.619412 8.629541-20.694321L960.156438 590.693526c0-16.074094-13.134135-29.283953-29.321816-29.283953-16.303314 0-29.322839 13.114692-29.322839 29.283953L901.511783 776.439974zM119.579981-5.489782l185.746448 0c16.074094 0 29.283953-13.133112 29.283953-29.321816 0-16.303314-13.113669-29.321816-29.283953-29.321816l-215.107149 0c-8.037047 0-15.34857 3.28379-20.655436 8.590656-5.383614 5.306866-8.629541 12.619412-8.629541 20.694321L60.934303 180.255643c0 16.075117 13.134135 29.286 29.321816 29.286 16.303314 0 29.322839-13.114692 29.322839-29.286L119.578957-5.489782zM901.51076-5.489782 715.764312-5.489782c-16.093537 0-29.283953-13.133112-29.283953-29.321816 0-16.303314 13.114692-29.321816 29.283953-29.321816l215.107149 0c8.037047 0 15.34857 3.28379 20.655436 8.590656 5.384637 5.306866 8.629541 12.619412 8.629541 20.694321L960.156438 180.255643c0 16.075117-13.134135 29.286-29.321816 29.286-16.303314 0-29.322839-13.114692-29.322839-29.286L901.511783-5.489782z"  horiz-adv-x="1024" />

    
    <glyph glyph-name="suoxiao" unicode="&#58977;" d="M745.12399 150.895965l185.747471 0c16.093537 0 29.283953 13.135158 29.283953 29.321816 0 16.303314-13.114692 29.323862-29.283953 29.323862L715.764312 209.541643c-8.037047 0-15.34857-3.28379-20.656459-8.591679-5.383614-5.306866-8.628518-12.617365-8.628518-20.694321l0-215.106126c0-16.07307 13.134135-29.283953 29.321816-29.283953 16.303314 0 29.321816 13.114692 29.321816 29.283953L745.122967 150.895965zM275.966751 150.895965l-185.747471 0c-16.093537 0-29.283953 13.135158-29.283953 29.321816 0 16.303314 13.114692 29.323862 29.283953 29.323862l215.107149 0c8.037047 0 15.34857-3.28379 20.656459-8.591679 5.383614-5.306866 8.628518-12.617365 8.628518-20.694321l0-215.106126c0-16.07307-13.133112-29.283953-29.321816-29.283953-16.303314 0-29.321816 13.114692-29.321816 29.283953L275.967774 150.895965zM745.12399 620.054227l185.747471 0c16.093537 0 29.283953-13.134135 29.283953-29.322839 0-16.303314-13.114692-29.321816-29.283953-29.321816L715.764312 561.409572c-8.037047 0-15.34857 3.282766-20.656459 8.590656-5.383614 5.306866-8.628518 12.618389-8.628518 20.693298L686.479335 805.800675c0 16.074094 13.134135 29.283953 29.321816 29.283953 16.303314 0 29.321816-13.114692 29.321816-29.283953L745.122967 620.054227zM275.966751 620.054227l-185.747471 0c-16.093537 0-29.283953-13.134135-29.283953-29.322839 0-16.303314 13.114692-29.321816 29.283953-29.321816l215.107149 0c8.037047 0 15.34857 3.282766 20.656459 8.590656 5.383614 5.306866 8.628518 12.618389 8.628518 20.693298L334.611405 805.800675c0 16.074094-13.133112 29.283953-29.321816 29.283953-16.303314 0-29.321816-13.114692-29.321816-29.283953L275.967774 620.054227z"  horiz-adv-x="1024" />

    
    <glyph glyph-name="icon_logout" unicode="&#58953;" d="M737.024 685.792c-3.712-0.192-4.672-0.128-8.352-0.672-6.912-1.056-13.632-3.2-19.84-6.4-6.208-3.2-11.872-7.424-16.736-12.448-3.872-4-7.232-8.544-9.952-13.408-8.16-14.752-10.208-32.48-5.568-48.672 2.304-8.064 6.208-15.648 11.424-22.208 2.336-2.912 3.040-3.52 5.632-6.208l3.104-2.816c13.856-11.712 26.688-24.512 38.176-38.56 27.968-34.176 47.904-74.624 57.792-117.664 8-34.944 9.376-71.36 4.16-106.816-5.408-36.768-17.92-72.416-36.8-104.416-14.656-24.8-33.056-47.296-54.368-66.656-20.704-18.784-44.096-34.592-69.344-46.688-27.392-13.12-56.864-21.824-87.008-25.696-34.368-4.448-69.504-2.656-103.232 5.248-35.2 8.224-68.768 23.104-98.432 43.712-31.968 22.24-59.296 51.040-79.968 84.032-21.248 33.888-35.232 72.192-40.832 111.808-6.176 43.488-2.272 88.256 11.296 130.016 10.496 32.32 26.752 62.72 47.872 89.376 9.792 12.384 20.672 23.808 32.288 34.496 3.936 3.52 7.936 6.912 11.84 10.432 2.592 2.688 3.296 3.296 5.6 6.208 5.216 6.592 9.088 14.176 11.392 22.24 2.272 8.064 2.976 16.576 1.984 24.896-0.8 6.944-2.752 13.728-5.76 20.032-2.976 6.304-7.008 12.128-11.872 17.12-11.744 12.096-28.128 19.168-44.992 19.424-5.568 0.096-11.168-0.576-16.576-1.92-6.784-1.728-13.248-4.544-19.136-8.32-5.216-3.392-9.856-7.616-14.496-11.744-6.624-5.856-13.088-11.936-19.328-18.208-25.568-25.664-47.776-54.72-65.824-86.144-30.848-53.76-49.376-114.336-53.984-176.128-4.64-61.888 4.672-124.64 27.264-182.432 15.84-40.512 38.112-78.432 65.664-112.064 26.56-32.448 57.984-60.896 92.992-83.968 39.392-25.952 83.2-45.056 128.992-56.352 53.376-13.152 109.248-15.648 163.584-7.296 50.4 7.744 99.264 24.832 143.456 50.24 41.216 23.712 78.368 54.528 109.248 90.656 25.536 29.856 46.784 63.328 62.912 99.136 31.52 70.080 43.072 148.608 33.248 224.768-5.856 45.312-19.232 89.6-39.488 130.56-16.768 33.888-38.176 65.472-63.456 93.6-10.112 11.264-20.864 21.888-32.096 32.064-3.296 2.912-6.656 5.824-10.016 8.672-2.912 2.336-3.584 2.976-6.72 4.992-5.888 3.776-12.384 6.592-19.136 8.288-4.128 1.024-8.224 1.472-12.416 1.824-1.408 0.032-2.784 0.032-4.192 0.064M576.032 320c0-16.96-6.752-33.248-18.752-45.248s-28.288-18.752-45.248-18.752c-16.992 0-33.248 6.752-45.248 18.752-12 12-18.752 28.288-18.752 45.248v448c0 16.992 6.752 33.248 18.752 45.28 12 12 28.256 18.72 45.248 18.72 16.96 0 33.248-6.72 45.248-18.72 12-12.032 18.752-28.288 18.752-45.28v-448z"  horiz-adv-x="1024" />

    
    <glyph glyph-name="tianjia" unicode="&#58941;" d="M938.516167 298.817166 85.483833 298.817166C38.527925 298.817166 0 336.743092 0 384.300999c0 46.955908 37.925926 85.483833 85.483833 85.483833l853.032334 0c46.955908 0 85.483833-37.925926 85.483833-85.483833C1024 336.743092 986.074074 298.817166 938.516167 298.817166L938.516167 298.817166 938.516167 298.817166zM512.300999-128c-46.955908 0-85.483833 37.925926-85.483833 85.483833L426.817166 810.516167C426.817166 858.074074 464.743092 896 512.300999 896c46.955908 0 85.483833-37.925926 85.483833-85.483833l0-853.634333C597.182834-89.472075 559.256908-128 512.300999-128L512.300999-128 512.300999-128zM512.300999-128"  horiz-adv-x="1024" />

    
    <glyph glyph-name="shaixuan" unicode="&#58962;" d="M8.533333 806.4l371.2-448v-311.466667c0-12.8 8.533333-21.333333 17.066667-29.866666l209.066667-102.4c4.266667-4.266667 8.533333-4.266667 12.8-4.266667 4.266667 0 12.8 0 17.066666 4.266667 8.533333 4.266667 12.8 17.066667 12.8 25.6V354.133333l371.2 448c8.533333 8.533333 8.533333 21.333333 4.266667 34.133334-4.266667 12.8-17.066667 17.066667-29.866667 17.066666h-960c-12.8 0-21.333333-8.533333-29.866666-17.066666-4.266667-8.533333-4.266667-21.333333 4.266666-29.866667z m89.6-12.8h832l-337.066666-405.333333c-4.266667-4.266667-8.533333-12.8-8.533334-21.333334v-375.466666l-145.066666 72.533333v302.933333c0 8.533333-4.266667 12.8-8.533334 21.333334l-332.8 405.333333z"  horiz-adv-x="1026" />

    
    <glyph glyph-name="yanzhonggaojing" unicode="&#58931;" d="M435.205 640.01c-6.003-2.861-11.799-6.004-17.375-9.525-7.532-4.659-9.794-14.466-5.16-21.949a15.921 15.921 0 0 1 13.524-7.52c2.897 0 5.796 0.758 8.413 2.36a144.277 144.277 0 0 0 14.355 7.85c7.948 3.79 11.286 13.303 7.483 21.252-3.791 7.948-13.28 11.409-21.24 7.532zM876.832 130.556c-14.99 5.918-78.966 36.462-78.966 127.729V500.028c0 117.557-95.865 226.016-215.183 258.371v1.993c0 39.557-32.195 71.74-71.728 71.74-0.123 0-0.269-0.012-0.392-0.012-0.147 0-0.256 0.012-0.416 0.012-39.532 0-71.728-32.183-71.728-71.74v-1.993c-119.3-32.354-215.189-140.813-215.189-258.371v-241.743c0-91.268-63.981-121.812-78.985-127.729-10.913-5.551-18.415-16.825-18.415-29.934 0-18.561 15.028-33.675 33.632-33.675h702.182c18.623 0 33.639 15.114 33.639 33.675-0.011 13.108-7.518 24.383-18.451 29.934z m-346.508 0.172H245.511c23.526 30.422 41.47 72.203 41.47 127.57V463.405c0.263-0.073 0.525-0.122 0.789-0.207v36.817c0 105.048 108.221 204.361 222.795 204.606 114.536-0.245 222.764-99.558 222.764-204.606v-36.817c0.269 0.085 0.538 0.134 0.795 0.207v-205.12c0-55.367 17.938-97.136 41.464-127.558H530.324v0.001zM392.249 589.828c-7.104 5.283-17.07 3.815-22.364-3.167-22.97-30.582-35.075-66.922-35.075-105.22v-159.425c0-8.791 7.11-15.944 15.939-15.944 8.816 0 15.92 7.153 15.92 15.944V481.441c0 31.352 9.953 61.09 28.686 86.059 5.332 7.08 3.901 17.058-3.106 22.328zM615.221 51.051H569.6c-2.006-0.183-3.79-0.904-5.308-2.03-0.194 0.368-0.439 0.661-0.647 1.003-3.045-1.124-5.588-3.252-6.407-6.529-3.583-22.181-22.39-39.397-45.413-40.18-23.025 0.782-41.832 17.999-45.402 40.18-0.807 3.277-3.351 5.405-6.432 6.529-0.196-0.342-0.416-0.635-0.612-1.003a10.465 10.465 0 0 1-5.331 2.03h-45.609c-4.769-0.293-8.241-3.875-8.975-8.462 4.414-57.506 52.09-103.079 110.685-103.079 0.563 0 1.125 0.049 1.688 0.049 0.562 0 1.113-0.049 1.675-0.049 58.607 0 106.296 45.586 110.697 103.079-0.734 4.598-4.231 8.169-8.988 8.462z"  horiz-adv-x="1024" />

    
    <glyph glyph-name="diandian" unicode="&#58964;" d="M365.066 698.61c0 0 0 0 0 0 0-58.569 47.479-106.048 106.048-106.048 58.569 0 106.048 47.479 106.048 106.048 0 0 0 0 0 0 0 58.569-47.479 106.048-106.048 106.048-58.569 0-106.048-47.479-106.048-106.048 0 0 0 0 0 0zM365.066 384c0 0 0 0 0 0 0-58.569 47.479-106.048 106.048-106.048 58.569 0 106.048 47.479 106.048 106.048 0 0 0 0 0 0 0 58.569-47.479 106.048-106.048 106.048-58.569 0-106.048-47.479-106.048-106.048 0 0 0 0 0 0zM365.066 69.39c0 0 0 0 0 0 0-58.569 47.479-106.048 106.048-106.048 58.569 0 106.048 47.479 106.048 106.048 0 0 0 0 0 0 0 58.569-47.479 106.048-106.048 106.048-58.569 0-106.048-47.479-106.048-106.048 0 0 0 0 0 0z"  horiz-adv-x="1024" />

    
    <glyph glyph-name="wushuju" unicode="&#58961;" d="M361.412 685.222v-466.914c0-16.64 13.477-30.073 30.132-30.073h707.75c16.715 0 30.133 13.418 30.133 30.073V685.222a30.072 30.072 0 0 1-30.148 30.072H391.53c-16.715 0-30.132-13.417-30.132-30.072z m722.823-512.046v-15.104a45.086 45.086 0 0 0-45.191-45.13h-707.75a45.131 45.131 0 0 0-45.176 45.13V624.986a45.086 45.086 0 0 0 45.191 45.132h15.044v15.104a45.086 45.086 0 0 0 45.191 45.13h707.75a45.131 45.131 0 0 0 45.177-45.13v-466.914a45.086 45.086 0 0 0-45.192-45.132h-15.044z m0 0v451.81a45.131 45.131 0 0 1-45.191 45.132H346.353v-15.06h-15.044c-16.715 0-30.133-13.417-30.133-30.072v-466.914c0-16.64 13.478-30.072 30.133-30.072h707.75c16.715 0 30.133 13.417 30.133 30.072v15.104h15.058z m-15.059 0H391.544a45.131 45.131 0 0 0-45.191 45.132v436.75h692.69c16.656 0 30.133-13.432 30.133-30.072v-451.81zM706.56 207.57l-51.456 41.157a164.97 164.97 0 0 0-105.457-37.903C458.165 210.824 384 284.988 384 376.47s74.165 165.647 165.647 165.647c88.968 0 161.536-70.13 165.481-158.118h82.99v-15.059h-82.99a164.924 164.924 0 0 0-38.505-98.861l49.694-39.755L742.1 248.47l188.883-164.187-49.393-56.832L692.706 191.64l13.854 15.932zM700.04 384c-3.916 79.661-69.768 143.059-150.408 143.059-83.17 0-150.588-67.419-150.588-150.588s67.418-150.589 150.588-150.589c80.64 0 146.477 63.398 150.408 143.06h-30.163a120.47 120.47 0 1 0 0 15.058h30.163z m-45.267 0a105.412 105.412 0 1 1 0-15.059H527.059V384h127.729z m-127.714 30.118v15.058h90.353v-15.058h-90.353z m0-90.353v15.059h90.353v-15.06h-90.353zM715.129 384h-15.074a153.088 153.088 0 0 0 0-15.059h15.058a168.463 168.463 0 0 1 0 15.059z m-45.237 0h-15.104a106.948 106.948 0 0 0 0-15.059h15.104a122.323 122.323 0 0 1 0 15.059z m-144.234 77.643a7.53 7.53 0 0 0 4.85-14.26 82.854 82.854 0 0 1-56.155-78.442 7.53 7.53 0 1 0-15.059 0 97.912 97.912 0 0 0 66.364 92.702z m641.4-499.29a22.588 22.588 0 1 1 0 45.176 22.588 22.588 0 0 1 0-45.176zM45.177 353.883h-32.27v-15.06h32.27v-33.159h15.06v33.16h33.159v15.058h-33.16v32.271H45.176v-32.27zM1408 557.175h-38.716v-15.058H1408v-39.786h15.059v39.786h39.785v15.058h-39.785v38.717H1408v-38.717zM451.765-52.706h-45.177v-15.059h45.177v-46.426h15.059v46.426h46.426v15.06h-46.426V-7.53h-15.06v-45.177z m715.294 0a37.647 37.647 0 1 0 0 75.294 37.647 37.647 0 0 0 0-75.294zM730.353 820.706a37.647 37.647 0 1 0 0 75.294 37.647 37.647 0 0 0 0-75.294z m0 15.059a22.588 22.588 0 1 1 0 45.176 22.588 22.588 0 0 1 0-45.176z m587.294-512a7.53 7.53 0 1 1 0 15.059 7.53 7.53 0 0 1 0-15.06z m0-15.06a22.588 22.588 0 1 0 0 45.177 22.588 22.588 0 0 0 0-45.176zM233.412 248.472a22.588 22.588 0 1 0 0 45.176 22.588 22.588 0 0 0 0-45.176z m-128 256v15.058h180.706v-15.058H105.412z m903.53-391.53V128h225.882v-15.059H1008.94z m271.058 0V128h105.412v-15.059H1280z"  horiz-adv-x="1475" />

    
    <glyph glyph-name="guanbi" unicode="&#59068;" d="M153.998222 782.222222L910.222222 25.998222l-40.220444-40.220444L113.777778 742.001778zM870.001778 782.222222l40.220444-40.220444L153.998222-14.222222 113.777778 25.998222z"  horiz-adv-x="1024" />

    
    <glyph glyph-name="xiaoxi" unicode="&#58984;" d="M512 776c11.5 0 22.5-3.5 31.9-10.1 9.3-6.6 16.3-15.7 20.3-26.3l9.4-25.2 25.6-8.4c27.7-9.1 53.7-22.4 77.3-39.6 23.4-17 44-37.4 61.1-60.7C773.2 557.5 792 500.2 792 440v-241l9.4-14.1 54-80.9H630.2L617 66.8c-7.7-21.7-21.6-40.3-40.2-53.8-19-13.8-41.4-21-64.8-21s-45.8 7.2-64.7 20.9c-18.6 13.5-32.5 32.1-40.2 53.8L393.8 104H168.6l54 80.9L232 199V440c0 60.2 18.8 117.5 54.4 165.7 17.2 23.3 37.7 43.7 61.1 60.7 23.7 17.2 49.7 30.5 77.3 39.6l25.6 8.4 9.4 25.2c4 10.7 11 19.8 20.3 26.3 9.4 6.6 20.4 10.1 31.9 10.1m0 56c-48 0-88.6-30.4-104.6-72.8C273.1 715.2 176 589 176 440v-224l-54-80.9c-24.8-37.2 1.9-87.1 46.6-87.1h185.7C377.4-17.1 439-64 512-64s134.6 46.9 157.7 112h185.7c44.7 0 71.4 49.8 46.6 87.1L848 216V440c0 149-97.1 275.2-231.4 319.2C600.6 801.6 560 832 512 832zM680 104H344v-56h336v56z"  horiz-adv-x="1024" />

    
    <glyph glyph-name="zanwushuju1" unicode="&#58989;" d="M189.1072 86.272c5.5808 0 9.3056-3.7248 9.3056-9.3184s-3.712-9.3312-9.3056-9.3312H98.9056c-5.5808 0-9.3056 3.7376-9.3056 9.3312s3.712 9.3184 9.3056 9.3184h90.2016z m692.864 70.8608c5.5808 0 9.2928-3.7248 9.2928-9.3184s-3.712-9.3312-9.2928-9.3312h-157.184v-24.2432c0-26.112-20.4544-46.6176-46.4896-46.6176h-27.904c0-5.5936-2.7904-11.1872-6.5024-15.8464-9.3056-9.3184-23.2576-9.3184-32.5504 0l-14.8864 15.8464h-360.832c-5.5936 0-9.3056 3.7376-9.3056 9.3312s3.712 9.3184 9.2928 9.3184h40.9216a48.0128 48.0128 0 0 0-9.3056 27.968v466.176c0 26.112 20.4672 46.6304 46.5024 46.6304h29.76V651.264c0 26.112 20.4672 46.6176 46.5024 46.6176h365.4912c26.048 0 46.5024-20.5056 46.5024-46.6176v-466.176c0-10.2528-3.712-20.5056-9.2928-27.968h89.28z m-146.944 0h19.5328c15.808 0 27.904 12.1216 27.904 27.968v466.176c0 15.8592-12.096 27.9808-27.904 27.9808H389.0688c-15.8208 0-27.904-12.1216-27.904-27.9808v-24.2304h318.0544c26.048 0 46.5024-20.5184 46.5024-46.6176v-423.296h9.3056zM516.48 180.4416a81.1776 81.1776 0 0 1 0 114.688 80.1024 80.1024 0 0 1-56.7424 23.296c-21.376 0-41.856-8.384-56.7296-23.296a81.1776 81.1776 0 0 1 0-114.688 80.1024 80.1024 0 0 1 56.7296-23.296c20.4672 0 40.9216 8.384 56.7424 23.296z m-97.664 85.7728c1.8688-0.9216 2.8032-3.7248 1.8688-6.528-6.5152-11.1872-7.4368-26.0992-2.7904-38.2208 0.9344-2.7904 0-4.6592-2.7904-6.528h-1.856a5.12 5.12 0 0 0-4.6592 2.8032c-5.5808 14.912-4.6464 32.64 2.7904 46.6176a7.2192 7.2192 0 0 0 7.4496 1.856z m288.3072-151.9744v466.176c0 15.8592-12.0832 27.9808-27.904 27.9808H312.8064c-15.8208 0-27.904-12.1216-27.904-27.968v-466.176c0-15.8592 12.0832-27.9808 27.904-27.9808h265.0496l-26.048 26.112a23.5264 23.5264 0 0 0-5.568 24.2432l-23.2576 24.2304a98.048 98.048 0 0 0-63.232-23.296c-26.9824 0-51.1616 10.24-70.6816 28.8896a99.2256 99.2256 0 0 0 0 140.8c18.5984 18.6368 43.6992 28.8896 70.6688 28.8896 26.9696 0 51.1616-10.24 70.6816-28.9024 36.2752-36.352 38.144-95.104 6.5152-134.2592l24.192-24.2304c8.3584 2.7904 17.664 1.856 24.1664-5.6064l57.664-57.8048h36.2624c14.8864 0.9344 27.904 13.056 27.904 28.9024zM370.4576 512.3584c-5.5808 0-9.2928 3.7376-9.2928 9.3312s3.712 9.3184 9.2928 9.3184h162.752c5.5808 0 9.3056-3.7248 9.3056-9.3184s-3.712-9.3312-9.3056-9.3312H370.4576z m216.704-41.024c5.568 0 9.2928-3.7248 9.2928-9.3184s-3.712-9.3312-9.3056-9.3312h-213.888c-5.5936 0-9.3056 3.7376-9.3056 9.3312s3.712 9.3184 9.2928 9.3184h213.9008z m-104.1664-59.6736c5.5808 0 9.2928-3.712 9.2928-9.3184 0-5.5936-3.712-9.3184-9.2928-9.3184h-114.3936c-5.5808 0-9.2928 3.7248-9.2928 9.3184s3.712 9.3184 9.2928 9.3184h114.3936zM127.7312 616.7808c10.24 0 18.5984-8.384 18.5984-18.6368a18.688 18.688 0 0 0-18.5984-18.6496 18.688 18.688 0 0 0-18.5984 18.6496 18.688 18.688 0 0 0 18.5984 18.6368z m0-55.936a37.3632 37.3632 0 0 1 37.1968 37.2992 37.3632 37.3632 0 0 1-37.1968 37.2864 37.3632 37.3632 0 0 1-37.1968-37.2864 37.3632 37.3632 0 0 1 37.1968-37.2992z m778.4192-15.8464c-5.5808 0-9.3056 3.7248-9.3056 9.3184s3.712 9.3184 9.3056 9.3184c5.5808 0 9.2928-3.712 9.2928-9.3184 0-5.5936-3.712-9.3184-9.2928-9.3184z m0 37.2864c-15.808 0-27.904-12.1216-27.904-27.968s12.096-27.968 27.904-27.968c15.808 0 27.904 12.1216 27.904 27.968s-12.096 27.968-27.904 27.968zM226.304 679.2576c0-5.5936 3.712-9.3312 9.2928-9.3312s9.3056 3.7376 9.3056 9.3312v11.1872h11.1616c5.5808 0 9.2928 3.7248 9.2928 9.3184s-3.712 9.3312-9.2928 9.3312h-11.1616v11.1872c0 5.5936-3.712 9.3184-9.3056 9.3184-5.5808 0-9.2928-3.7248-9.2928-9.3184v-11.1872h-11.1616c-5.5808 0-9.3056-3.7376-9.3056-9.3312s3.712-9.3184 9.3056-9.3184h11.1616v-11.1872zM203.9936 418.176h-11.1616v11.1872c0 5.5936-3.712 9.3312-9.3056 9.3312-5.5808 0-9.2928-3.7376-9.2928-9.3312v-11.1872h-11.1616c-5.5808 0-9.3056-3.7248-9.3056-9.3184s3.7248-9.3184 9.3056-9.3184h11.1616v-11.2c0-5.5936 3.712-9.3184 9.2928-9.3184s9.3056 3.7248 9.3056 9.3184v11.2h11.1616c5.5808 0 9.2928 3.712 9.2928 9.3184 0 5.5936-3.712 9.3184-9.2928 9.3184zM894.976 392.0896h-11.1488v11.1872c0 5.5936-3.712 9.3184-9.3056 9.3184-5.5808 0-9.2928-3.7248-9.2928-9.3184v-11.1872h-11.1616c-5.5808 0-9.3056-3.7376-9.3056-9.3312s3.7248-9.3184 9.3056-9.3184h11.1616v-11.1872c0-5.5936 3.712-9.3184 9.2928-9.3184s9.3056 3.712 9.3056 9.3184v11.1872h11.1616c5.5808 0 9.2928 3.7248 9.2928 9.3184a9.3312 9.3312 0 0 1-9.2928 9.3312"  horiz-adv-x="1024" />

    
    <glyph glyph-name="zanwushuju-" unicode="&#58881;" d="M949.2 302.70000000000005l-84.1 74.8C862.4 580 697.5 743.7 494.5 743.7c-86.8 0-166.5-29.5-229.2-79.7l-32.8 29.5c-10.9 9.3-27.3 8.7-36.6-2.2-9.3-10.9-8.7-27.3 2.2-36.6L227 629l22.4-19.6c13.6-12 14.7-32.7 2.7-45.8-8.7-9.8-22.9-13.6-34.9-9.3l-66 57.3c-21.3 19.1-54.6 16.9-73.7-4.4-19.1-21.3-16.9-54.6 4.4-73.7l57.9-51.3c-10.4-34.4-16.4-71-16.4-109.2 0-204.7 165.9-370.6 370.6-370.6 111.9 0 211.8 49.7 280 127.7l40.9-36c9.3-8.2 21.8-13.1 34.4-13.1 14.2 0 28.9 6 38.8 17.5 19.1 21.3 16.9 54.6-4.4 73.7l-92.8 81.9c-11.5 14.7-11.5 35.5 1.6 50.2 12 13.6 31.7 16.9 47.5 8.7l65.5-58.4c6-5.5 13.6-8.2 21.8-8.2 8.7 0 18 3.8 24.6 10.9 12 13.2 10.9 33.4-2.7 45.4z m0 0M692.9 184.29999999999995H284.6c-27.6 0-50 22.4-50 50V492.1c0 27.6 22.4 50 50 50h408.3c27.6 0 50-22.4 50-50v-257.8c0.1-27.5-22.4-50-50-50zM284.6 526.8c-19.1 0-34.6-15.5-34.6-34.6v-257.8c0-19.1 15.5-34.6 34.6-34.6h408.3c19.1 0 34.6 15.5 34.6 34.6V492.1c0 19.1-15.5 34.6-34.6 34.6H284.6zM577 100.5H400.5c-4.3 0-7.7 3.4-7.7 7.7s3.4 7.7 7.7 7.7H577c4.3 0 7.7-3.4 7.7-7.7s-3.5-7.7-7.7-7.7zM735.3 250.5h-493c-4.3 0-7.7 3.4-7.7 7.7s3.4 7.7 7.7 7.7h493c4.3 0 7.7-3.4 7.7-7.7s-3.5-7.7-7.7-7.7zM228.7 725.8c0-7.2 6-13.3 13.3-13.9 7.2 0 13.3 6 13.9 13.3 0 7.2-6 13.3-13.3 13.3-7.9 1.2-13.9-4.9-13.9-12.7zM640 815.7c-7.8 0-14.5-6.6-14.5-14.5 0-7.8 6.6-14.5 14.5-14.5 7.8 0 14.5 6.6 14.5 14.5s-6.7 14.5-14.5 14.5zM895.5 484.2s-9.6-32.6-28.9-37.4c0 0 24.1-9.6 28.9-33.8 0 0 3.6 35 31.4 35.6 0 0.1-30.2 16.3-31.4 35.6zM941.1 553.3s-3.6-12.1-10.9-13.9c0 0 9-3.6 10.9-12.7 0 0 1.2 13.3 11.5 13.3 0 0-10.9 6.1-11.5 13.3zM455.4 786.8s-7.2-24.7-22.3-28.3c0 0 18.7-7.2 22.3-25.9 0 0 3 26.5 24.1 27.1 0-0.1-22.9 12.6-24.1 27.1zM608.6 704.7l61-27.1 98.9 78.4-75.4-82 75.4-24.7 41.6 151.9zM692.5 655.3l-4.2-46.4 25.9 33.7zM445.2 415.9c-15.1-8.4-26.5-13.3-26.5-13.3l2.4-6.6c0.6 0 12.1 4.8 27.7 13.3 0 0.5-3.6 6.6-3.6 6.6zM479 438.8c-7.2-5.4-14.5-10.9-22.3-15.7-1.8-1.2-2.4-3-1.2-4.8 1.2-1.8 3-2.4 4.8-1.2 7.8 4.8 15.7 10.3 22.9 16.3 1.8 1.2 1.8 3.6 0.6 4.8-1.2 1.8-3 1.8-4.8 0.6zM518.8 476.2c-1.8 1.2-3.6 0.6-4.8-0.6-6-8.4-12.7-16.3-21.1-24.1-1.2-1.2-1.2-3.6 0-4.8 1.2-1.2 3.6-1.2 4.8 0 8.4 7.8 15.7 16.9 21.7 25.3 1.2 0.6 0.6 3-0.6 4.2zM535.1 554c0-1.8 1.8-3.6 4.2-3 1.8 0 3.6 1.8 3 4.2-1.8 16.3-7.8 28.3-16.9 36.8-1.8 1.2-3.6 1.2-4.8-0.6-1.2-1.2-1.2-3.6 0.6-4.8 7.2-7.3 12.1-18.1 13.9-32.6zM476.6 590.2c0.6 0 1.2 0 1.8 0.6 9.6 4.2 20.5 5.4 29.6 3 1.8-0.6 4.2 0.6 4.2 2.4 0.6 1.8-0.6 4.2-2.4 4.2-10.9 3-23.5 1.8-34.4-3-1.8-0.6-2.4-3-1.8-4.8 0-1.2 1.2-2.4 3-2.4zM456.7 553.4c-0.6 3-0.6 6-0.6 9l3.6 11.5c1.8 3 3.6 5.4 5.4 7.8 1.2 1.2 1.2 3.6 0 4.8-1.2 1.2-3.6 1.2-4.8 0-9.6-9.6-13.3-22.3-10.3-34.4 0.6-1.8 2.4-3 4.2-2.4 1.3 0.1 2.5 1.9 2.5 3.7zM457.9 540.7c-1.8-1.2-1.8-3.6-1.2-4.8 3.6-5.4 9-10.9 15.1-16.3 2.4-1.8 4.2-3.6 6.6-5.4 1.8-1.2 3.6-0.6 4.8 0.6 1.2 1.2 0.6 3.6-0.6 4.8-2.4 1.8-4.2 3-6.6 4.8-5.4 4.8-10.3 9.6-13.9 14.5-0.6 2.4-3 3-4.2 1.8zM514.6 499.1c1.8 0 3.6 1.8 3.6 3.6s-1.2 3.6-3 3.6c-7.2 1.2-14.5 3.6-21.1 6.6-1.8 1.2-4.2 0-4.8-1.8-1.2-1.8 0-4.2 1.8-4.8 7.2-3 15-6 23.5-7.2-0.6 0 0 0 0 0zM541.7 508.7c-1.2-0.6-3-0.6-4.2-1.2 2.4 8.4 4.2 17.5 4.8 25.9 0 1.8-1.2 3.6-3.6 3.6-1.8 0-3.6-1.2-3.6-3.6-0.6-9.6-2.4-18.7-6-27.7h-4.2c-1.8 0-3.6-1.8-3.6-3.6s1.8-3.6 3.6-3.6h1.2c-1.2-3.6-3-6.6-4.8-10.3-0.6-1.8 0-4.2 1.8-4.8 1.8-0.6 3.6 0 4.8 1.2 2.4 4.8 4.8 9 6.6 13.9l9 1.8c1.8 0.6 3 2.4 2.4 4.2 0 3.6-2.4 4.9-4.2 4.2zM584.5 533.5c-8.4-7.2-16.9-13.3-24.7-18.1-1.8-1.2-2.4-3-1.2-4.8 1.2-1.8 3-2.4 4.8-1.2 8.4 4.8 17.5 10.9 26.5 18.7 1.8 1.2 1.8 3.6 0.6 4.8-2.4 1.8-4.8 1.8-6 0.6zM621.3 569.7c-1.8 1.2-3.6 0.6-4.8-0.6-6-7.8-12.7-15.7-18.7-22.3-1.2-1.2-1.2-3.6 0-4.8 1.2-1.2 3.6-1.2 4.8 0 6.6 6.6 12.7 14.5 19.3 22.9 1.2 1.1 1.2 3.6-0.6 4.8zM650.9 616.1c-1.8 1.2-4.2 0.6-4.8-1.2-5.4-10.3-12.1-19.9-18.1-29.6-1.2-1.8-0.6-3.6 0.6-4.8 1.8-1.2 3.6-0.6 4.8 0.6 6.6 9.6 12.7 19.9 18.7 30.2 1.2 1.8 0.6 4.2-1.2 4.8zM673.8 662.5c-1.8 0.6-4.2 0-4.8-1.8 0 0-4.8-11.5-12.7-27.1-1.2-1.8 0-4.2 1.8-4.8 1.8-1.2 4.2 0 4.8 1.8 8.4 16.3 13.3 27.1 13.3 27.7 0.6 1.2-0.6 3-2.4 4.2zM488.5 192l0.5-83.8M489 100.5c-4.2 0-7.7 3.4-7.7 7.7l-0.5 83.8c0 4.3 3.4 7.7 7.7 7.7 4.2 0 7.7-3.4 7.7-7.7l0.5-83.8c0-4.2-3.4-7.7-7.7-7.7z"  horiz-adv-x="1024" />

    
    <glyph glyph-name="zichanhuaxiang-" unicode="&#58883;" d="M514.4 302.8c-2.5 0-5 0.6-7.3 1.8L148.7 489.2c-5.3 2.7-8.6 8.2-8.6 14.2s3.3 11.4 8.6 14.2l357.6 185.1c4.6 2.4 10.1 2.4 14.7 0l356.4-185.1c5.3-2.7 8.6-8.2 8.6-14.2s-3.3-11.4-8.6-14.2L521.7 304.6c-2.3-1.2-4.8-1.8-7.3-1.8zM190.8 503.5l323.6-166.7 321.1 166.7-321.9 167.1-322.8-167.1zM514.4 164.8c-2.5 0-5 0.6-7.3 1.8L148.7 351.2c-7.8 4-10.9 13.7-6.9 21.5 4 7.8 13.7 10.9 21.5 6.9l351-180.8 348.4 180.8c7.8 4.1 17.4 1 21.5-6.8 4.1-7.8 1-17.4-6.8-21.5L521.7 166.6c-2.3-1.2-4.8-1.8-7.3-1.8zM514.4 51.5c-2.5 0-5 0.6-7.3 1.8L148.7 237.9c-7.8 4-10.9 13.7-6.9 21.5 4 7.8 13.7 10.9 21.5 6.9l351-180.8 348.4 180.8c7.8 4.1 17.4 1 21.5-6.8 4.1-7.8 1-17.4-6.8-21.5L521.7 53.3c-2.3-1.2-4.8-1.8-7.3-1.8zM894.2-59.9H129.8c-36.3 0-65.8 29.5-65.8 65.8V766.3c0 36.3 29.5 65.8 65.8 65.8h764.4c36.3 0 65.8-29.5 65.8-65.8v-760.5c0-36.2-29.5-65.7-65.8-65.7zM129.8 800.2c-18.7 0-33.9-15.2-33.9-33.9v-760.5c0-18.7 15.2-33.9 33.9-33.9h764.4c18.7 0 33.9 15.2 33.9 33.9V766.3c0 18.7-15.2 33.9-33.9 33.9H129.8z"  horiz-adv-x="1024" />

    
    <glyph glyph-name="anquanqingbao-" unicode="&#58884;" d="M516.1-64.3l-5.8 2.2c-81.6 31.6-149.8 68.9-202.7 110.9-42.9 34.1-76.1 71.4-98.4 110.9-36 63.5-32.7 112.7-31.8 121.7l-1.7 443.7 18.2-2.3c0.4 0 42.4-5 101.5 5.5 54.2 9.7 134.5 34.7 209.1 99.4l4.5 3.9h12.1l4.5-3.9c74.6-64.6 154.9-89.7 209.1-99.4 59.1-10.5 101.1-5.6 101.5-5.5l18.1 2.2v-18.3l-1.6-425.3c1.1-9.3 4.7-58.4-30.7-121.7-22.1-39.5-54.9-76.9-97.7-111-52.7-42-120.8-79.3-202.4-110.9l-5.8-2.1zM209.4 278.2c-0.2-1.8-5.1-46.1 29.2-105.1 32.3-55.6 106.6-135.6 277.5-202.9C686.9 37.5 760.7 117.5 792.5 173c33.8 58.9 28.4 103.3 28.2 105l-0.2 1.3v1.2l1.6 409.1c-19-0.7-51.5-0.2-91.7 6.8-37.2 6.5-73.5 17.4-107.7 32.4-38.6 16.9-74.8 39-107.6 65.8-32.8-26.8-69-48.9-107.6-65.8-34.2-14.9-70.4-25.8-107.7-32.4-40.2-7.1-72.7-7.5-91.7-6.8l1.6-410.4-0.3-1zM510.8 220.6c-8.9 0-16.1 7.2-16.1 16.1V583.4c0 8.9 7.2 16.1 16.1 16.1 8.9 0 16.1-7.2 16.1-16.1v-346.8c0-8.8-7.2-16-16.1-16zM510.9 123.7c-8.9 0-16.1 7.2-16.1 16.1V176c0 8.9 7.2 16.1 16.1 16.1 8.9 0 16.1-7.2 16.1-16.1v-36.2c0-8.9-7.2-16.1-16.1-16.1z"  horiz-adv-x="1024" />

    
    <glyph glyph-name="loudongbaike-" unicode="&#58885;" d="M700.6 609.3c-24.7 0-44.7-20-44.7-44.7 0-7.7 1.9-14.9 5.3-21.2L549.8 432.9c-5 2.3-10.5 3.6-16.3 3.6-6.7 0-13-1.7-18.6-4.7l-53.8 54.3c2.7 5 4.2 10.7 4.2 16.7 0 19.7-16 35.7-35.7 35.7s-35.7-16-35.7-35.7c0-5 1-9.7 2.9-14l-65.2-65.2c-3.8 1.8-7.9 2.8-12.4 2.8-16 0-28.9-12.9-28.9-28.9 0-16 12.9-28.9 28.9-28.9 16 0 28.9 12.9 28.9 28.9 0 1.7-0.2 3.4-0.4 5l67.6 67.6c4.4-1.9 9.2-3 14.3-3 4 0 7.8 0.7 11.4 1.9l56.4-56.9c-1.8-4.5-2.9-9.5-2.9-14.6 0-21.5 17.4-38.9 38.9-38.9s38.9 17.4 38.9 38.9c0 6.1-1.4 11.8-3.9 16.9L680 525c6.2-3.2 13.2-5 20.6-5 24.7 0 44.7 20 44.7 44.7-0.1 24.6-20.1 44.6-44.7 44.6zM301.8 118.9H761.2c37.7 0 68.4 30.7 68.4 68.4V763.6c0 37.7-30.7 68.4-68.4 68.4H262.8c-37.7 0-68.4-30.7-68.4-68.4v-720.2c0-59.2 48.2-107.4 107.4-107.4h501.1c8.8 0 16 7.2 16 16s-7.2 16-16 16H301.8c-41.6 0-75.4 33.8-75.4 75.4 0 41.6 33.8 75.5 75.4 75.5z m-75.4 644.7c0 20.1 16.3 36.4 36.4 36.4h498.5c20.1 0 36.4-16.3 36.4-36.4v-576.4c0-20.1-16.3-36.4-36.4-36.4H301.8c-29.4 0-56-11.8-75.4-31V763.6z"  horiz-adv-x="1024" />

    
    <glyph glyph-name="anquandaping-" unicode="&#58886;" d="M894.5 132H130.1c-36.3 0-65.8 29.5-65.8 65.8V720.3c0 36.3 29.5 65.8 65.8 65.8h764.4c36.3 0 65.8-29.5 65.8-65.8v-522.5c0-36.3-29.5-65.8-65.8-65.8zM130.1 754.1c-18.7 0-33.9-15.2-33.9-33.9v-522.5c0-18.7 15.2-33.9 33.9-33.9h764.4c18.7 0 33.9 15.2 33.9 33.9V720.3c0 18.7-15.2 33.9-33.9 33.9H130.1zM944.3-28.4H80.2c-8.8 0-16 7.1-16 16 0 8.8 7.1 16 16 16h864.1c8.8 0 16-7.1 16-16 0-8.8-7.2-16-16-16zM512.3-28.4c-8.8 0-16 7.1-16 16V54c0 8.8 7.1 16 16 16 8.8 0 16-7.1 16-16v-66.4c-0.1-8.8-7.2-16-16-16zM513.9 322l-4.1 1.6c-107 41.4-106 101.4-105.1 110.6l-0.5 141.7 12.9-1.6c0.1 0 12.2-1.4 29.3 1.7 22.5 4.1 42.7 13.7 59.8 28.6l3.2 2.8h8.5l3.3-2.8c17.1-14.8 37.2-24.4 59.8-28.6 17.1-3.1 29.2-1.7 29.3-1.7l12.9 1.6-0.1-13-0.5-128.6c0.9-9.4 2.4-69.3-104.5-110.6l-4.2-1.7z"  horiz-adv-x="1024" />

    
    <glyph glyph-name="anquantaishi-" unicode="&#58887;" d="M513.1-63.9l-5.8 2.2c-81.6 31.6-149.8 68.9-202.7 110.9-42.9 34.1-76.1 71.4-98.4 110.9-36 63.5-32.7 112.7-31.8 121.7l-1.7 443.7 18.2-2.3c0.4 0 42.4-5 101.5 5.5 54.2 9.7 134.5 34.7 209.1 99.4L506 832h12.1l4.5-3.9c74.6-64.6 154.9-89.7 209.1-99.4 59.1-10.5 101.1-5.6 101.5-5.5l18.1 2.2v-18.3L849.7 282c1.1-9.3 4.7-58.4-30.7-121.7-22.1-39.5-54.9-76.9-97.7-111-52.7-42-120.8-79.3-202.4-110.9l-5.8-2.3zM206.4 278.6c-0.2-1.8-5.1-46.1 29.2-105.1 32.3-55.6 106.6-135.6 277.5-202.9 170.8 67.2 244.6 147.2 276.4 202.8 33.8 58.9 28.4 103.3 28.2 105l-0.2 1.3v1.2l1.6 409.1c-19-0.7-51.5-0.2-91.7 6.8-37.2 6.5-73.5 17.4-107.7 32.4-38.6 16.9-74.8 39-107.6 65.8-32.8-26.8-69-48.9-107.6-65.8-34.2-14.9-70.4-25.8-107.7-32.4-40.2-7.1-72.7-7.5-91.7-6.8l1.6-410.4-0.3-1zM486.7 237.7L287.9 410.4c-6.7 5.8-7.4 16-1.6 22.7 5.8 6.7 16 7.4 22.7 1.6l169.7-147.4c42.8 69.8 91.9 130 145.9 179 41.4 37.5 86.1 68.7 132.9 92.9 7.9 4.1 17.6 1 21.7-6.9 4.1-7.9 1-17.6-6.9-21.7C664 474.7 571.2 381.8 496.5 254.4l-9.8-16.7z"  horiz-adv-x="1024" />

    
    <glyph glyph-name="heikeganzhi-" unicode="&#58888;" d="M679 12.2H502.1c-173.1 0-419.4 2.6-421.9 2.6l-16 0.2v67.3c0 49 29 95.4 83.9 134.2 46.7 33 109.4 58.6 182.3 74.7L295 357.1l21.3 4.3c9.9 2 18.9 3.8 27.9 5.5-4.4 8.7-8.6 17.9-12.3 27.1-11.8 28.1-19.5 55.8-22.5 80.9-83.7 17.2-129.6 46.3-129.6 82.6 0 19.5 13.3 37 39.4 51.9 19.4 11 45.6 20.7 78.1 28.7l17.3 102.2c0.7 37.2 30.1 66.1 67.5 66.1h240.8c37.3 0 66.7-28.8 67.5-65.9l18.6-98.8c64.2-13.9 135.5-39.5 135.5-84.2s-72.6-70.2-138.2-84.2c-4.4-28.7-11.8-54.9-22-77.8-3.8-9.5-8.1-18.4-12.6-26.9 9.1-1.8 17.9-3.5 26.6-5.3l22.9-4.6-35.1-65.7c75.4-16.1 140-41.8 187.9-75 56.4-39 86.2-85.9 86.2-135.7v-64.6l-11.1-3.7c-3.5-1.2-4.7-1.5-134.4-1.8-41.2 0.1-88.8 0-135.7 0zM96.5 47c57.5-0.6 258.2-2.4 405.6-2.4h73.6c115.6 0 299.3-0.1 352.3 0.5v37.3c0 79.9-108.2 153.5-269.4 183.2l-21.7 4 35.5 66.1c-9.1 1.8-18.4 3.6-28.1 5.3l-22.1 4 10.9 19.7c7.6 13.7 15.5 28 21.6 43.1l0.2 0.6c10.3 23.2 17.4 50.3 21.2 80.5l1.4 11.6 11.5 2.2c39.7 7.8 72.5 17.8 94.8 29.1 21.1 10.7 28.7 20.3 28.7 25.7 0 12.4-32 37.2-120.3 54.8l-10.7 2.1-23.2 123V739c0 20.1-15.2 35.2-35.2 35.2H382.2c-20.1 0-35.2-15.2-35.2-35.2v-1.4l-21.3-126-10.5-2.4c-33.9-7.7-61.5-17.3-79.9-27.8-14.5-8.3-23.2-17.2-23.2-23.9 0-12.9 30.7-37.6 115.2-53.2l12.4-2.3 0.7-12.6c1.5-24.8 8.8-53.5 21.2-83l0.1-0.3c6.1-15.2 13.6-30.3 21.2-42.4l12.6-20.2-23.4-4.3c-9.7-1.8-18.8-3.5-28.1-5.3l35.4-66L358 264c-77.6-14.7-143.7-40.3-191.2-73.8-32-22.6-70.2-59.7-70.2-107.8V47z"  horiz-adv-x="1024" />

    
    <glyph glyph-name="bingduganzhi-" unicode="&#58889;" d="M505.2 33.5c-47.1 0-92.7 9.2-135.7 27.4-41.5 17.6-78.8 42.7-110.8 74.7s-57.1 69.3-74.7 110.8c-18.2 43-27.4 88.6-27.4 135.7 0 47.1 9.2 92.7 27.4 135.7 17.6 41.5 42.7 78.8 74.7 110.8s69.3 57.1 110.8 74.7c43 18.2 88.6 27.4 135.7 27.4s92.7-9.2 135.7-27.4c41.5-17.6 78.8-42.7 110.8-74.7s57.1-69.3 74.7-110.8c18.2-43 27.4-88.6 27.4-135.7 0-47.1-9.2-92.7-27.4-135.7-17.6-41.5-42.7-78.8-74.7-110.8s-69.3-57.1-110.8-74.7c-42.9-18.1-88.6-27.4-135.7-27.4z m0 665.8c-174.9 0-317.1-142.3-317.1-317.1S330.4 65 505.2 65s317.1 142.3 317.1 317.1-142.2 317.2-317.1 317.2zM494.2 713.1c-8.6 0-15.6 6.9-15.7 15.6l-0.9 91.2c-0.1 8.7 6.9 15.8 15.6 15.9h0.2c8.6 0 15.6-6.9 15.7-15.6l0.9-91.2c0.1-8.7-6.9-15.8-15.6-15.9h-0.2zM505.2-60.2c-8.6 0-15.6 6.9-15.7 15.6l-0.9 91.2c-0.1 8.7 6.9 15.8 15.6 15.9h0.2c8.6 0 15.6-6.9 15.7-15.6l0.9-91.2c0.1-8.7-6.9-15.8-15.6-15.9h-0.2zM838.9 364.7c-8.6 0-15.6 6.9-15.7 15.6-0.1 8.7 6.9 15.8 15.6 15.9l91.2 0.8c8.7 0.1 15.8-6.9 15.9-15.6 0.1-8.7-6.9-15.8-15.6-15.9l-91.2-0.9c-0.1 0.1-0.1 0.1-0.2 0.1zM79.4 364.7c-8.6 0-15.6 6.9-15.7 15.6-0.1 8.7 6.9 15.8 15.6 15.9l91.2 0.9c8.6 0.1 15.8-6.9 15.9-15.6 0.1-8.7-6.9-15.8-15.6-15.9l-91.2-0.9h-0.2zM741.4 601.1c-4 0-8 1.5-11 4.5-6.2 6.1-6.3 16-0.2 22.2L794 693c6.1 6.2 16 6.3 22.2 0.2 6.2-6.1 6.3-16 0.2-22.2l-63.9-65.1c-3-3.2-7-4.8-11.1-4.8zM204.3 64c-4 0-8 1.5-11 4.5-6.2 6.1-6.3 16-0.2 22.2l63.9 65.1c6.1 6.2 16 6.3 22.2 0.2 6.2-6.1 6.3-16 0.2-22.2l-63.9-65.1c-3-3.1-7.1-4.7-11.2-4.7zM805.9 64.7c-4 0-8 1.5-11 4.5l-65.1 63.9c-6.2 6.1-6.3 16-0.2 22.2 6.1 6.2 16 6.3 22.2 0.2l65.1-63.9c6.2-6.1 6.3-16 0.2-22.2-3-3.2-7.1-4.7-11.2-4.7zM268.8 601.7c-4 0-8 1.5-11 4.5l-65.1 63.9c-6.2 6.1-6.3 16-0.2 22.2 6.1 6.2 16 6.3 22.2 0.2l65.1-63.9c6.2-6.1 6.3-16 0.2-22.2-3-3.1-7.1-4.7-11.2-4.7zM425.3 460.9m-87.6 0a87.6 87.6 0 1 1 175.2 0 87.6 87.6 0 1 1-175.2 0ZM677 474.5m-31.5 0a31.5 31.5 0 1 1 63 0 31.5 31.5 0 1 1-63 0ZM507.2 161.9m-21.8 0a21.8 21.8 0 1 1 43.6 0 21.8 21.8 0 1 1-43.6 0Z"  horiz-adv-x="1024" />

    
    <glyph glyph-name="shangwanghangweiganzhi" unicode="&#58890;" d="M513 176.8c-114.9 0-208.4 93.5-208.4 208.4S398.1 593.7 513 593.7s208.4-93.5 208.4-208.4S627.9 176.8 513 176.8z m0 384.9c-97.3 0-176.5-79.2-176.5-176.5S415.7 208.7 513 208.7s176.5 79.2 176.5 176.5S610.3 561.7 513 561.7zM578.8 204.6m-58.1 0a58.1 58.1 0 1 1 116.2 0 58.1 58.1 0 1 1-116.2 0ZM513-62.8c-60.5 0-119.1 11.8-174.4 35.2-53.3 22.6-101.3 54.9-142.4 96s-73.4 89-96 142.4C76.8 266.1 65 324.7 65 385.2s11.8 119.1 35.2 174.4c22.6 53.3 54.9 101.3 96 142.4s89 73.4 142.4 96C393.9 821.4 452.5 833.2 513 833.2S632.1 821.4 687.4 798c53.3-22.6 101.3-54.9 142.4-96 41.1-41.1 73.4-89 96-142.4 23.4-55.2 35.2-113.9 35.2-174.4s-11.8-119.1-35.2-174.4c-22.6-53.3-54.9-101.3-96-142.4-41.1-41.1-89-73.4-142.4-96-55.3-23.3-113.9-35.2-174.4-35.2z m0 864c-229.4 0-416-186.6-416-416s186.6-416 416-416 416 186.6 416 416-186.6 416-416 416zM517.8 362.9c-5.2 0-10.2 2.5-13.3 7.1-4.9 7.3-3 17.3 4.4 22.2l358.5 240.3c7.3 4.9 17.3 3 22.2-4.4 4.9-7.3 3-17.3-4.4-22.2L526.7 365.6c-2.7-1.9-5.8-2.7-8.9-2.7z"  horiz-adv-x="1024" />

    
    <glyph glyph-name="xunishijian-" unicode="&#58891;" d="M864.5 28.4H159.7c-53.6 0-95.6 30-95.6 68.2V682c0 38.2 42 68.2 95.6 68.2h93.9c8.9 0 16-7.2 16-16s-7.2-16-16-16h-93.9c-37.5 0-63.6-19-63.6-36.1v-585.5c0-17.1 26.1-36.1 63.6-36.1h704.7c37.5 0 63.6 19 63.6 36.1V682c0 17.1-26.1 36.1-63.6 36.1h-105c-8.9 0-16 7.2-16 16s7.2 16 16 16h105.1c53.6 0 95.6-30 95.6-68.2v-585.5c0-38.1-42-68-95.6-68zM542.3 712.9h-104c-8.9 0-16 7.2-16 16s7.2 16 16 16h104c8.9 0 16-7.2 16-16s-7.1-16-16-16zM525.5 532.5H241.6c-8.9 0-16 7.2-16 16s7.2 16 16 16h283.9c8.9 0 16-7.2 16-16s-7.2-16-16-16zM639 382.5H241.6c-8.9 0-16 7.2-16 16s7.2 16 16 16H639c8.9 0 16-7.2 16-16s-7.1-16-16-16zM452.8 232.6H241.6c-8.9 0-16 7.2-16 16s7.2 16 16 16h211.2c8.9 0 16-7.2 16-16s-7.1-16-16-16zM350.9 659.8c-8.9 0-16 7.2-16 16V782.1c0 8.9 7.2 16 16 16s16-7.2 16-16v-106.2c0-8.9-7.2-16.1-16-16.1zM654.1 659.1c-8.9 0-16 7.2-16 16V781.4c0 8.9 7.2 16 16 16s16-7.2 16-16v-106.2c0-8.9-7.2-16.1-16-16.1z"  horiz-adv-x="1024" />

    
    <glyph glyph-name="wulizichan-" unicode="&#58892;" d="M944 584H80c-8.8 0-16 7.2-16 16V756c0 8.8 7.2 16 16 16h864c8.8 0 16-7.2 16-16v-156c0-8.8-7.2-16-16-16zM96 616h832V740H96v-124zM165.3 654c-8.8 0-16 7.2-16 16v12c0 8.8 7.2 16 16 16s16-7.2 16-16v-12c0-8.8-7.2-16-16-16zM259.1 654c-8.8 0-16 7.2-16 16v12c0 8.8 7.2 16 16 16s16-7.2 16-16v-12c0-8.8-7.2-16-16-16zM352.2 654c-8.8 0-16 7.2-16 16v12c0 8.8 7.2 16 16 16s16-7.2 16-16v-12c0-8.8-7.1-16-16-16zM432.5 654c-8.8 0-16 7.2-16 16v12c0 8.8 7.2 16 16 16s16-7.2 16-16v-12c0-8.8-7.2-16-16-16zM842.6 660h-164c-8.8 0-16 7.2-16 16s7.2 16 16 16h164c8.8 0 16-7.2 16-16s-7.1-16-16-16zM944 288.8H80c-8.8 0-16 7.2-16 16v156c0 8.8 7.2 16 16 16h864c8.8 0 16-7.2 16-16v-156c0-8.9-7.2-16-16-16z m-848 32h832v124H96v-124zM165.3 358.8c-8.8 0-16 7.2-16 16v12c0 8.8 7.2 16 16 16s16-7.2 16-16v-12c0-8.9-7.2-16-16-16zM259.1 358.8c-8.8 0-16 7.2-16 16v12c0 8.8 7.2 16 16 16s16-7.2 16-16v-12c0-8.9-7.2-16-16-16zM352.2 358.8c-8.8 0-16 7.2-16 16v12c0 8.8 7.2 16 16 16s16-7.2 16-16v-12c0-8.9-7.1-16-16-16zM432.5 358.8c-8.8 0-16 7.2-16 16v12c0 8.8 7.2 16 16 16s16-7.2 16-16v-12c0-8.9-7.2-16-16-16zM842.6 364.8h-164c-8.8 0-16 7.2-16 16s7.2 16 16 16h164c8.8 0 16-7.2 16-16s-7.1-16-16-16zM944-6.5H80c-8.8 0-16 7.2-16 16v156c0 8.8 7.2 16 16 16h864c8.8 0 16-7.2 16-16v-156c0-8.8-7.2-16-16-16z m-848 32h832v124H96v-124zM165.3 63.5c-8.8 0-16 7.2-16 16v12c0 8.8 7.2 16 16 16s16-7.2 16-16v-12c0-8.8-7.2-16-16-16zM259.1 63.5c-8.8 0-16 7.2-16 16v12c0 8.8 7.2 16 16 16s16-7.2 16-16v-12c0-8.8-7.2-16-16-16zM352.2 63.5c-8.8 0-16 7.2-16 16v12c0 8.8 7.2 16 16 16s16-7.2 16-16v-12c0-8.8-7.1-16-16-16zM432.5 63.5c-8.8 0-16 7.2-16 16v12c0 8.8 7.2 16 16 16s16-7.2 16-16v-12c0-8.8-7.2-16-16-16zM842.6 69.5h-164c-8.8 0-16 7.2-16 16s7.2 16 16 16h164c8.8 0 16-7.2 16-16s-7.1-16-16-16z"  horiz-adv-x="1024" />

    
    <glyph glyph-name="yichangliuliangganzhi-" unicode="&#58893;" d="M512-58.1c-60.5 0-119.1 11.8-174.4 35.2-53.3 22.6-101.3 54.9-142.4 96-41.1 41.1-73.4 89-96 142.4C75.8 270.7 64 329.4 64 389.9S75.8 509 99.2 564.3c22.6 53.3 54.9 101.3 96 142.4 41.1 41.1 89 73.4 142.4 96C392.8 826 451.5 837.9 512 837.9S631.1 826 686.4 802.7c53.3-22.6 101.3-54.9 142.4-96 41.1-41.1 73.4-89 96-142.4C948.1 509 960 450.4 960 389.9s-11.8-119.1-35.2-174.4c-22.6-53.3-54.9-101.3-96-142.4-41.1-41.1-89-73.4-142.4-96-55.3-23.4-113.9-35.2-174.4-35.2z m0 864c-229.4 0-416-186.6-416-416s186.6-416 416-416 416 186.6 416 416-186.6 416-416 416zM460.1 599c-7 1.9-14.4-1.1-18-7.4L368 465.3c-2.9-5-2.9-11.1-0.1-16.1 2.9-5 8.2-8 13.9-8l58 0.2v-245.2c0-8.8 7.2-16 16-16s16 7.2 16 16V457.4 583.6c0.2 7.2-4.7 13.5-11.7 15.4zM656 330.6c-2.9 5-8.2 8-13.9 8l-58-0.2V583.6c0 8.8-7.2 16-16 16s-16-7.2-16-16v-387.4c0-7.2 4.8-13.6 11.8-15.5 1.4-0.4 2.8-0.6 4.2-0.6 5.6 0 10.9 2.9 13.8 7.9L656 314.4c2.8 5.1 2.9 11.2 0 16.2z"  horiz-adv-x="1024" />

    
    <glyph glyph-name="wanglujiankongdaping-" unicode="&#58894;" d="M895.2 177.7H130.8c-36.3 0-65.8 29.5-65.8 65.8V766c0 36.3 29.5 65.8 65.8 65.8h764.4c36.3 0 65.8-29.5 65.8-65.8v-522.5c0-36.3-29.5-65.8-65.8-65.8zM130.8 799.9c-18.7 0-33.9-15.2-33.9-33.9v-522.5c0-18.7 15.2-33.9 33.9-33.9h764.4c18.7 0 33.9 15.2 33.9 33.9V766c0 18.7-15.2 33.9-33.9 33.9H130.8zM945 17.4H81c-8.8 0-16 7.1-16 16 0 8.8 7.1 16 16 16h864c8.8 0 16-7.1 16-16s-7.1-16-16-16zM513 17.4c-8.8 0-16 7.1-16 16v66.4c0 8.8 7.1 16 16 16 8.8 0 16-7.1 16-16v-66.4c0-8.9-7.2-16-16-16zM515.6 375.4c-62.6 0-121.2 16.9-174.1 50.3-45.4 28.6-74.6 62-87.9 79.3l-7.5 9.8 7.5 9.8c13.3 17.3 42.5 50.7 87.9 79.3 53 33.4 111.5 50.3 174.1 50.3 102.2 0 192.7-44.7 261.8-129.3l8.3-10.1-8.3-10.1c-69.1-84.6-159.6-129.3-261.8-129.3zM286.9 514.8c29.4-34.5 106.2-107.4 228.8-107.4 88.1 0 166.8 37.1 228.4 107.4-61.6 70.3-140.3 107.4-228.4 107.4-122.6 0-199.4-72.9-228.8-107.4zM515.6 514.8m-75.9 0a75.9 75.9 0 1 1 151.8 0 75.9 75.9 0 1 1-151.8 0Z"  horiz-adv-x="1024" />

    
    <glyph glyph-name="yingyongjiankongdaping-" unicode="&#58895;" d="M895.2 137.5H130.8C94.5 137.5 65 167 65 203.3V725.8c0 36.3 29.5 65.8 65.8 65.8h764.4c36.3 0 65.8-29.5 65.8-65.8v-522.5c0-36.3-29.5-65.8-65.8-65.8zM130.8 759.7c-18.7 0-33.9-15.2-33.9-33.9v-522.5c0-18.7 15.2-33.9 33.9-33.9h764.4c18.7 0 33.9 15.2 33.9 33.9V725.8c0 18.7-15.2 33.9-33.9 33.9H130.8zM946.4-24.1H79.6c-8.8 0-16 7.2-16 16s7.2 16 16 16h866.8c8.8 0 16-7.2 16-16s-7.2-16-16-16zM513-22.8c-8.8 0-16 7.1-16 16v66.4c0 8.8 7.1 16 16 16 8.8 0 16-7.1 16-16v-66.4c-0.1-8.9-7.2-16-16-16zM720.5 656.9c-30 0-54.3-24.3-54.3-54.3 0-9.3 2.4-18.1 6.5-25.8L537.3 442.6c-6 2.8-12.7 4.4-19.8 4.4-8.2 0-15.8-2.1-22.5-5.7l-65.4 66c3.2 6.1 5.1 13 5.1 20.3 0 23.9-19.4 43.3-43.3 43.3s-43.3-19.4-43.3-43.3c0-6 1.2-11.8 3.5-17l-79.2-79.2c-4.6 2.2-9.7 3.4-15 3.4-19.4 0-35.1-15.7-35.1-35.1 0-19.4 15.7-35.1 35.1-35.1 19.4 0 35.1 15.7 35.1 35.1 0 2.1-0.2 4.1-0.5 6.1l82.1 82.1c5.3-2.3 11.2-3.7 17.4-3.7 4.8 0 9.5 0.8 13.8 2.3l68.5-69.2c-2.2-5.5-3.5-11.5-3.5-17.8 0-26.1 21.2-47.3 47.3-47.3 26.1 0 47.3 21.2 47.3 47.3 0 7.4-1.7 14.4-4.7 20.6l135.4 134.2c7.5-3.9 16-6.1 25-6.1 30 0 54.3 24.3 54.3 54.3-0.1 30.1-24.4 54.4-54.4 54.4z"  horiz-adv-x="1024" />

    
    <glyph glyph-name="wanglujiankong-" unicode="&#58896;" d="M486.2-4.1c-6.8 2.7-13.6 6.4-20.3 11-3.8 2.2-7.5 4.5-11.3 6.8-46 29-76.8 62.6-92.7 82.4 0.3-0.7 0.6-1.3 0.9-2 18.1-40.2 39.2-72 62.4-94.8-67.9 14.5-131.2 45.7-184.4 91.5 0.2 0.1 0.3 0.3 0.5 0.4 2.1 1.8 4.1 3.5 6.2 5.2 0.3 0.3 0.6 0.5 0.9 0.8 2.1 1.7 4.2 3.4 6.4 5.1 0.3 0.2 0.6 0.4 0.9 0.7l6.6 5.1c0.2 0.2 0.4 0.3 0.7 0.5l6.9 5.1c0.1 0.1 0.2 0.1 0.3 0.2 2.4 1.7 4.9 3.4 7.3 5.1 2.4 1.7 4.9 3.3 7.3 4.9 0.2 0.1 0.3 0.2 0.5 0.3 2.4 1.5 4.8 3.1 7.2 4.5 0.2 0.2 0.5 0.3 0.7 0.5 2.3 1.5 4.7 2.9 7.1 4.3 0.3 0.2 0.6 0.4 0.9 0.5 2.3 1.4 4.7 2.7 7.1 4.1 0.3 0.2 0.7 0.4 1 0.5 2.4 1.3 4.8 2.6 7.1 3.9 0.3 0.2 0.6 0.3 1 0.5 2.4 1.3 4.8 2.5 7.3 3.8 0.3 0.1 0.6 0.3 0.9 0.4 2.5 1.2 5 2.5 7.5 3.7 0.2 0.1 0.4 0.2 0.7 0.3 2.1 1 4.3 2 6.4 3 1.4-4.5 2.9-8.9 4.3-13.2l14 18.1c9.3 12.1 25.7 31.3 49.1 51.8-0.2-0.1-0.5-0.1-0.7-0.2-1.1-0.3-2.1-0.5-3.2-0.8-0.6-0.1-1.2-0.3-1.8-0.4-1.6-0.4-3.3-0.8-4.9-1.3-0.6-0.2-1.3-0.3-1.9-0.5-1-0.3-2-0.5-3.1-0.8-0.7-0.2-1.4-0.4-2.2-0.6-0.9-0.3-1.8-0.5-2.8-0.8-0.8-0.2-1.5-0.4-2.3-0.7-0.9-0.3-1.7-0.5-2.6-0.8-0.8-0.2-1.6-0.5-2.3-0.7-0.8-0.3-1.7-0.5-2.5-0.8-0.8-0.2-1.6-0.5-2.4-0.8-0.8-0.3-1.7-0.5-2.5-0.8-0.8-0.3-1.6-0.5-2.4-0.8-0.8-0.3-1.7-0.6-2.5-0.8-0.8-0.3-1.6-0.5-2.4-0.8-0.8-0.3-1.7-0.6-2.5-0.9l-1.8-0.6c-14.9 58.3-23.3 124.1-24.4 192.9h159.1l0.1-121.5c10.5 4.9 21.1 9.2 31.9 13l0.2 108.6h164.6c-0.5-31-2.5-61.5-5.9-90.9 10.6-1.2 21.1-2.8 31.5-4.9 3.6 31 5.8 63.1 6.3 95.8H927c-2.4-61.7-18.7-121.8-46.8-176 8.3-7.1 16.4-14.7 24.3-22.7 6 10.9 11.5 22 16.5 33.5 25.3 57.2 38.2 118.1 38.2 181.1 0 63.4-13 124.8-38.7 182.2C898 638.4 867 683.5 828 722.4l0.2 0.2-12.6 11.7-10.8 10-0.2-0.2C723.3 814.8 619.8 853.4 511.7 853.4c-108.1 0-211.6-38.7-292.9-109.2l-0.2 0.2-10.8-10-12.6-11.7 0.2-0.2c-38.9-38.9-70-84-92.5-134.3C77.2 530.7 64.2 469.4 64.2 406c0-63 12.8-124 38.2-181.1 22.2-50 52.9-95 91.4-133.8l-0.2-0.2 12.4-11.6 10.9-10.2 0.2 0.2c81.6-71.5 185.6-110.7 294.6-110.7h5.1c18.2 0.2 36.2 1.5 54 3.9-7.9 2.9-15.8 6.2-23.5 9.7-21 5.9-41.3 13.8-61.1 23.7z m41.4 426l-0.1 170.3c1.3 0 2.5 0.1 3.8 0.2h0.9c3 0.1 6 0.3 9.1 0.5 0.4 0 0.8 0 1.1 0.1 3 0.2 5.9 0.4 8.9 0.7 0.4 0 0.8 0.1 1.3 0.1l8.7 0.9c0.4 0 0.9 0.1 1.3 0.1 2.9 0.3 5.8 0.7 8.7 1.1 0.4 0.1 0.9 0.1 1.3 0.2 2.9 0.4 5.8 0.8 8.7 1.3 0.4 0.1 0.8 0.1 1.2 0.2l8.7 1.5c0.4 0.1 0.7 0.1 1.1 0.2 3 0.5 5.9 1.1 8.8 1.7 0.3 0.1 0.6 0.1 0.8 0.2 3 0.6 6 1.3 9 1.9 0.2 0 0.3 0.1 0.5 0.1 6.3 1.4 12.5 3 18.7 4.7 0.1 0 0.2 0 0.2 0.1 3 0.8 6 1.7 9.1 2.6 0.2 0.1 0.4 0.1 0.6 0.2l8.7 2.7 0.9 0.3c2.8 0.9 5.7 1.9 8.5 2.8 0.3 0.1 0.7 0.2 1 0.3 2.5 0.9 4.9 1.7 7.3 2.6C682.1 560 691 492.6 692.2 422H527.6z m260.9 265.9c0.3 0.2 0.6 0.5 0.9 0.7 2.3 1.9 4.7 3.7 7 5.6 0.3 0.2 0.5 0.4 0.8 0.7 2.3 1.9 4.7 3.9 7 5.9l0.2 0.2c74.5-74 118.5-174.2 122.5-279H724.2c-1.2 74.9-10.8 146.6-27.9 209.7 2.7 1.2 5.4 2.5 8 3.7 0.2 0.1 0.5 0.2 0.7 0.3 2.8 1.3 5.5 2.7 8.3 4.1 0.1 0.1 0.3 0.2 0.4 0.2 2.8 1.4 5.7 2.9 8.5 4.4 2.9 1.5 5.8 3.1 8.6 4.7h0.1c2.8 1.6 5.5 3.2 8.3 4.8 0.2 0.1 0.3 0.2 0.5 0.3 2.6 1.6 5.3 3.2 7.9 4.8 0.2 0.2 0.5 0.3 0.7 0.5 2.5 1.6 5.1 3.2 7.6 4.9l0.9 0.6c2.5 1.6 4.9 3.3 7.4 4.9 0.3 0.2 0.7 0.5 1 0.7l7.2 5.1c0.3 0.2 0.7 0.5 1 0.7 2.4 1.7 4.7 3.5 7.1 5.2 0.3 0.3 0.7 0.5 1 0.8 2.4 1.9 4.7 3.7 7 5.5z m-7.7 34.9c-0.1-0.1-0.3-0.2-0.4-0.4-2-1.7-4.1-3.4-6.2-5.1-0.3-0.3-0.7-0.5-1-0.8-2.1-1.7-4.2-3.4-6.3-5-0.3-0.3-0.6-0.5-1-0.8-2.1-1.7-4.3-3.3-6.4-4.9l-0.9-0.6c-2.2-1.6-4.5-3.3-6.7-4.9-0.2-0.1-0.4-0.3-0.6-0.4-2.3-1.7-4.7-3.3-7.1-4.9-0.1 0-0.1-0.1-0.2-0.1-2.4-1.6-4.8-3.2-7.2-4.7-0.1-0.1-0.3-0.2-0.4-0.3-2.4-1.5-4.7-3-7.1-4.5-0.3-0.2-0.5-0.3-0.8-0.5-2.3-1.4-4.6-2.8-7-4.2-0.3-0.2-0.7-0.4-1-0.6l-6.9-3.9c-0.4-0.2-0.7-0.4-1.1-0.6-2.3-1.3-4.6-2.5-6.9-3.8-0.4-0.2-0.8-0.4-1.1-0.6-2.3-1.2-4.7-2.4-7-3.6-0.4-0.2-0.7-0.4-1.1-0.5-2.4-1.2-4.8-2.4-7.2-3.5-0.3-0.1-0.6-0.3-0.9-0.4-0.4-0.2-0.7-0.3-1.1-0.5-6.3 19.3-13.2 37.6-21 54.7-17.8 39.5-38.5 71.1-61.3 93.7 64.5-14.8 124.7-44.8 175.9-88.3zM579 791.6c21.6-20.3 41.1-49.7 58-87.4 7.6-16.9 14.4-35 20.5-54-0.6-0.2-1.2-0.4-1.7-0.7l-0.9-0.3c-2.5-0.9-5.1-1.8-7.6-2.7-0.4-0.1-0.7-0.3-1.1-0.4-2.5-0.9-5-1.7-7.5-2.5-0.4-0.1-0.8-0.3-1.2-0.4-2.5-0.8-5-1.6-7.5-2.3-0.4-0.1-0.8-0.2-1.2-0.4-2.5-0.7-5.1-1.5-7.6-2.2l-1.2-0.3c-2.6-0.7-5.2-1.4-7.8-2-0.3-0.1-0.7-0.2-1-0.2-2.7-0.7-5.4-1.3-8-1.9-0.2 0-0.4-0.1-0.7-0.1l-8.4-1.8h-0.1c-2.8-0.6-5.7-1.1-8.5-1.6-0.2 0-0.4-0.1-0.6-0.1-2.7-0.5-5.5-0.9-8.2-1.4-0.3-0.1-0.6-0.1-1-0.2-2.7-0.4-5.4-0.8-8-1.2-0.4-0.1-0.8-0.1-1.2-0.2-2.6-0.3-5.3-0.7-8-1-0.4 0-0.9-0.1-1.3-0.1-2.6-0.3-5.3-0.6-7.9-0.8-0.4 0-0.9-0.1-1.3-0.1-2.7-0.2-5.3-0.4-8-0.6-0.4 0-0.8-0.1-1.2-0.1-2.7-0.2-5.4-0.3-8.2-0.5h-1c-0.7 0-1.4 0-2.1-0.1l-0.2 196c17.6-3.1 34.9-12.7 51.7-28.4z m-83.3-369.7H336.6c1.2 69.9 9.9 136.7 25.3 195.7 0.8-0.3 1.5-0.5 2.3-0.8 0.3-0.1 0.7-0.2 1-0.3 2.8-1 5.7-1.9 8.5-2.8l0.9-0.3 8.7-2.7c0.2-0.1 0.4-0.1 0.6-0.2 3-0.9 6-1.8 9.1-2.6 0.1 0 0.2 0 0.2-0.1 6.2-1.7 12.5-3.3 18.8-4.7 0.2 0 0.3-0.1 0.5-0.1 3-0.7 6-1.3 9-1.9 0.3-0.1 0.6-0.1 0.8-0.2 2.9-0.6 5.9-1.2 8.8-1.7 0.4-0.1 0.7-0.1 1.1-0.2l8.7-1.5c0.4-0.1 0.8-0.1 1.2-0.2 2.9-0.5 5.8-0.9 8.7-1.3 0.4-0.1 0.9-0.1 1.3-0.2 2.9-0.4 5.8-0.7 8.7-1.1 0.4 0 0.9-0.1 1.3-0.1l8.7-0.9c0.4 0 0.8-0.1 1.3-0.1 2.9-0.3 5.9-0.5 8.9-0.7 0.4 0 0.8 0 1.1-0.1 3-0.2 6-0.4 9.1-0.5h0.9c1.2-0.1 2.3-0.1 3.5-0.1l0.1-170.3z m-45.8 369.7c14.8 13.9 30 23 45.5 27l0.2-194.5c-0.6 0-1.2 0-1.7 0.1h-1c-2.7 0.1-5.4 0.3-8.2 0.5-0.4 0-0.8 0.1-1.2 0.1-2.7 0.2-5.3 0.4-8 0.6-0.4 0-0.9 0.1-1.3 0.1-2.7 0.2-5.3 0.5-7.9 0.8-0.4 0-0.9 0.1-1.3 0.1-2.7 0.3-5.3 0.6-8 1-0.4 0.1-0.8 0.1-1.2 0.2-2.7 0.4-5.4 0.7-8 1.2-0.3 0-0.6 0.1-1 0.2-2.8 0.4-5.5 0.9-8.2 1.4-0.2 0-0.4 0.1-0.6 0.1-2.8 0.5-5.7 1-8.5 1.6h-0.1l-8.4 1.8c-0.2 0-0.4 0.1-0.7 0.1-2.7 0.6-5.4 1.2-8 1.9-0.3 0.1-0.7 0.2-1 0.2-2.6 0.6-5.2 1.3-7.8 2l-1.2 0.3c-2.5 0.7-5.1 1.4-7.6 2.2-0.4 0.1-0.8 0.2-1.2 0.4-2.5 0.7-5 1.5-7.5 2.3-0.4 0.1-0.8 0.3-1.2 0.4-2.5 0.8-5 1.6-7.5 2.5-0.4 0.1-0.7 0.3-1.1 0.4-1.8 0.6-3.5 1.2-5.3 1.9 6.2 19.8 13.3 38.4 21.1 55.8 16.8 37.6 36.4 67 57.9 87.3z m-24.2 21c-23.4-22.8-44.7-54.8-62.9-95.3-8-17.8-15.2-36.9-21.7-56.9-2 0.9-3.9 1.8-5.9 2.7-0.3 0.1-0.6 0.3-1 0.4-2.4 1.1-4.8 2.3-7.2 3.5-0.4 0.2-0.7 0.4-1.1 0.5-2.4 1.2-4.7 2.4-7 3.6l-1.2 0.6c-2.3 1.2-4.6 2.5-6.9 3.8-0.4 0.2-0.7 0.4-1.1 0.6l-6.9 3.9c-0.3 0.2-0.7 0.4-1 0.6-2.3 1.4-4.7 2.8-7 4.2-0.3 0.2-0.5 0.3-0.8 0.5-2.4 1.5-4.7 2.9-7.1 4.5-0.1 0.1-0.3 0.2-0.4 0.3-2.4 1.6-4.8 3.1-7.2 4.7-0.1 0-0.1 0.1-0.2 0.1-2.4 1.6-4.7 3.2-7.1 4.9-0.2 0.1-0.4 0.3-0.6 0.4-2.2 1.6-4.5 3.2-6.7 4.9l-0.9 0.6c-2.2 1.6-4.3 3.2-6.4 4.9-0.3 0.3-0.7 0.5-1 0.8-2.1 1.6-4.2 3.3-6.3 5-0.3 0.3-0.7 0.5-1 0.8-2.1 1.7-4.1 3.4-6.2 5.1-0.1 0.1-0.3 0.2-0.4 0.4 53.1 45 115.9 75.7 183.2 89.9zM219 700.9l0.2-0.2c2.3-2 4.6-4 7-5.9 0.3-0.2 0.5-0.4 0.8-0.7 2.3-1.9 4.6-3.8 7-5.6 0.3-0.2 0.6-0.5 0.9-0.7 2.3-1.8 4.7-3.6 7-5.4 0.3-0.3 0.7-0.5 1-0.8 2.3-1.8 4.7-3.5 7.1-5.2 0.3-0.2 0.7-0.5 1-0.7l7.2-5.1c0.3-0.2 0.7-0.5 1-0.7 2.4-1.7 4.9-3.3 7.4-5l0.9-0.6c2.5-1.6 5.1-3.3 7.6-4.9 0.2-0.2 0.5-0.3 0.7-0.4 2.6-1.6 5.2-3.2 7.9-4.8 0.2-0.1 0.3-0.2 0.5-0.3 2.7-1.6 5.5-3.2 8.3-4.8h0.1c2.9-1.6 5.7-3.2 8.6-4.7 2.8-1.5 5.7-3 8.5-4.4 0.1-0.1 0.3-0.1 0.4-0.2 2.8-1.4 5.5-2.8 8.3-4.1 0.2-0.1 0.5-0.2 0.7-0.3 2.7-1.3 5.5-2.6 8.2-3.8 0.3-0.1 0.6-0.3 0.9-0.4 1.3-0.6 2.6-1.1 3.9-1.7C315.4 566.9 306 496 304.8 422H96.4c4.1 104.7 48.1 204.9 122.6 278.9z m18.7-571.5c-0.8-0.6-1.5-1.2-2.3-1.8-0.6-0.5-1.2-0.9-1.8-1.4-0.8-0.6-1.5-1.2-2.3-1.9-0.6-0.5-1.1-0.9-1.7-1.4-0.8-0.6-1.6-1.3-2.3-1.9-0.6-0.5-1.1-0.9-1.7-1.4-0.8-0.7-1.6-1.3-2.4-2-0.5-0.4-1.1-0.9-1.6-1.3-0.8-0.7-1.7-1.4-2.5-2.1-0.5-0.4-1-0.8-1.5-1.3l-0.3-0.3C143.9 186.4 100.5 286 96.4 390h208.3c1.2-72.9 10.3-142.8 26.5-204.7-0.5-0.2-1.1-0.5-1.6-0.7-0.8-0.3-1.5-0.7-2.3-1-0.8-0.4-1.6-0.7-2.4-1.1-0.7-0.3-1.5-0.7-2.2-1-0.8-0.4-1.6-0.8-2.4-1.1-0.7-0.3-1.5-0.7-2.2-1l-2.4-1.2c-0.7-0.4-1.4-0.7-2.2-1.1-0.8-0.4-1.7-0.8-2.5-1.2-0.7-0.3-1.4-0.7-2.1-1-0.9-0.4-1.7-0.9-2.6-1.3-0.7-0.3-1.3-0.7-2-1-0.9-0.5-1.9-1-2.8-1.5-0.6-0.3-1.2-0.6-1.7-0.9l-4.5-2.4c-0.3-0.2-0.7-0.4-1-0.6-1.2-0.6-2.3-1.3-3.5-1.9-0.6-0.3-1.1-0.7-1.7-1-0.9-0.5-1.8-1-2.7-1.6-0.6-0.4-1.3-0.7-1.9-1.1-0.8-0.5-1.7-1-2.5-1.5-0.6-0.4-1.3-0.8-1.9-1.2-0.8-0.5-1.6-1-2.5-1.5-0.7-0.4-1.3-0.8-2-1.2l-2.4-1.5c-0.7-0.4-1.3-0.8-2-1.2l-2.4-1.5c-0.7-0.4-1.3-0.9-2-1.3-0.8-0.5-1.6-1-2.3-1.5-0.7-0.4-1.3-0.9-2-1.3-0.8-0.5-1.6-1-2.3-1.6-0.6-0.4-1.3-0.9-1.9-1.3-0.8-0.5-1.5-1.1-2.3-1.6-0.6-0.4-1.3-0.9-1.9-1.4-0.8-0.5-1.5-1.1-2.3-1.6-0.6-0.5-1.3-0.9-1.9-1.4-0.8-0.6-1.5-1.1-2.3-1.7-0.6-0.5-1.2-0.9-1.9-1.4-0.8-0.6-1.5-1.1-2.3-1.7-0.6-0.5-1.2-0.9-1.8-1.4-0.8-0.6-1.5-1.2-2.3-1.8-0.4-0.6-1-1.1-1.6-1.6zM669-22.8c-62.6 0-121.2 16.9-174.1 50.3-45.4 28.6-74.6 62-87.9 79.3l-7.5 9.8 7.5 9.8c13.3 17.3 42.5 50.7 87.9 79.3 53 33.4 111.5 50.3 174.1 50.3 102.2 0 192.7-44.7 261.8-129.3l8.3-10.1-8.3-10.1C861.6 21.9 771.1-22.8 669-22.8zM440.2 116.7c29.4-34.5 106.2-107.4 228.8-107.4 88.1 0 166.8 37.1 228.4 107.4C835.8 187 757.1 224.1 669 224.1c-122.6 0-199.4-73-228.8-107.4zM669 116.7m-75.9 0a75.9 75.9 0 1 1 151.8 0 75.9 75.9 0 1 1-151.8 0Z"  horiz-adv-x="1024" />

    
    <glyph glyph-name="yonghuanquantaishi-" unicode="&#58897;" d="M513.1-66.6l-5.8 2.2c-81.6 31.6-149.8 68.9-202.7 110.9-42.9 34.1-76.1 71.4-98.4 110.9-36 63.5-32.7 112.7-31.8 121.7l-1.7 443.7 18.2-2.3c0.4 0 42.4-5 101.5 5.5 54.2 9.7 134.5 34.7 209.1 99.4l4.5 3.9h12.1l4.5-3.9c74.6-64.6 154.9-89.7 209.1-99.4 59.1-10.5 101.1-5.6 101.5-5.5l18.1 2.2v-18.3l-1.6-425.3c1.1-9.3 4.7-58.4-30.7-121.7-22.1-39.5-54.9-76.9-97.7-111-52.7-42-120.8-79.3-202.4-110.9l-5.8-2.1zM206.4 275.9c-0.2-1.8-5.1-46.1 29.2-105.1 32.3-55.6 106.6-135.6 277.5-202.9 170.8 67.2 244.6 147.2 276.4 202.8 33.8 58.9 28.4 103.3 28.2 105l-0.2 1.3v1.2l1.6 409.1c-19-0.7-51.5-0.2-91.7 6.8-37.2 6.5-73.5 17.4-107.7 32.4-38.6 16.9-74.8 39-107.6 65.8-32.8-26.8-69-48.9-107.6-65.8-34.2-14.9-70.4-25.8-107.7-32.4-40.2-7.1-72.7-7.5-91.7-6.8l1.6-410.4-0.3-1zM722.2 520.1c-3.5 3.1-8.1 4.6-12.7 4.1l-69.2-8.2c-8.9-1.1-15.1-9.1-14.1-17.9 1.1-8.8 9.1-15.1 17.9-14.1l27.9 3.3-162.8-173.7-80.5 78.9c-6.4 6.2-16.5 6.1-22.8-0.2L279.7 263.6c-6.2-6.3-6.1-16.5 0.2-22.8 3.1-3.1 7.2-4.6 11.3-4.6 4.2 0 8.3 1.6 11.5 4.8l114.9 117.2 80.8-79.2c3.1-3 7.3-4.7 11.6-4.6 4.3 0.1 8.4 1.9 11.4 5.1l172.8 184.2-0.6-25.2c-0.2-8.9 6.8-16.3 15.7-16.5 0.8 0 1.7 0 2.5 0.1 7.7 1 13.8 7.5 14 15.6l1.7 69.9c0.1 4.8-1.8 9.3-5.3 12.5z"  horiz-adv-x="1024" />

    
    <glyph glyph-name="yingyongjiankong-" unicode="&#58898;" d="M894.3 158.7H129.9c-36.3 0-65.8 29.5-65.8 65.8V747c0 36.3 29.5 65.8 65.8 65.8h764.4c36.3 0 65.8-29.5 65.8-65.8v-522.5c0-36.3-29.5-65.8-65.8-65.8zM129.9 780.9c-18.7 0-33.9-15.2-33.9-33.9v-522.5c0-18.7 15.2-33.9 33.9-33.9h764.4c18.7 0 33.9 15.2 33.9 33.9V747c0 18.7-15.2 33.9-33.9 33.9H129.9zM944.1-1.6h-864c-8.8 0-16 7.1-16 16s7.1 16 16 16h864.1c8.8 0 16-7.1 16-16s-7.2-16-16.1-16zM512.1-1.6c-8.8 0-16 7.1-16 16v66.4c0 8.8 7.1 16 16 16 8.8 0 16-7.1 16-16v-66.4c0-8.9-7.2-16-16-16zM479.1 489.5H373.8c-12.2 0-22 9.9-22 22V616.8c0 12.2 9.9 22 22 22H479c12.2 0 22-9.9 22-22v-105.2c0.1-12.2-9.8-22.1-21.9-22.1zM373.8 619.2c-1.4 0-2.4-1.1-2.4-2.4v-105.2c0-1.4 1.1-2.4 2.4-2.4H479c1.4 0 2.4 1.1 2.4 2.4V616.8c0 1.4-1.1 2.4-2.4 2.4H373.8zM479.1 329.4H373.8c-12.2 0-22 9.9-22 22V456.7c0 12.2 9.9 22 22 22H479c12.2 0 22-9.9 22-22v-105.2c0.1-12.2-9.8-22.1-21.9-22.1zM373.8 459.1c-1.4 0-2.4-1.1-2.4-2.4v-105.2c0-1.4 1.1-2.4 2.4-2.4H479c1.4 0 2.4 1.1 2.4 2.4V456.7c0 1.4-1.1 2.4-2.4 2.4H373.8zM643.4 329.4H538.2c-12.2 0-22 9.9-22 22V456.7c0 12.2 9.9 22 22 22h105.2c12.2 0 22-9.9 22-22v-105.2c0.1-12.2-9.8-22.1-22-22.1zM538.2 459.1c-1.4 0-2.4-1.1-2.4-2.4v-105.2c0-1.4 1.1-2.4 2.4-2.4h105.2c1.4 0 2.4 1.1 2.4 2.4V456.7c0 1.4-1.1 2.4-2.4 2.4H538.2zM607.9 494.6c-5.6 0-11.3 2.1-15.6 6.4l-74.4 74.4c-8.6 8.6-8.6 22.6 0 31.2l74.4 74.4c8.6 8.6 22.6 8.6 31.2 0l74.4-74.4c8.6-8.6 8.6-22.6 0-31.2L623.5 501c-4.3-4.3-10-6.4-15.6-6.4z m-1.8 20.3c1-1 2.5-1 3.5 0l74.4 74.4c0.6 0.6 0.7 1.3 0.7 1.7 0 0.5-0.1 1.1-0.7 1.7l-74.4 74.4c-1 1-2.5 1-3.5 0l-74.4-74.4c-1-1-1-2.5 0-3.5l74.4-74.3z"  horiz-adv-x="1024" />

    
    <glyph glyph-name="xunizichan-" unicode="&#58899;" d="M79.2 598.4h858.2c8.8 0 15.9 7.1 15.9 15.9V769.2c0 8.8-7.1 15.9-15.9 15.9H79.2c-8.8 0-15.9-7.1-15.9-15.9v-154.9c0-8.8 7.1-15.9 15.9-15.9z m15.9 154.9h826.4v-123.2H95.1V753.3zM163.9 711.6c-8.8 0-15.9-7.1-15.9-15.9v-11.9c0-8.8 7.1-15.9 15.9-15.9s15.9 7.1 15.9 15.9v11.9c0 8.8-7.1 15.9-15.9 15.9zM257.1 711.6c-8.8 0-15.9-7.1-15.9-15.9v-11.9c0-8.8 7.1-15.9 15.9-15.9S273 675 273 683.8v11.9c0 8.8-7.2 15.9-15.9 15.9zM349.6 711.6c-8.8 0-15.9-7.1-15.9-15.9v-11.9c0-8.8 7.1-15.9 15.9-15.9s15.9 7.1 15.9 15.9v11.9c0 8.8-7.1 15.9-15.9 15.9zM429.3 711.6c-8.8 0-15.9-7.1-15.9-15.9v-11.9c0-8.8 7.1-15.9 15.9-15.9s15.9 7.1 15.9 15.9v11.9c0 8.8-7.1 15.9-15.9 15.9zM836.7 705.6H673.8c-8.8 0-15.9-7.1-15.9-15.9s7.1-15.9 15.9-15.9h162.9c8.8 0 15.9 7.1 15.9 15.9s-7.1 15.9-15.9 15.9zM95.1 336.9V460h826.4v-123.2h-57.4c16.1-8.1 31-18.8 43.9-31.8h29.4c8.8 0 15.9 7.1 15.9 15.9v155c0 8.8-7.1 15.9-15.9 15.9H79.2c-8.8 0-15.9-7.1-15.9-15.9V321c0-8.8 7.1-15.9 15.9-15.9h433.5c1.8 10.9 4.7 21.6 8.7 31.8H95.1zM163.9 418.3c-8.8 0-15.9-7.1-15.9-15.9v-11.9c0-8.8 7.1-15.9 15.9-15.9s15.9 7.1 15.9 15.9v11.9c0 8.8-7.1 15.9-15.9 15.9zM257.1 418.3c-8.8 0-15.9-7.1-15.9-15.9v-11.9c0-8.8 7.1-15.9 15.9-15.9s15.9 7.1 15.9 15.9v11.9c0 8.8-7.2 15.9-15.9 15.9zM349.6 418.3c-8.8 0-15.9-7.1-15.9-15.9v-11.9c0-8.8 7.1-15.9 15.9-15.9s15.9 7.1 15.9 15.9v11.9c0 8.8-7.1 15.9-15.9 15.9zM429.3 418.3c-8.8 0-15.9-7.1-15.9-15.9v-11.9c0-8.8 7.1-15.9 15.9-15.9s15.9 7.1 15.9 15.9v11.9c0 8.8-7.1 15.9-15.9 15.9zM163.9 125.1c-8.8 0-15.9-7.1-15.9-15.9v-11.9c0-8.8 7.1-15.9 15.9-15.9s15.9 7.1 15.9 15.9v11.9c0 8.7-7.1 15.9-15.9 15.9zM257.1 125.1c-8.8 0-15.9-7.1-15.9-15.9v-11.9c0-8.8 7.1-15.9 15.9-15.9s15.9 7.1 15.9 15.9v11.9c0 8.7-7.2 15.9-15.9 15.9zM349.6 125.1c-8.8 0-15.9-7.1-15.9-15.9v-11.9c0-8.8 7.1-15.9 15.9-15.9s15.9 7.1 15.9 15.9v11.9c0 8.7-7.1 15.9-15.9 15.9zM430.2 43.6H95.1V166.8h276.7c0.5 11 2.3 21.6 5.1 31.8H79.2c-8.8 0-15.9-7.1-15.9-15.9v-155c0-8.8 7.1-15.9 15.9-15.9h425.6c-2.6 1.5-5.1 3-7.5 4.5-24.9 3.4-47.8 13-67.1 27.3zM816.3 12.8h-224c-67.4 0-122.2 54.8-122.2 122.2 0 65.6 51.9 119.2 116.8 122.1 5.2 29 19.5 55.6 41.3 76 25.6 24 59.1 37.3 94.2 37.3 51.6 0 98.6-28.8 122.2-74.2 30.6-6.1 58.5-22.2 79.3-45.9 22.9-26.1 35.6-59.6 35.6-94.4-0.2-78.9-64.4-143.1-143.2-143.1z m-224 212.6c-49.9 0-90.4-40.6-90.4-90.4 0-49.9 40.6-90.4 90.4-90.4h224c61.4 0 111.3 49.9 111.3 111.3 0 55.3-41.3 102.7-96 110.2l-8.8 1.2-3.6 8.1c-17 38.3-55 63.1-96.9 63.1-55.5 0-101.9-43.3-105.6-98.7l-1.1-16.1-16 1.3c-2.5 0.3-4.9 0.4-7.3 0.4z"  horiz-adv-x="1024" />

    
    <glyph glyph-name="yonghushangwanghangwei-" unicode="&#58900;" d="M944.5 394.2H539.3c-8.9 0-16.2 7.2-16.2 16.2V814.8c0 4.3 1.7 8.4 4.7 11.4s7.1 4.7 11.4 4.7c56.8-0.1 111.8-11.3 163.7-33.3 50.1-21.2 95.1-51.5 133.7-90.1C875.3 668.9 905.7 624 927 574c22.1-51.8 33.3-106.8 33.6-163.6 0-4.3-1.7-8.4-4.7-11.5-3-3-7.1-4.7-11.4-4.7z m-389 32.3H928c-9.1 200.8-171.6 363-372.5 371.7v-371.7zM487.9-65.1c-57 0-112.3 11.2-164.4 33.2-50.3 21.3-95.4 51.7-134.2 90.5-38.8 38.8-69.2 83.9-90.5 134.2-22 52.1-33.2 107.4-33.2 164.4s11.2 112.3 33.2 164.4c21.3 50.3 51.7 95.4 90.5 134.2 38.8 38.8 83.9 69.2 134.2 90.5 52.1 22 107.4 33.2 164.4 33.2h0.9c8.9 0 16.1-7.2 16.1-16.2V375h389c8.9 0 16.1-7.2 16.2-16.1v-1.7c0-57-11.2-112.3-33.2-164.4-21.3-50.3-51.7-95.4-90.5-134.2-38.8-38.8-83.9-69.2-134.2-90.5-52-22-107.3-33.2-164.3-33.2z m-15.2 811.9C264.7 738.8 98 567.1 98 357.2c0-215 174.9-389.9 389.9-389.9 210.2 0 382 167.1 389.7 375.4H496c-2.2-1.1-4.6-1.7-7.2-1.7-8.9 0-16.2 7.2-16.2 16.2V746.8z"  horiz-adv-x="1024" />

    
    <glyph glyph-name="yonghuhuaxiang-" unicode="&#58901;" d="M115.8-62.1c4.7-1.1 9.6-1.6 14.6-1.6h767.2c5 0 9.9 0.6 14.6 1.6l10.1 3.2c24.2 9.8 41.4 33.5 41.4 61.2V766.2c0 36.4-29.6 66-66 66H130.4c-36.4 0-66-29.6-66-66v-763.9c0-27.7 17.1-51.4 41.3-61.2l10.1-3.2z m815.8 64.4c0-18.8-15.3-34-34-34h-6.7c-46 39.1-102.4 63.8-152.2 85.6-55 24.1-102.5 44.9-102.5 72.3 0 36.9 12.2 56.9 27.6 82.3 23 37.9 51.6 85.1 51.6 201.4 0 107.3-55.1 158.3-101.3 182.3-49.2 25.5-98 25.8-100 25.8-2.1 0-50.8-0.3-100-25.8-46.2-24-101.3-75-101.3-182.3 0-116.4 28.6-163.7 51.6-201.7 15.4-25.4 27.5-45.4 27.5-82 0-27.6-47.8-48.5-103.1-72.8-49.8-21.7-106-46.4-151.8-85.1h-6.7c-18.8 0-34 15.3-34 34V766.2c0 18.8 15.3 34 34 34h767.2c18.8 0 34-15.3 34-34v-763.9z m-540 222.5c-22 36.4-47 77.6-47 185.1 0 72.8 27.9 124.4 83 153.4 42.4 22.3 85.9 22.7 86.3 22.7 0.4 0 42.9-0.3 85.3-22.2 55.8-28.9 84-80.7 84-153.9 0-107.4-24.9-148.5-46.9-184.8-16.6-27.3-32.2-53.1-32.2-98.9 0-22.9 13.1-42.8 39.9-60.8 21.5-14.4 50.8-27.2 81.7-40.8 35.3-15.4 73.9-32.4 108.8-54.7h-641c34.7 22 73 38.8 108 54.2 31.1 13.7 60.5 26.6 82.1 41.1 27 18.1 40.1 38.1 40.1 61.1 0.1 45.5-15.6 71.2-32.1 98.5z"  horiz-adv-x="1024" />

    
    <glyph glyph-name="yonghuyingyongtaishi-" unicode="&#58902;" d="M391.7 351.8h-290c-19.7 0-35.7 16-35.7 35.7v290c0 19.7 16 35.7 35.7 35.7h290c19.7 0 35.7-16 35.7-35.7v-290c0.1-19.7-16-35.7-35.7-35.7zM101.8 681.5c-2.2 0-4-1.8-4-4v-290c0-2.2 1.8-4 4-4h290c2.2 0 4 1.8 4 4v290c0 2.2-1.8 4-4 4h-290zM391.7-62.7h-290C82-62.7 66-46.7 66-27V263c0 19.7 16 35.7 35.7 35.7h290c19.7 0 35.7-16 35.7-35.7v-290c0.1-19.7-16-35.7-35.7-35.7zM101.8 266.9c-2.2 0-4-1.8-4-4v-290c0-2.2 1.8-4 4-4h290c2.2 0 4 1.8 4 4V263c0 2.2-1.8 4-4 4h-290zM799.8-62.7h-290c-19.7 0-35.7 16-35.7 35.7V263c0 19.7 16 35.7 35.7 35.7h290c19.7 0 35.7-16 35.7-35.7v-290c0.1-19.7-16-35.7-35.7-35.7zM509.9 266.9c-2.2 0-4-1.8-4-4v-290c0-2.2 1.8-4 4-4h290c2.2 0 4 1.8 4 4V263c0 2.2-1.8 4-4 4h-290zM682.3 351.7c-9.5 0-18.5 3.7-25.3 10.5l-205 205c-6.7 6.7-10.5 15.7-10.5 25.3 0 9.5 3.7 18.5 10.5 25.3l205 205c6.7 6.7 15.7 10.5 25.3 10.5 9.5 0 18.5-3.7 25.3-10.5l205-205c6.7-6.7 10.5-15.7 10.5-25.3 0-9.5-3.7-18.5-10.5-25.3l-205-205c-6.8-6.8-15.7-10.5-25.3-10.5z m0 449.8c-0.8 0-1.8-0.2-2.8-1.2l-205-205c-1-1-1.2-2.1-1.2-2.8s0.2-1.8 1.2-2.8l205-205c1-1 2.1-1.2 2.8-1.2s1.8 0.2 2.8 1.2l205 205c1 1 1.2 2.1 1.2 2.8s-0.2 1.8-1.2 2.8l-205 205c-0.9 1-2 1.2-2.8 1.2z"  horiz-adv-x="1024" />

    
    <glyph glyph-name="yonghuzichan-" unicode="&#58903;" d="M515.5 293.3c-3 0-6 0.7-8.8 2.1L76.3 517.1C70 520.4 66 527 66 534.1c0 7.2 4 13.7 10.4 17L506 773.5c5.5 2.9 12.1 2.9 17.6 0l428.1-222.4c6.3-3.3 10.3-9.9 10.3-17 0-7.2-4-13.7-10.3-17L524.4 295.4c-2.8-1.4-5.8-2.1-8.9-2.1zM126.9 534.2L515.5 334l385.7 200.2-386.5 200.7-387.8-200.7zM515.5 127.4c-3 0-6 0.7-8.8 2.1L76.3 351.3c-9.4 4.8-13.1 16.4-8.3 25.8 4.8 9.4 16.4 13.1 25.8 8.3l421.6-217.2L934 385.3c9.4 4.9 21 1.2 25.8-8.2 4.9-9.4 1.2-21-8.2-25.8L524.4 129.6c-2.8-1.4-5.8-2.2-8.9-2.2zM515.5-8.7c-3 0-6 0.7-8.8 2.1L76.3 215.2C66.9 220 63.2 231.6 68 241c4.8 9.4 16.4 13.1 25.8 8.3l421.6-217.2L934 249.2c9.4 4.9 21 1.2 25.8-8.2 4.9-9.4 1.2-21-8.2-25.8L524.4-6.5c-2.8-1.5-5.8-2.2-8.9-2.2z"  horiz-adv-x="1024" />

    
    <glyph glyph-name="zichandaping-" unicode="&#58904;" d="M515.9 424.3c-1.7 0-3.4 0.4-5 1.2L265.1 552.2c-3.6 1.9-5.9 5.6-5.9 9.7s2.3 7.8 5.9 9.7l245.4 127c3.2 1.6 6.9 1.6 10.1 0l244.5-127c3.6-1.9 5.9-5.6 5.9-9.7s-2.3-7.8-5.9-9.7L521 425.6c-1.6-0.8-3.3-1.3-5.1-1.3zM293.9 562l222-114.4 220.3 114.3-220.8 114.7L293.9 562zM515.9 329.6c-1.7 0-3.4 0.4-5 1.2L265.1 457.5c-5.4 2.8-7.5 9.4-4.7 14.7 2.8 5.4 9.4 7.5 14.7 4.7l240.8-124.1 239 124.1c5.4 2.8 12 0.7 14.8-4.7 2.8-5.4 0.7-12-4.7-14.8L521 330.9c-1.6-0.9-3.3-1.3-5.1-1.3zM515.9 251.9c-1.7 0-3.4 0.4-5 1.2L265.1 379.8c-5.4 2.8-7.5 9.4-4.7 14.7 2.8 5.4 9.4 7.5 14.7 4.7l240.8-124.1 239 124.1c5.4 2.8 12 0.7 14.8-4.7 2.8-5.4 0.7-12-4.7-14.8L521 253.1c-1.6-0.8-3.3-1.2-5.1-1.2zM897.2 137.9H132.8c-36.3 0-65.8 29.5-65.8 65.8V726.2c0 36.3 29.5 65.8 65.8 65.8h764.4c36.3 0 65.8-29.5 65.8-65.8v-522.5c0-36.3-29.5-65.8-65.8-65.8zM132.8 760.1c-18.7 0-33.9-15.2-33.9-33.9v-522.5c0-18.7 15.2-33.9 33.9-33.9h764.4c18.7 0 33.9 15.2 33.9 33.9V726.2c0 18.7-15.2 33.9-33.9 33.9H132.8zM947.1-22.4H83c-8.8 0-16 7.1-16 16 0 8.8 7.1 16 16 16h864.1c8.8 0 16-7.1 16-16-0.1-8.9-7.2-16-16-16zM515-22.4c-8.8 0-16 7.1-16 16V60c0 8.8 7.1 16 16 16 8.8 0 16-7.1 16-16v-66.4c0-8.9-7.2-16-16-16z"  horiz-adv-x="1024" />

    
    <glyph glyph-name="yonghuwangluo-" unicode="&#58905;" d="M960 385.9c0 63.5-13 124.9-38.7 182.5-22.5 50.3-53.6 95.5-92.6 134.4l0.2 0.2-12.7 11.7-10.9 10-0.2-0.2C723.8 795.2 620.3 833.9 512 833.9c-108.3 0-211.8-38.7-293.3-109.3l-0.2 0.2-10.9-10-12.5-11.8 0.2-0.2c-39-38.9-70.1-84.1-92.6-134.4C77 510.8 64 449.4 64 385.9c0-63.1 12.9-124.1 38.2-181.3 22.2-50.1 52.9-95.1 91.5-133.9l-0.2-0.2 12.5-11.7 10.9-10.2 0.2 0.2C298.8-22.7 403-62 512-62h5.1c107.2 1.2 209.4 40.3 289.9 110.8l0.2-0.2 10.9 10.2s0.1 0 0.1 0.1l12.4 11.6-0.2 0.2c38.6 38.9 69.3 83.9 91.5 133.9 25.2 57.2 38.1 118.2 38.1 181.3zM806.4 92.5c-0.5 0.5-1.1 0.9-1.6 1.4-0.8 0.7-1.5 1.3-2.3 2-0.6 0.5-1.1 1-1.7 1.5-0.8 0.6-1.5 1.3-2.3 1.9l-1.8 1.5c-0.7 0.6-1.5 1.2-2.2 1.8l-1.8 1.5c-0.7 0.6-1.5 1.2-2.2 1.8-0.6 0.5-1.3 1-1.9 1.5-0.7 0.6-1.5 1.1-2.2 1.7-0.6 0.5-1.3 1-1.9 1.5-0.7 0.6-1.4 1.1-2.2 1.7-0.7 0.5-1.3 1-2 1.5s-1.5 1.1-2.2 1.6c-0.7 0.5-1.3 1-2 1.5s-1.5 1.1-2.2 1.6c-0.7 0.5-1.3 1-2 1.4-0.7 0.5-1.5 1-2.2 1.6-0.7 0.5-1.4 1-2 1.4-0.7 0.5-1.5 1-2.2 1.5-0.7 0.5-1.4 0.9-2.1 1.4-0.7 0.5-1.5 1-2.2 1.5-0.7 0.5-1.4 0.9-2.1 1.4-0.7 0.5-1.5 1-2.2 1.5-0.7 0.5-1.4 0.9-2.1 1.4-0.7 0.5-1.5 1-2.3 1.4-0.7 0.4-1.4 0.9-2.1 1.3-0.8 0.5-1.5 0.9-2.3 1.4-0.7 0.4-1.4 0.9-2.1 1.3-0.8 0.5-1.5 0.9-2.3 1.4-0.7 0.4-1.4 0.9-2.1 1.3-0.8 0.5-1.5 0.9-2.3 1.4l-2.1 1.2c-0.8 0.5-1.6 0.9-2.4 1.4-0.7 0.4-1.4 0.8-2 1.2-0.9 0.5-1.8 1-2.8 1.5-1 0.5-1.9 1.1-2.9 1.6-1.1 0.6-2.2 1.2-3.2 1.8-0.7 0.4-1.4 0.7-2.1 1.1-0.8 0.4-1.6 0.9-2.4 1.3-0.7 0.4-1.5 0.8-2.2 1.1l-2.4 1.2c-0.7 0.4-1.5 0.8-2.2 1.1-0.8 0.4-1.6 0.8-2.3 1.2-0.8 0.4-1.5 0.7-2.3 1.1-0.8 0.4-1.5 0.8-2.3 1.1-0.8 0.4-1.5 0.7-2.3 1.1-0.8 0.4-1.5 0.7-2.3 1.1-0.8 0.4-1.5 0.7-2.3 1.1-0.4 0.2-0.9 0.4-1.3 0.6 16.6 62.6 25.9 133.3 27.1 207.2h203c-4-104.1-47.5-203.8-121-277.7 0-0.1-0.1 0-0.2 0.1z m-472 551.2c-2.4 1.1-4.8 2.3-7.2 3.5-0.4 0.2-0.7 0.4-1.1 0.6-2.4 1.2-4.7 2.4-7 3.6l-1.2 0.6c-2.3 1.2-4.6 2.5-7 3.8-0.4 0.2-0.7 0.4-1.1 0.6l-6.9 3.9c-0.3 0.2-0.7 0.4-1 0.6-2.3 1.4-4.7 2.8-7 4.2-0.3 0.2-0.5 0.3-0.8 0.5-2.4 1.5-4.7 3-7.1 4.5-0.1 0.1-0.3 0.2-0.4 0.3-2.4 1.6-4.8 3.1-7.2 4.7-0.1 0-0.1 0.1-0.2 0.1-2.4 1.6-4.7 3.2-7.1 4.9-0.2 0.1-0.4 0.3-0.6 0.4-2.2 1.6-4.5 3.2-6.7 4.9l-0.9 0.6c-2.2 1.6-4.3 3.2-6.4 4.9-0.3 0.3-0.7 0.5-1 0.8-2.1 1.6-4.2 3.3-6.3 5-0.3 0.3-0.7 0.5-1 0.8-2.1 1.7-4.1 3.4-6.2 5.1-0.1 0.1-0.3 0.2-0.4 0.4 53 45.1 115.9 75.8 183.2 90-23.4-22.8-44.7-54.9-62.9-95.4-8-17.8-15.3-36.9-21.7-57-2 0.9-3.9 1.8-5.9 2.7-0.3 0.1-0.6 0.3-0.9 0.4z m446.5 58.9c-2-1.7-4.1-3.5-6.2-5.1-0.3-0.3-0.7-0.5-1-0.8-2.1-1.7-4.2-3.4-6.3-5-0.3-0.3-0.7-0.5-1-0.8-2.1-1.7-4.3-3.3-6.5-4.9l-0.9-0.6c-2.2-1.6-4.5-3.3-6.7-4.9-0.2-0.1-0.4-0.3-0.6-0.4-2.3-1.7-4.7-3.3-7.1-4.9-0.1 0-0.1-0.1-0.2-0.1l-7.2-4.8c-0.1-0.1-0.3-0.2-0.4-0.3-2.4-1.5-4.7-3-7.1-4.5-0.3-0.2-0.5-0.3-0.8-0.5-2.3-1.4-4.6-2.8-7-4.2-0.3-0.2-0.7-0.4-1-0.6-2.3-1.3-4.6-2.7-6.9-3.9-0.4-0.2-0.7-0.4-1.1-0.6-2.3-1.3-4.6-2.5-7-3.8-0.4-0.2-0.8-0.4-1.1-0.6-2.3-1.2-4.7-2.4-7-3.6-0.4-0.2-0.7-0.4-1.1-0.5-2.4-1.2-4.8-2.4-7.2-3.5-0.3-0.1-0.6-0.3-0.9-0.4-0.4-0.2-0.7-0.3-1.1-0.5-6.3 19.3-13.3 37.6-21 54.8-17.8 39.6-38.6 71.1-61.4 93.8 64.6-14.8 125-44.9 176.1-88.4 0-0.1-0.1-0.3-0.3-0.4z m-252.7-532c0.6 0 1.3 0 1.9-0.1h1c2.8-0.1 5.5-0.3 8.3-0.5 0.4 0 0.8 0 1.2-0.1l8.1-0.6c0.4 0 0.8-0.1 1.3-0.1 2.7-0.2 5.4-0.5 8.1-0.8 0.4 0 0.8-0.1 1.2-0.1 2.7-0.3 5.4-0.6 8.1-1 0.4-0.1 0.8-0.1 1.1-0.2 2.7-0.4 5.4-0.8 8.2-1.2 0.3 0 0.6-0.1 0.9-0.1 2.8-0.4 5.6-0.9 8.4-1.4 0.2 0 0.4-0.1 0.6-0.1 5.8-1.1 11.6-2.2 17.4-3.5 0.1 0 0.3-0.1 0.4-0.1 2.8-0.6 5.5-1.3 8.3-2 0.3-0.1 0.5-0.1 0.8-0.2 2.7-0.7 5.4-1.4 8-2.1 0.3-0.1 0.7-0.2 1-0.3 2.6-0.7 5.2-1.5 7.8-2.2 0.4-0.1 0.7-0.2 1.1-0.3 2.6-0.8 5.2-1.6 7.7-2.4 0.4-0.1 0.7-0.2 1.1-0.3 2.6-0.8 5.2-1.7 7.7-2.6 0.3-0.1 0.6-0.2 1-0.3 2.6-0.9 5.2-1.8 7.8-2.8 0.3-0.1 0.5-0.2 0.8-0.3 0.6-0.2 1.1-0.4 1.7-0.6-6.4-20.3-13.6-39.4-21.6-57.3-17-37.7-36.5-67.2-58.1-87.5-16.6-15.6-33.7-25.1-51-28.3l-0.3 199.4z m137.6 5.1l-2.4 0.9-2.4 0.9c-0.8 0.3-1.6 0.6-2.4 0.8-0.8 0.3-1.6 0.6-2.4 0.8-0.8 0.3-1.6 0.5-2.4 0.8-0.8 0.3-1.6 0.5-2.4 0.8-0.8 0.3-1.6 0.5-2.4 0.8-0.8 0.3-1.6 0.5-2.4 0.8-0.8 0.3-1.7 0.5-2.5 0.8-0.8 0.2-1.6 0.5-2.4 0.7-0.9 0.3-1.7 0.5-2.6 0.8-0.8 0.2-1.6 0.5-2.3 0.7-0.9 0.3-1.8 0.5-2.7 0.8-0.7 0.2-1.5 0.4-2.2 0.6-1 0.3-2 0.5-3 0.8-0.7 0.2-1.3 0.4-2 0.5-1.6 0.4-3.3 0.9-4.9 1.3-0.6 0.2-1.3 0.3-1.9 0.5-1 0.3-2.1 0.5-3.1 0.8-0.7 0.2-1.5 0.3-2.2 0.5-0.9 0.2-1.9 0.4-2.8 0.7-0.8 0.2-1.5 0.3-2.3 0.5l-2.7 0.6c-0.8 0.2-1.6 0.3-2.3 0.5l-2.7 0.6c-0.8 0.2-1.6 0.3-2.4 0.5-0.9 0.2-1.8 0.4-2.7 0.5-0.8 0.2-1.6 0.3-2.4 0.4-0.9 0.2-1.8 0.3-2.7 0.5-0.8 0.1-1.6 0.3-2.4 0.4-0.9 0.2-1.8 0.3-2.7 0.5-0.8 0.1-1.6 0.3-2.4 0.4-0.9 0.1-1.8 0.3-2.7 0.4-0.8 0.1-1.6 0.2-2.4 0.4-0.9 0.1-1.8 0.3-2.7 0.4l-2.4 0.3c-0.9 0.1-1.8 0.2-2.7 0.4l-2.4 0.3-2.7 0.3-2.4 0.3-2.7 0.3-2.4 0.3-2.7 0.3c-0.8 0.1-1.6 0.2-2.4 0.2-0.9 0.1-1.8 0.2-2.8 0.2-0.8 0.1-1.6 0.1-2.4 0.2-0.9 0.1-1.9 0.1-2.8 0.2-0.8 0.1-1.6 0.1-2.4 0.2-0.9 0.1-1.9 0.1-2.8 0.2-0.8 0-1.6 0.1-2.3 0.1-1 0.1-1.9 0.1-2.9 0.2-0.8 0-1.5 0.1-2.3 0.1-1 0-2 0.1-3 0.1-0.6 0-1.2 0.1-1.8 0.1l-0.2 167.2h164.8c-1.1-69.5-9.7-136.1-24.9-194.9-0.7 0.3-1.4 0.5-2.1 0.7zM528 401.9l-0.1 170.5c1.3 0 2.5 0.1 3.8 0.2h0.9c3 0.1 6 0.3 9.1 0.5 0.4 0 0.8 0 1.1 0.1 3 0.2 5.9 0.4 8.9 0.7 0.4 0 0.8 0.1 1.3 0.1 2.9 0.3 5.8 0.6 8.8 0.9 0.4 0 0.9 0.1 1.3 0.1 2.9 0.3 5.8 0.7 8.7 1.1 0.4 0.1 0.9 0.1 1.3 0.2 2.9 0.4 5.8 0.8 8.7 1.3 0.4 0.1 0.8 0.1 1.2 0.2l8.7 1.5c0.4 0.1 0.7 0.1 1.1 0.2 3 0.5 5.9 1.1 8.8 1.7 0.3 0.1 0.6 0.1 0.8 0.2 3 0.6 6 1.3 9 1.9 0.2 0 0.3 0.1 0.5 0.1 6.3 1.4 12.6 3 18.8 4.7 0.1 0 0.2 0 0.2 0.1 3 0.8 6.1 1.7 9.1 2.6 0.2 0.1 0.4 0.1 0.6 0.2l8.7 2.7 0.9 0.3c2.8 0.9 5.7 1.9 8.5 2.8 0.3 0.1 0.7 0.2 1 0.3 2.5 0.9 4.9 1.7 7.3 2.6 15.7-59.5 24.6-127.1 25.8-197.7H528z m-34.9 202.5c-2.7 0.1-5.5 0.3-8.2 0.5-0.4 0-0.8 0.1-1.2 0.1-2.7 0.2-5.4 0.4-8 0.6-0.4 0-0.9 0.1-1.3 0.1-2.7 0.2-5.3 0.5-8 0.8-0.4 0-0.9 0.1-1.3 0.1-2.7 0.3-5.3 0.6-8 1-0.4 0.1-0.8 0.1-1.2 0.2-2.7 0.4-5.4 0.7-8.1 1.2-0.3 0-0.6 0.1-1 0.2-2.8 0.4-5.5 0.9-8.2 1.4-0.2 0-0.4 0.1-0.6 0.1-2.8 0.5-5.7 1-8.5 1.6h-0.1c-2.8 0.6-5.6 1.2-8.5 1.8-0.2 0-0.4 0.1-0.7 0.1-2.7 0.6-5.4 1.2-8.1 1.9-0.3 0.1-0.7 0.2-1 0.2-2.6 0.6-5.2 1.3-7.8 2l-1.2 0.3c-2.6 0.7-5.1 1.4-7.6 2.2-0.4 0.1-0.8 0.2-1.2 0.4-2.5 0.7-5 1.5-7.5 2.3-0.4 0.1-0.8 0.3-1.2 0.4-2.5 0.8-5 1.6-7.5 2.5-0.4 0.1-0.7 0.3-1.1 0.4-1.8 0.6-3.5 1.2-5.3 1.9 6.3 19.8 13.3 38.5 21.2 55.9 17 37.7 36.5 67.2 58.1 87.5 14.8 13.9 30.1 23 45.5 27.1l0.2-194.7c-0.6 0-1.2 0-1.8 0.1-0.1-0.2-0.5-0.2-0.8-0.2z m163.2 25.3l-0.9-0.3c-2.5-0.9-5.1-1.8-7.6-2.7-0.4-0.1-0.7-0.3-1.1-0.4-2.5-0.9-5-1.7-7.5-2.5-0.4-0.1-0.8-0.3-1.2-0.4-2.5-0.8-5-1.6-7.5-2.3-0.4-0.1-0.8-0.2-1.2-0.4-2.5-0.7-5.1-1.5-7.6-2.2l-1.2-0.3c-2.6-0.7-5.2-1.4-7.8-2-0.3-0.1-0.7-0.2-1-0.2-2.7-0.7-5.4-1.3-8-1.9-0.2 0-0.4-0.1-0.7-0.1l-8.4-1.8h-0.1c-2.8-0.6-5.7-1.1-8.5-1.6-0.2 0-0.4-0.1-0.6-0.1-2.7-0.5-5.5-0.9-8.2-1.4-0.3-0.1-0.6-0.1-1-0.2l-8.1-1.2c-0.4-0.1-0.8-0.1-1.2-0.2-2.6-0.3-5.3-0.7-8-1-0.4 0-0.9-0.1-1.3-0.1-2.6-0.3-5.3-0.6-8-0.8-0.4 0-0.9-0.1-1.3-0.1-2.7-0.2-5.3-0.4-8-0.6-0.4 0-0.8-0.1-1.2-0.1-2.7-0.2-5.4-0.3-8.2-0.5h-1c-0.7 0-1.4 0-2.1-0.1l-0.2 196.1c17.6-3.1 35-12.7 51.8-28.5 21.6-20.3 41.1-49.7 58.1-87.5 7.6-16.9 14.5-35 20.6-54.1-0.7 0-1.2-0.3-1.8-0.5zM364.4 597c0.3-0.1 0.7-0.2 1-0.3 2.8-1 5.7-1.9 8.5-2.9l0.9-0.3 8.7-2.7c0.2-0.1 0.4-0.1 0.6-0.2 3-0.9 6-1.8 9.1-2.6 0.1 0 0.2 0 0.2-0.1 6.2-1.7 12.5-3.3 18.8-4.7 0.2 0 0.3-0.1 0.5-0.1 3-0.7 6-1.3 9-1.9 0.3-0.1 0.6-0.1 0.8-0.2 2.9-0.6 5.9-1.2 8.9-1.7 0.4-0.1 0.7-0.1 1.1-0.2l8.7-1.5c0.4-0.1 0.8-0.1 1.2-0.2 2.9-0.5 5.8-0.9 8.7-1.3 0.4-0.1 0.9-0.1 1.3-0.2 2.9-0.4 5.8-0.7 8.7-1.1 0.4 0 0.9-0.1 1.3-0.1 2.9-0.3 5.8-0.6 8.8-0.9 0.4 0 0.8-0.1 1.3-0.1 3-0.3 5.9-0.5 8.9-0.7 0.4 0 0.8 0 1.1-0.1 3-0.2 6-0.4 9.1-0.5h0.9c1.2-0.1 2.3-0.1 3.5-0.1l0.1-170.5H336.7c1.2 70 9.9 136.8 25.3 195.9 0.8-0.2 1.6-0.5 2.4-0.7zM496 369.9l0.1-167.3c-0.7 0-1.4-0.1-2.1-0.1-1 0-2-0.1-3-0.1-0.8 0-1.5-0.1-2.3-0.1-1 0-1.9-0.1-2.9-0.2-0.8 0-1.6-0.1-2.3-0.1-0.9-0.1-1.9-0.1-2.8-0.2-0.8-0.1-1.6-0.1-2.4-0.2-0.9-0.1-1.9-0.1-2.8-0.2-0.8-0.1-1.6-0.1-2.4-0.2-0.9-0.1-1.8-0.2-2.8-0.2-0.8-0.1-1.6-0.2-2.4-0.2l-2.7-0.3-2.4-0.3-2.7-0.3-2.4-0.3-2.7-0.3-2.4-0.3c-0.9-0.1-1.8-0.2-2.7-0.4l-2.4-0.3c-0.9-0.1-1.8-0.3-2.7-0.4-0.8-0.1-1.6-0.2-2.4-0.4-0.9-0.1-1.8-0.3-2.7-0.4-0.8-0.1-1.6-0.3-2.4-0.4-0.9-0.2-1.8-0.3-2.7-0.5-0.8-0.1-1.6-0.3-2.4-0.4-0.9-0.2-1.8-0.3-2.7-0.5-0.8-0.1-1.6-0.3-2.4-0.4-0.9-0.2-1.8-0.4-2.7-0.5-0.8-0.2-1.6-0.3-2.4-0.5l-2.7-0.6c-0.8-0.2-1.6-0.3-2.3-0.5-0.9-0.2-1.8-0.4-2.8-0.6-0.7-0.2-1.5-0.3-2.2-0.5-1-0.2-1.9-0.4-2.9-0.7-0.7-0.2-1.4-0.3-2.1-0.5-1.1-0.3-2.1-0.5-3.2-0.8-0.6-0.1-1.2-0.3-1.8-0.4-1.6-0.4-3.3-0.8-4.9-1.3-0.6-0.2-1.3-0.3-1.9-0.5-1-0.3-2-0.5-3.1-0.8-0.7-0.2-1.4-0.4-2.2-0.6-0.9-0.3-1.8-0.5-2.8-0.8-0.8-0.2-1.5-0.4-2.3-0.7-0.9-0.3-1.7-0.5-2.6-0.8-0.8-0.2-1.6-0.5-2.3-0.7-0.9-0.3-1.7-0.5-2.5-0.8-0.8-0.2-1.6-0.5-2.4-0.8-0.8-0.3-1.7-0.5-2.5-0.8-0.8-0.3-1.6-0.5-2.4-0.8-0.8-0.3-1.7-0.6-2.5-0.8-0.8-0.3-1.6-0.5-2.4-0.8-0.8-0.3-1.7-0.6-2.5-0.9l-1.8-0.6c-14.9 58.4-23.3 124.3-24.5 193.1H496z m-120.8-222c0.3 0.1 0.6 0.2 1 0.3 2.6 0.9 5.1 1.7 7.7 2.6 0.4 0.1 0.7 0.2 1.1 0.3l7.8 2.4c0.4 0.1 0.7 0.2 1.1 0.3 2.6 0.8 5.2 1.5 7.9 2.2 0.3 0.1 0.7 0.2 1 0.3 2.7 0.7 5.3 1.4 8 2.1 0.3 0.1 0.5 0.1 0.8 0.2 2.8 0.7 5.5 1.3 8.3 2 0.1 0 0.3 0.1 0.4 0.1 5.8 1.3 11.6 2.5 17.4 3.5 0.2 0 0.4 0.1 0.5 0.1 2.8 0.5 5.6 1 8.4 1.4 0.3 0 0.6 0.1 0.9 0.1 2.7 0.4 5.4 0.8 8.2 1.2 0.4 0.1 0.8 0.1 1.1 0.2 2.7 0.4 5.4 0.7 8.1 1 0.4 0 0.8 0.1 1.2 0.1 2.7 0.3 5.4 0.6 8.1 0.8 0.4 0 0.8 0.1 1.2 0.1l8.1 0.6c0.4 0 0.8 0.1 1.2 0.1 2.8 0.2 5.5 0.3 8.3 0.5h1c0.8 0 1.5 0 2.3 0.1l0.2-198.4c-15.7 4-31.2 13.1-46.2 27.3-21.6 20.3-41.1 49.7-58.1 87.5-8.3 18.4-15.6 38.2-22.1 59.1 1.6 0.6 3.3 1.3 5.1 1.9z m291.4-74.1c8.1 18.1 15.5 37.5 22 57.9 0.5-0.3 1.1-0.5 1.6-0.7 0.2-0.1 0.4-0.2 0.7-0.3 2.5-1.2 5-2.4 7.5-3.7 0.3-0.1 0.6-0.3 0.9-0.4 2.4-1.2 4.9-2.5 7.3-3.8 0.3-0.2 0.6-0.3 0.9-0.5l7.2-3.9c0.3-0.2 0.6-0.4 0.9-0.5 2.4-1.3 4.8-2.7 7.1-4.1 0.3-0.2 0.6-0.3 0.9-0.5 2.4-1.4 4.8-2.8 7.1-4.3 0.2-0.1 0.5-0.3 0.7-0.5 2.4-1.5 4.8-3 7.2-4.6 0.1-0.1 0.3-0.2 0.4-0.3 5-3.3 9.9-6.6 14.8-10.1 0.1-0.1 0.2-0.1 0.3-0.2 2.3-1.7 4.7-3.4 7-5.1 0.2-0.2 0.4-0.3 0.6-0.5 2.2-1.7 4.5-3.4 6.7-5.1 0.3-0.2 0.5-0.4 0.8-0.6 2.2-1.7 4.3-3.4 6.4-5.2 0.3-0.3 0.6-0.5 0.9-0.8 2.1-1.7 4.2-3.5 6.3-5.3 0.2-0.1 0.3-0.3 0.5-0.4-51.4-44.3-112.3-74.9-177.5-89.9 22.5 22.7 43.1 54.1 60.8 93.4z m261.1 328.1h-203c-1.2 75-10.9 146.7-27.9 210 2.7 1.2 5.4 2.5 8 3.7 0.2 0.1 0.5 0.2 0.7 0.3 2.8 1.3 5.6 2.7 8.3 4.1 0.1 0.1 0.3 0.2 0.4 0.2 2.8 1.4 5.7 2.9 8.5 4.4 2.9 1.5 5.8 3.1 8.6 4.7h0.1c2.8 1.6 5.5 3.2 8.3 4.8 0.2 0.1 0.3 0.2 0.5 0.3 2.6 1.6 5.3 3.2 7.9 4.8 0.2 0.2 0.5 0.3 0.7 0.5 2.6 1.6 5.1 3.2 7.6 4.9l0.9 0.6c2.5 1.6 4.9 3.3 7.4 5 0.3 0.2 0.7 0.5 1 0.7l7.2 5.1c0.3 0.2 0.7 0.5 1 0.7 2.4 1.7 4.7 3.5 7.1 5.2 0.3 0.3 0.7 0.5 1 0.8 2.4 1.8 4.7 3.6 7 5.4 0.3 0.2 0.6 0.5 0.9 0.7 2.3 1.9 4.7 3.7 7 5.6 0.3 0.2 0.5 0.4 0.8 0.7 2.3 1.9 4.7 3.9 7 5.9l0.2 0.2c74.7-74.1 118.8-174.4 122.8-279.3zM218.9 681.2l0.2-0.2c2.3-2 4.6-4 7-5.9 0.3-0.2 0.5-0.5 0.8-0.7 2.3-1.9 4.6-3.8 7-5.6 0.3-0.2 0.6-0.5 0.9-0.7 2.3-1.8 4.7-3.6 7-5.4 0.3-0.3 0.7-0.5 1-0.8 2.4-1.8 4.7-3.5 7.1-5.2 0.3-0.2 0.7-0.5 1-0.7l7.2-5.1c0.3-0.2 0.7-0.5 1-0.7 2.4-1.7 4.9-3.3 7.4-5l0.9-0.6c2.5-1.6 5.1-3.3 7.6-4.9 0.2-0.2 0.5-0.3 0.7-0.4 2.6-1.6 5.3-3.2 7.9-4.8 0.2-0.1 0.3-0.2 0.5-0.3 2.7-1.6 5.5-3.2 8.3-4.8h0.1c2.9-1.6 5.8-3.2 8.7-4.7 2.8-1.5 5.7-3 8.5-4.4 0.1-0.1 0.3-0.1 0.4-0.2 2.8-1.4 5.5-2.8 8.3-4.1 0.2-0.1 0.5-0.2 0.7-0.3 2.7-1.3 5.5-2.6 8.2-3.8 0.3-0.1 0.6-0.3 0.9-0.4 1.3-0.6 2.6-1.2 3.9-1.7-16.7-62.9-26.1-133.8-27.3-207.9H96.3c4 104.9 48.1 205.2 122.6 279.3zM96.3 369.9h208.5c1.2-73 10.3-143 26.5-205-0.5-0.2-1.1-0.5-1.6-0.7-0.8-0.3-1.5-0.7-2.3-1-0.8-0.4-1.6-0.7-2.4-1.1-0.7-0.3-1.5-0.7-2.2-1-0.8-0.4-1.6-0.8-2.4-1.1-0.7-0.3-1.5-0.7-2.2-1l-2.4-1.2c-0.7-0.4-1.4-0.7-2.2-1.1-0.8-0.4-1.7-0.8-2.5-1.2-0.7-0.4-1.4-0.7-2.1-1.1-0.9-0.4-1.7-0.9-2.6-1.3-0.7-0.3-1.3-0.7-2-1-0.9-0.5-1.9-1-2.8-1.5-0.6-0.3-1.2-0.6-1.7-0.9l-4.5-2.4c-0.3-0.2-0.7-0.4-1-0.6-1.2-0.6-2.3-1.3-3.5-1.9-0.6-0.3-1.1-0.7-1.7-1-0.9-0.5-1.8-1-2.7-1.6-0.6-0.4-1.3-0.7-1.9-1.1-0.8-0.5-1.7-1-2.5-1.5-0.6-0.4-1.3-0.8-1.9-1.2-0.8-0.5-1.6-1-2.5-1.5-0.7-0.4-1.3-0.8-2-1.2l-2.4-1.5c-0.7-0.4-1.3-0.8-2-1.2l-2.4-1.5c-0.7-0.4-1.3-0.9-2-1.3-0.8-0.5-1.6-1-2.3-1.5-0.7-0.4-1.3-0.9-2-1.3-0.8-0.5-1.6-1-2.3-1.6-0.7-0.4-1.3-0.9-1.9-1.3-0.8-0.5-1.5-1.1-2.3-1.6-0.6-0.4-1.3-0.9-1.9-1.4-0.8-0.5-1.5-1.1-2.3-1.6-0.6-0.5-1.3-0.9-1.9-1.4-0.8-0.6-1.5-1.1-2.3-1.7-0.6-0.5-1.3-0.9-1.9-1.4-0.8-0.6-1.5-1.1-2.3-1.7-0.6-0.5-1.2-0.9-1.8-1.4-0.8-0.6-1.5-1.2-2.3-1.8-0.6-0.5-1.2-0.9-1.8-1.4-0.8-0.6-1.5-1.2-2.3-1.8-0.6-0.5-1.2-0.9-1.8-1.4-0.8-0.6-1.5-1.2-2.3-1.9-0.6-0.5-1.2-0.9-1.7-1.4-0.8-0.6-1.6-1.3-2.3-1.9-0.6-0.5-1.1-0.9-1.7-1.4-0.8-0.7-1.6-1.3-2.4-2-0.5-0.4-1.1-0.9-1.6-1.3-0.8-0.7-1.7-1.4-2.5-2.1-0.5-0.4-1-0.8-1.5-1.3l-0.3-0.3c-73.5 73.8-116.9 173.5-120.9 277.6z m144.5-299.5c0.2 0.1 0.3 0.3 0.5 0.4 2.1 1.8 4.1 3.5 6.2 5.2 0.3 0.3 0.6 0.5 1 0.8 2.1 1.7 4.2 3.5 6.4 5.1 0.3 0.2 0.6 0.4 0.9 0.7l6.6 5.1c0.2 0.2 0.4 0.3 0.7 0.5 2.3 1.7 4.6 3.4 7 5.1 0.1 0.1 0.2 0.1 0.3 0.2 2.4 1.7 4.9 3.5 7.3 5.1 2.4 1.7 4.9 3.3 7.4 4.9 0.2 0.1 0.3 0.2 0.5 0.3 2.4 1.5 4.8 3.1 7.2 4.6 0.2 0.2 0.5 0.3 0.7 0.5 2.3 1.5 4.7 2.9 7.1 4.3 0.3 0.2 0.6 0.4 0.9 0.5 2.3 1.4 4.7 2.7 7.1 4.1 0.3 0.2 0.7 0.4 1 0.5l7.2 3.9c0.3 0.2 0.6 0.3 1 0.5 2.4 1.3 4.8 2.5 7.3 3.8 0.3 0.1 0.6 0.3 0.9 0.4 2.5 1.2 5 2.5 7.5 3.7 0.2 0.1 0.4 0.2 0.7 0.3 2.1 1 4.3 2 6.4 3 6.7-21.2 14.3-41.4 22.7-60.1 18.1-40.2 39.2-72.1 62.4-94.9-68.2 14.4-131.6 45.6-184.9 91.5z"  horiz-adv-x="1024" />

    
    <glyph glyph-name="zuixinanquanxinwen-" unicode="&#58906;" d="M894.1 49.8H130.5c-36.5 0-66.2 29.7-66.2 66.2V706.5c0 36.5 29.7 66.2 66.2 66.2h763.6c36.5 0 66.2-29.7 66.2-66.2V116c0-36.5-29.7-66.2-66.2-66.2zM130.5 740.6c-18.8 0-34.1-15.3-34.1-34.1V116c0-18.8 15.3-34.1 34.1-34.1h763.6c18.8 0 34.1 15.3 34.1 34.1V706.5c0 18.8-15.3 34.1-34.1 34.1H130.5zM454 173.5H219c-36.5 0-66.2 29.7-66.2 66.2V495.2c0 36.5 29.7 66.2 66.2 66.2h235c36.5 0 66.2-29.7 66.2-66.2v-255.4c0-36.6-29.7-66.3-66.2-66.3zM219 529.3c-18.8 0-34.1-15.3-34.1-34.1v-255.4c0-18.8 15.3-34.1 34.1-34.1h235c18.8 0 34.1 15.3 34.1 34.1V495.2c0 18.8-15.3 34.1-34.1 34.1H219zM864 623.5H160.6c-8.9 0-16.1 7.2-16.1 16.1 0 8.9 7.2 16.1 16.1 16.1H864c8.9 0 16.1-7.2 16.1-16.1-0.1-8.9-7.3-16.1-16.1-16.1zM864 478.1H568.3c-8.9 0-16.1 7.2-16.1 16.1 0 8.9 7.2 16.1 16.1 16.1H864c8.9 0 16.1-7.2 16.1-16.1-0.1-9-7.3-16.1-16.1-16.1zM864 332.6H568.3c-8.9 0-16.1 7.2-16.1 16.1 0 8.9 7.2 16.1 16.1 16.1H864c8.9 0 16.1-7.2 16.1-16.1-0.1-8.9-7.3-16.1-16.1-16.1zM864 187.1H568.3c-8.9 0-16.1 7.2-16.1 16.1s7.2 16.1 16.1 16.1H864c8.9 0 16.1-7.2 16.1-16.1s-7.3-16.1-16.1-16.1z"  horiz-adv-x="1024" />

    
    <glyph glyph-name="zuixinloudong-" unicode="&#58907;" d="M726.8 625H292.3c-6.1 0-11.6 3.6-14.1 9.2s-1.5 12.1 2.6 16.6c28.6 31.7 62.7 56.8 101.4 74.4 40.1 18.2 82.9 27.5 127.3 27.5s87.2-9.3 127.3-27.5c38.7-17.6 72.8-42.7 101.4-74.4 4.1-4.5 5.1-11 2.6-16.6-2.4-5.6-7.9-9.2-14-9.2z m-396.4 30.9h358.4c-49.7 42.2-113.3 65.9-179.2 65.9s-129.5-23.6-179.2-65.9zM509.6 54.9c-82.2 0-159.4 32-217.5 90.1C234 203.1 202 280.4 202 362.5c0 76.1 28 149.2 78.9 205.7 2.9 3.3 7.1 5.1 11.5 5.1h434.5c4.4 0 8.6-1.9 11.5-5.1 50.9-56.5 78.9-129.6 78.9-205.7 0-82.2-32-159.4-90.1-217.5-58.2-58.1-135.5-90.1-217.6-90.1zM299.3 542.5c-42.9-50.1-66.5-113.8-66.5-180 0-152.6 124.1-276.7 276.7-276.7S786.3 210 786.3 362.6c0 66.2-23.6 129.8-66.5 180H299.3zM726.8 542.5c-6 0-11.7 3.5-14.2 9.4-3.4 7.8 0.3 16.9 8.1 20.3l127.6 54.5c7.9 3.4 16.9-0.3 20.3-8.1 3.4-7.8-0.3-16.9-8.1-20.3l-127.6-54.5c-2-0.9-4.1-1.3-6.1-1.3zM876 118.2c-2 0-4.1 0.4-6.1 1.2L742.3 174c-7.8 3.4-11.5 12.4-8.1 20.3 3.4 7.8 12.4 11.5 20.3 8.1L882 147.9c7.8-3.4 11.5-12.4 8.1-20.3-2.4-5.8-8.1-9.4-14.1-9.4zM941 375H802.3c-8.5 0-15.4 6.9-15.4 15.4s6.9 15.4 15.4 15.4H941c8.5 0 15.4-6.9 15.4-15.4 0.1-8.4-6.8-15.4-15.4-15.4zM290.2 542.5c-2 0-4.1 0.4-6.1 1.2l-127.6 54.5c-7.8 3.4-11.5 12.4-8.1 20.3 3.4 7.8 12.4 11.5 20.3 8.1l127.6-54.5c7.8-3.4 11.5-12.4 8.1-20.3-2.5-5.8-8.2-9.3-14.2-9.3zM141 118.2c-6 0-11.7 3.5-14.2 9.4-3.4 7.8 0.3 16.9 8.1 20.3l127.6 54.5c7.9 3.4 16.9-0.3 20.3-8.1 3.4-7.8-0.3-16.9-8.1-20.3l-127.6-54.5c-2-0.9-4-1.3-6.1-1.3zM214.7 375H75.9c-8.5 0-15.4 6.9-15.4 15.4s6.9 15.4 15.4 15.4h138.7c8.5 0 15.4-6.9 15.4-15.4 0.1-8.4-6.8-15.4-15.3-15.4z"  horiz-adv-x="1024" />

    
    <glyph glyph-name="Webweixieganzhi-" unicode="&#58908;" d="M503.7 682.4h120.2L503.7 502H669L390.9 277.7l112.8 164.2H383.4zM893.5 178H129.1c-36.3 0-65.8 29.5-65.8 65.8V766.3c0 36.3 29.5 65.8 65.8 65.8h764.4c36.3 0 65.8-29.5 65.8-65.8v-522.5c0-36.2-29.5-65.8-65.8-65.8zM129.1 800.2c-18.7 0-33.9-15.2-33.9-33.9v-522.5c0-18.7 15.2-33.9 33.9-33.9h764.4c18.7 0 33.9 15.2 33.9 33.9V766.3c0 18.7-15.2 33.9-33.9 33.9H129.1zM943.4 17.7H79.3c-8.8 0-16 7.1-16 16 0 8.8 7.1 16 16 16h864.1c8.8 0 16-7.1 16-16-0.1-8.8-7.2-16-16-16zM511.3 17.7c-8.8 0-16 7.1-16 16v66.4c0 8.8 7.1 16 16 16s16-7.1 16-16v-66.4c0-8.8-7.2-16-16-16z"  horiz-adv-x="1024" />

    
    <glyph glyph-name="cuiruoxingfenxi-" unicode="&#58909;" d="M903.1-63H138.7c-36.3 0-65.8 29.5-65.8 65.8V763.2c0 36.3 29.5 65.8 65.8 65.8h764.4c36.3 0 65.8-29.5 65.8-65.8v-760.5c0-36.2-29.5-65.7-65.8-65.7zM138.7 797.1c-18.7 0-33.9-15.2-33.9-33.9v-760.5c0-18.7 15.2-33.9 33.9-33.9h764.4c18.7 0 33.9 15.2 33.9 33.9V763.2c0 18.7-15.2 33.9-33.9 33.9H138.7zM734.9 679h-152c-8.8 0-16-7.2-16-16s7.2-16 16-16h152c27.6 0 50-22.4 50-50v-198H256.8V597c0 27.6 22.4 50 50 50h152c8.8 0 16 7.2 16 16s-7.2 16-16 16h-152c-45.3 0-82-36.7-82-82v-428c0-45.3 36.7-82 82-82h152c8.8 0 16 7.2 16 16s-7.2 16-16 16h-152c-27.6 0-50 22.4-50 50V367h528.1v-198c0-27.6-22.4-50-50-50h-152c-8.8 0-16-7.2-16-16s7.2-16 16-16h152c45.3 0 82 36.7 82 82V597c0 45.3-36.7 82-82 82z"  horiz-adv-x="1024" />

    
    <glyph glyph-name="disanfanganquanqingbao-" unicode="&#58910;" d="M510.500037-62.501599c-60.498523 0-119.097092 11.799712-174.395743 35.199141-53.298699 22.599448-101.297527 54.89866-142.396523 95.997656-41.098997 41.098997-73.398208 88.997827-95.997657 142.396523C74.310686 266.290374 62.510974 324.988941 62.510974 385.487464s11.799712 119.097092 35.19914 174.395742c22.599448 53.298699 54.89866 101.297527 95.997657 142.396523s88.997827 73.398208 142.396523 95.997657C391.402944 821.576817 450.001514 833.476526 510.500037 833.476526s119.097092-11.799712 174.395742-35.19914c53.298699-22.599448 101.297527-54.89866 142.396523-95.997657 41.098997-41.098997 73.398208-88.997827 95.997657-142.396523 23.399429-55.198652 35.199141-113.897219 35.19914-174.395742s-11.799712-119.097092-35.19914-174.395743c-22.599448-53.298699-54.89866-101.297527-95.997657-142.396523-41.098997-41.098997-88.997827-73.398208-142.396523-95.997656-55.29865-23.399429-113.897219-35.199141-174.395742-35.199141z m0 863.778912c-229.294402 0-415.789849-186.495447-415.789849-415.789849s186.495447-415.789849 415.789849-415.789849 415.789849 186.495447 415.789849 415.789849S739.794439 801.277313 510.500037 801.277313zM514.299944 744.478699L449.801519 808.977125c-4.699885 4.699885-4.699885 12.2997 0 16.999585l66.498376 66.498376c4.699885 4.699885 12.2997 4.699885 16.999585 0L597.797905 827.976661c4.699885-4.699885 4.699885-12.2997 0-16.999585l-66.498376-66.498377c-4.699885-4.599888-12.399697-4.599888-16.999585 0zM136.40917 162.992896l-84.897928 33.399184c-6.099851 2.399941-9.199775 9.399771-6.799834 15.599619l34.399161 87.497864c2.399941 6.099851 9.399771 9.199775 15.599619 6.799834l84.897927-33.399184c6.099851-2.399941 9.199775-9.399771 6.799834-15.59962L152.008789 169.79273c-2.499939-6.199849-9.499768-9.199775-15.599619-6.799834zM878.491052 167.092796l-41.798979 81.09802c-2.999927 5.899856-0.699983 13.09968 5.199873 16.199604l83.597959 43.098948c5.899856 2.999927 13.09968 0.699983 16.199605-5.199873l41.798979-81.09802c2.999927-5.899856 0.699983-13.09968-5.199873-16.199605l-83.597959-43.098947c-5.899856-2.999927-13.199678-0.699983-16.199605 5.199873z"  horiz-adv-x="1024" />

    
    <glyph glyph-name="yuqinghuaxiang-" unicode="&#58911;" d="M961.6 385.4c0 2.3-0.5 4.6-1.4 6.6-1 57.6-12.8 113.5-35.1 166.2-22.6 53.3-54.9 101.3-96 142.4-41.1 41.1-89 73.4-142.4 96-52.5 22.2-108.1 34-165.4 35.1-2.4 1.5-5.3 2.3-8.3 2.3-3 0-5.8-0.9-8.2-2.3-57.8-0.9-113.9-12.7-166.9-35.1-53.3-22.6-101.3-54.9-142.4-96-41.1-41.1-73.4-89-96-142.4C76.1 503 64.3 444.3 64.3 383.8s11.8-119.1 35.2-174.4c22.6-53.3 54.9-101.3 96-142.4 41.1-41.1 89-73.4 142.4-96 55.2-23.4 113.9-35.2 174.4-35.2s119.1 11.8 174.4 35.2c53.3 22.6 101.3 54.9 142.4 96 41.1 41.1 73.4 89 96 142.4 22.7 53.8 34.6 110.8 35.2 169.6 0.8 1.9 1.3 4.1 1.3 6.4zM529-31.9V198c0 8.8-7.2 16-16 16s-16-7.2-16-16v-229.9C279.5-24 104 151.7 96.6 369.4h229c8.8 0 16 7.2 16 16s-7.2 16-16 16H96.7c9 216.1 183.8 390.2 400.3 398.1v-226.7c0-8.8 7.2-16 16-16s16 7.2 16 16V799.4c215.8-8.6 389.8-182.3 398.9-398H700.4c-8.8 0-16-7.2-16-16s7.2-16 16-16H928c-7.4-217.2-182.1-392.7-399-401.3z"  horiz-adv-x="1024" />

    
    <glyph glyph-name="ruqinganzhi-" unicode="&#58912;" d="M782.3 555.3l-30-13.3c42.2-59.1 67.1-131.5 67.1-209.5 0-199.3-162.1-361.4-361.4-361.4S96.5 133.3 96.5 332.6C96.5 531.8 258.6 694 457.9 694c78.4 0 151-25.1 210.3-67.6l17 27.4c-23.1 16.4-47.9 30.2-74.2 41.3-48.4 20.5-100 30.9-153.1 30.9s-104.6-10.4-153.1-30.9c-46.9-19.8-88.9-48.2-125.1-84.3-36.1-36.1-64.5-78.2-84.3-125.1-20.5-48.5-30.9-100-30.9-153.1 0-53.1 10.4-104.6 30.9-153.1 19.8-46.9 48.2-88.9 84.3-125.1 36.1-36.1 78.2-64.5 125.1-84.3 48.5-20.5 100-30.9 153.1-30.9s104.6 10.4 153.1 30.9c46.9 19.8 88.9 48.2 125.1 84.3s64.5 78.2 84.3 125.1c20.5 48.5 30.9 100 30.9 153.1 0 53.1-10.4 104.6-30.9 153.1-10.4 24.6-23.1 47.8-38.1 69.6zM619.7 503.4L780 761l25.1-92.5 83.9-46.1z"  horiz-adv-x="1024" />

    
    <glyph glyph-name="yingyongliuliangganzhi-" unicode="&#58913;" d="M81.9 611.5c-8.8 0-16 7.1-16 16l-0.9 193c0 4.3 1.7 8.4 4.7 11.4s7.1 4.7 11.4 4.7l193.1-0.5c8.9 0 16-7.2 16-16.1 0-8.8-7.2-16-16-16l-177.1 0.5 0.8-176.9c0.1-8.8-7.1-16-16-16.1 0.1 0 0 0 0 0zM81-61.1c-4.3 0-8.3 1.7-11.3 4.7S65-49.3 65-45l0.9 193c0 8.8 7.2 16 16 16h0.1c8.9 0 16-7.3 16-16.1L97.1-29l176.9 0.5c8.8 0 16-7.1 16-16s-7.1-16.1-16-16.1l-193-0.5c0.1 0 0 0 0 0zM945-61.1s-0.1 0 0 0l-193.1 0.5c-8.9 0-16 7.2-16 16.1 0 8.8 7.2 16 16 16l176.9-0.5-0.8 176.9c0 8.9 7.1 16.1 16 16.1s16.1-7.1 16.1-16l0.9-193c0-4.3-1.7-8.4-4.7-11.4s-7.1-4.7-11.3-4.7zM944.1 611.5s-0.1 0 0 0c-8.9 0-16.1 7.3-16 16.1l0.8 176.9-177-0.5c-8.8 0-16 7.1-16 16s7.1 16.1 16 16.1l193.1 0.5c4.3 0 8.4-1.7 11.4-4.7s4.7-7.1 4.7-11.4l-0.9-193c-0.1-8.8-7.3-16-16.1-16zM334.3 200.5h-0.5c-4.4 0.1-8.5 2.1-11.4 5.4L205.2 338.7c-5.9 6.6-5.3 16.8 1.3 22.7s16.7 5.3 22.5-1.3L335 240l165.3 166.1c5.8 5.8 15 6.3 21.3 1.1l96.1-78.5 227.8 246.8c6 6.5 16.1 6.9 22.6 0.8 6.5-6.1 6.8-16.2 0.8-22.8l-238-257.7c-5.7-6.2-15.2-6.9-21.7-1.5l-96.5 78.8-167.2-167.9c-3-3.1-7-4.7-11.2-4.7z"  horiz-adv-x="1024" />

    
    <glyph glyph-name="yingyongzuduanganzhi-" unicode="&#58914;" d="M77.4 603.4c-8.8 0-16 7.1-16 16l-0.9 193c0 4.3 1.7 8.4 4.7 11.4s7.1 4.7 11.4 4.7l193.1-0.5c8.9 0 16-7.2 16-16.1 0-8.8-7.2-16-16-16l-177.1 0.4 0.8-176.9c0.1-8.8-7.1-16-16-16 0.1 0 0 0 0 0zM76.5-69.2c-4.3 0-8.3 1.7-11.3 4.7s-4.7 7.1-4.7 11.4l0.9 193c0 8.8 7.2 16 16 16h0.1c8.9 0 16-7.3 16-16.1l-0.8-176.9 176.9 0.5c8.8 0 16-7.1 16-16s-7.1-16.1-16-16.1l-193.1-0.5c0.1 0 0 0 0 0zM940.5-69.2c-0.1 0-0.1 0 0 0l-193.1 0.5c-8.9 0-16 7.2-16 16.1 0 8.8 7.2 16 16 16l176.9-0.5-0.8 176.9c0 8.9 7.1 16.1 16 16.1s16.1-7.1 16.1-16l0.9-193c0-4.3-1.7-8.4-4.7-11.4-3-3.1-7.1-4.7-11.3-4.7zM939.6 603.4s-0.1 0 0 0c-8.9 0-16.1 7.3-16 16.1l0.8 176.9-176.9-0.5c-8.8 0-16 7.1-16 16s7.1 16.1 16 16.1l193.1 0.5c4.3 0 8.4-1.7 11.4-4.7s4.7-7.1 4.7-11.4l-0.9-193c-0.2-8.9-7.4-16-16.2-16zM805.8 363H693.4c-8.8 0-16 7.2-16 16s7.2 16 16 16h112.3c8.8 0 16-7.2 16-16s-7.1-16-15.9-16zM758.4 248.7L679 328.1c-6.2 6.2-6.2 16.4 0 22.6s16.4 6.2 22.6 0l79.4-79.4c6.2-6.2 6.2-16.4 0-22.6s-16.4-6.3-22.6 0zM758.4 509.4L679 430c-6.2-6.2-6.2-16.4 0-22.6 6.2-6.2 16.4-6.2 22.6 0l79.4 79.4c6.2 6.2 6.2 16.4 0 22.6s-16.4 6.3-22.6 0zM219.8 363h112.3c8.8 0 16 7.2 16 16s-7.2 16-16 16H219.8c-8.8 0-16-7.2-16-16s7.1-16 16-16zM267.2 248.7l79.4 79.4c6.2 6.2 6.2 16.4 0 22.6-6.2 6.2-16.4 6.2-22.6 0l-79.4-79.4c-6.2-6.2-6.2-16.4 0-22.6 6.2-6.3 16.3-6.3 22.6 0zM267.2 509.4l79.4-79.4c6.2-6.2 6.2-16.4 0-22.6-6.2-6.2-16.4-6.2-22.6 0l-79.4 79.4c-6.2 6.2-6.2 16.4 0 22.6 6.2 6.3 16.3 6.3 22.6 0zM398.3 425.6V591.7c0 60.8 51.1 110.3 114 110.3s114-49.5 114-110.3v-166.1h25.8V591.7c0 36-14.6 69.9-41.1 95.5-26.5 25.6-61.5 39.7-98.7 39.7s-72.3-14.1-98.7-39.7c-26.5-25.6-41.1-59.5-41.1-95.5v-166.1h25.8zM398.3 332.8v-166.1c0-60.8 51.1-110.3 114-110.3s114 49.5 114 110.3V332.8h25.8v-166.1c0-36-14.6-69.9-41.1-95.5-26.5-25.6-61.5-39.7-98.7-39.7s-72.3 14.1-98.7 39.7c-26.5 25.6-41.1 59.5-41.1 95.5V332.8h25.8z"  horiz-adv-x="1024" />

    
    <glyph glyph-name="yingyongshibieganzhi-" unicode="&#58915;" d="M445.1 372.2H273c-19.9 0-36.1 16.2-36.1 36.1V580.4c0 19.9 16.2 36.1 36.1 36.1h172.2c19.9 0 36.1-16.2 36.1-36.1v-172.2c-0.1-19.8-16.3-36-36.2-36zM273 584.4c-2.2 0-4-1.8-4-4v-172.2c0-2.2 1.8-4 4-4h172.2c2.2 0 4 1.8 4 4V580.4c0 2.2-1.8 4-4 4H273zM445.1 110.2H273c-19.9 0-36.1 16.2-36.1 36.1V318.5c0 19.9 16.2 36.1 36.1 36.1h172.2c19.9 0 36.1-16.2 36.1-36.1v-172.2c-0.1-19.9-16.3-36.1-36.2-36.1zM273 322.5c-2.2 0-4-1.8-4-4v-172.2c0-2.2 1.8-4 4-4h172.2c2.2 0 4 1.8 4 4V318.5c0 2.2-1.8 4-4 4H273zM714.1 110.2H541.9c-19.9 0-36.1 16.2-36.1 36.1V318.5c0 19.9 16.2 36.1 36.1 36.1h172.2c19.9 0 36.1-16.2 36.1-36.1v-172.2c0-19.9-16.2-36.1-36.1-36.1zM541.9 322.5c-2.2 0-4-1.8-4-4v-172.2c0-2.2 1.8-4 4-4h172.2c2.2 0 4 1.8 4 4V318.5c0 2.2-1.8 4-4 4H541.9zM655.9 380.5c-9.2 0-18.5 3.5-25.5 10.5L508.7 512.8c-14.1 14.1-14.1 36.9 0 51l121.7 121.7c14.1 14.1 36.9 14.1 51 0l121.7-121.7c14.1-14.1 14.1-36.9 0-51L681.4 391.1c-7-7.1-16.3-10.6-25.5-10.6z m-2.8 33.2c1.6-1.6 4.1-1.6 5.7 0l121.7 121.7c1 1 1.2 2.1 1.2 2.8s-0.2 1.9-1.2 2.8L658.7 662.9c-1.6 1.6-4.1 1.6-5.7 0L531.3 541.1c-1.6-1.6-1.6-4.1 0-5.7l121.8-121.7zM81.9 604.9c-8.8 0-16 7.1-16 16l-0.9 193c0 4.3 1.7 8.4 4.7 11.4S76.8 830 81.1 830l193.1-0.5c8.9 0 16-7.2 16-16.1 0-8.8-7.2-16-16-16l-177.1 0.5 0.8-176.9c0.1-8.8-7.1-16-16-16.1 0.1 0 0 0 0 0zM81-67.7c-4.3 0-8.3 1.7-11.3 4.7s-4.7 7.1-4.7 11.4l0.9 193c0 8.8 7.2 16 16 16h0.1c8.9 0 16-7.3 16-16.1l-0.8-176.9 176.9 0.5c8.8 0 16-7.1 16-16s-7.1-16.1-16-16.1l-193.1-0.5c0.1 0 0 0 0 0zM945-67.7s-0.1 0 0 0l-193.1 0.5c-8.9 0-16 7.2-16 16.1 0 8.8 7.2 16 16 16l176.9-0.5-0.8 176.9c0 8.9 7.1 16.1 16 16.1s16.1-7.1 16.1-16l0.9-193c0-4.3-1.7-8.4-4.7-11.4s-7.1-4.7-11.3-4.7zM944.1 604.9s-0.1 0 0 0c-8.9 0-16.1 7.3-16 16.1l0.8 176.9-176.9-0.5c-8.8 0-16 7.1-16 16s7.1 16.1 16 16.1l192.9 0.5c4.3 0 8.4-1.7 11.4-4.7s4.7-7.1 4.7-11.4l-0.9-193c0-8.8-7.2-16-16-16z"  horiz-adv-x="1024" />

    
    <glyph glyph-name="jisuanziyuan-" unicode="&#58916;" d="M835.4-64H187.3c-30.8 0-55.8 29.6-55.8 66.1V765.9c0 36.4 25 66.1 55.8 66.1h648.1c30.8 0 55.8-29.6 55.8-66.1V2c0-36.4-25.1-66-55.8-66zM187.3 799.9c-15.8 0-28.7-15.3-28.7-34V2c0-18.8 12.9-34 28.7-34h648.1c15.8 0 28.7 15.3 28.7 34V765.9c0 18.8-12.9 34-28.7 34H187.3z"  horiz-adv-x="1024" />

    
    <glyph glyph-name="dongxixiangliuliang-" unicode="&#58917;" d="M65.1 500c0 26.7 21.7 48.5 48.5 48.5h490.2l-0.4 104.2c0 17.4 9.3 33.6 24.3 42.2 15.1 8.7 33.7 8.6 48.7-0.2l260.8-152.9c18.8-11 28-33.5 22.3-54.5-5.7-21.1-25-35.8-46.8-35.8h-799c-26.9 0-48.6 21.7-48.6 48.5z m569.7 17.6H113.5c-9.7 0-17.6-7.9-17.6-17.6s7.9-17.6 17.6-17.6h799c7.9 0 14.9 5.3 17 13 2.1 7.6-1.3 15.8-8.1 19.8L660.7 668c-5.4 3.2-12.2 3.2-17.7 0.1-5.4-3.1-8.8-9-8.8-15.4l0.6-135.1zM65.1 268.8c0 4.3 0.6 8.6 1.7 12.7 5.7 21.1 25 35.8 46.8 35.8h799c26.7 0 48.5-21.7 48.5-48.5s-21.7-48.5-48.5-48.5H422.4l0.4-104.2c0-17.5-9.3-33.6-24.3-42.2-15.1-8.7-33.7-8.6-48.7 0.2L89 227c-14.8 8.7-23.9 24.7-23.9 41.8z m865.1 0c0 9.7-7.9 17.6-17.6 17.6h-799c-7.9 0-14.9-5.3-17-13-0.4-1.5-0.6-3.1-0.6-4.6 0-6.2 3.3-12 8.7-15.2l260.8-152.9c5.4-3.2 12.2-3.2 17.7-0.1 5.4 3.1 8.8 9 8.8 15.4l-0.6 135.1h521.2c9.7 0.1 17.6 8 17.6 17.7z"  horiz-adv-x="1024" />

    
    <glyph glyph-name="nanbeixiangliuliang-" unicode="&#58918;" d="M397.5-63.6c-26.7 0-48.5 21.7-48.5 48.5V475.1l-104.2-0.4c-17.4 0-33.6 9.3-42.2 24.3-8.7 15.1-8.6 33.7 0.2 48.7L355.7 808.4c11 18.8 33.5 28 54.5 22.3 21.1-5.7 35.8-25 35.8-46.8v-799c0-26.7-21.8-48.5-48.5-48.5z m-17.6 569.7v-521.2c0-9.7 7.9-17.6 17.6-17.6s17.6 7.9 17.6 17.6v799c0 7.9-5.3 14.9-13 17-7.6 2.1-15.8-1.3-19.8-8.1L229.5 532c-3.2-5.4-3.2-12.2-0.1-17.7 3.1-5.4 9-8.8 15.4-8.8l135.1 0.6zM628.6-63.6c-4.3 0-8.6 0.6-12.7 1.7-21.1 5.7-35.8 25-35.8 46.8v799c0 26.7 21.7 48.5 48.5 48.5s48.5-21.7 48.5-48.5v-490.2l104.2 0.4c17.5 0 33.6-9.3 42.2-24.3 8.7-15.1 8.6-33.7-0.2-48.7L670.5-39.6c-8.7-14.8-24.7-24-41.9-24z m0 865.1c-9.7 0-17.6-7.9-17.6-17.6v-799c0-7.9 5.3-14.9 13-17 1.5-0.4 3.1-0.6 4.6-0.6 6.2 0 12 3.3 15.2 8.7l152.9 260.8c3.2 5.4 3.2 12.2 0.1 17.7-3.1 5.4-9 8.8-15.4 8.8l-135.1-0.6V783.9c-0.1 9.7-8 17.6-17.7 17.6z"  horiz-adv-x="1024" />

    
    <glyph glyph-name="zichanshijian-" unicode="&#58919;" d="M863.7 31.3H159c-53.6 0-95.6 30-95.6 68.2V685c0 38.2 42 68.2 95.6 68.2h93.9c8.9 0 16-7.2 16-16s-7.2-16-16-16H159c-37.5 0-63.6-19-63.6-36.1v-585.5c0-17.1 26.1-36.1 63.6-36.1h704.7c37.5 0 63.6 19 63.6 36.1V685c0 17.1-26.1 36.1-63.6 36.1H758.6c-8.9 0-16 7.2-16 16s7.2 16 16 16h105.1c53.6 0 95.6-30 95.6-68.2v-585.5c0-38.1-42-68.1-95.6-68.1zM541.5 715.9h-104c-8.9 0-16 7.2-16 16s7.2 16 16 16h104c8.9 0 16-7.2 16-16s-7.1-16-16-16zM524.7 535.4H240.8c-8.9 0-16 7.2-16 16s7.2 16 16 16h283.9c8.9 0 16-7.2 16-16s-7.1-16-16-16zM638.3 385.5H240.8c-8.9 0-16 7.2-16 16s7.2 16 16 16h397.4c8.9 0 16-7.2 16-16s-7.1-16-15.9-16zM452.1 235.5H240.8c-8.9 0-16 7.2-16 16s7.2 16 16 16H452c8.9 0 16-7.2 16-16s-7.1-16-15.9-16zM350.1 662.8c-8.9 0-16 7.2-16 16V785c0 8.9 7.2 16 16 16s16-7.2 16-16v-106.2c0-8.9-7.2-16-16-16zM653.3 662.1c-8.9 0-16 7.2-16 16V784.4c0 8.9 7.2 16 16 16s16-7.2 16-16v-106.2c0-8.9-7.2-16.1-16-16.1z"  horiz-adv-x="1024" />

    
    </font>
</defs>
</svg>
